<svg width="590" height="590" viewBox="0 0 590 590" fill="none" xmlns="http://www.w3.org/2000/svg">
<path fill-rule="evenodd" clip-rule="evenodd" d="M245.938 0H343.483C343.7 65.3452 369.907 127.923 416.329 173.943C462.394 220.019 524.826 246.015 590 246.259V343.741C454.101 344.06 344.072 454.189 343.966 590H246.42C246.261 454.061 136.028 343.9 0 343.741V246.259C65.1625 246.051 127.596 220.089 173.671 174.04C219.824 127.847 245.805 65.2765 245.938 0ZM175.408 295.048C224.273 324.19 265.224 364.883 294.662 413.55C323.934 364.916 364.721 324.221 413.434 295.048C364.734 265.817 323.952 225.095 294.662 176.45C265.206 225.127 224.26 265.848 175.408 295.048Z" fill="#052D7D"/>
</svg>
