<svg width="58" height="58" viewBox="0 0 58 58" fill="none" xmlns="http://www.w3.org/2000/svg">
<path fill-rule="evenodd" clip-rule="evenodd" d="M58 34V24C44.7452 24 34 13.2548 34 0H24C24 18.7777 39.2223 34 58 34Z" fill="#F0F1F5"/>
<path fill-rule="evenodd" clip-rule="evenodd" d="M58 24V34C44.7452 34 34 44.7452 34 58H24C24 39.2223 39.2223 24 58 24Z" fill="#F0F1F5"/>
<path fill-rule="evenodd" clip-rule="evenodd" d="M0 24V34C13.2548 34 24 44.7452 24 58H34C34 39.2223 18.7777 24 0 24Z" fill="#F0F1F5"/>
<path fill-rule="evenodd" clip-rule="evenodd" d="M0 34V24C13.2548 24 24 13.2548 24 0H34C34 18.7777 18.7777 34 0 34Z" fill="#F0F1F5"/>
</svg>
