<svg width="209" height="40" viewBox="0 0 209 40" fill="none" xmlns="http://www.w3.org/2000/svg">
<path fill-rule="evenodd" clip-rule="evenodd" d="M11.8009 34.0005C8.40031 34.0005 5.58153 32.8917 3.34454 30.6741C1.13893 28.4781 -0.0678692 25.4854 0.00295014 22.3873C0.00295014 19.1033 1.12144 16.3513 3.35842 14.1314C5.59541 11.9115 8.40956 10.7924 11.8009 10.774C13.7828 10.7588 15.7345 11.2556 17.4639 12.2154C19.1471 13.1268 20.5482 14.4753 21.5168 16.1163L18.2898 17.9738C17.6852 16.8625 16.7725 15.9458 15.6595 15.3319C14.4828 14.6748 13.1513 14.3389 11.8009 14.3584C9.41354 14.3584 7.45532 15.1152 5.92621 16.6288C4.44106 18.1217 3.69964 20.0412 3.70195 22.3873C3.70426 24.7333 4.44568 26.6528 5.92621 28.1458C7.453 29.6593 9.41123 30.4161 11.8009 30.4161C13.1601 30.4355 14.5005 30.0997 15.6873 29.4426C16.8037 28.839 17.7134 27.9192 18.3002 26.8007L21.5168 28.6273C20.5627 30.2768 19.1721 31.6364 17.4951 32.5592C15.7588 33.53 13.7941 34.0273 11.8009 34.0005ZM39.4566 27.0587H26.6177C26.8269 28.174 27.4557 29.1688 28.377 29.8416C29.3744 30.5268 30.5683 30.8743 31.781 30.8323C33.6109 30.8323 34.9989 30.1719 35.945 28.8509L38.8182 30.5124C37.2451 32.8378 34.889 34.0005 31.7498 34.0005C29.1473 34.0005 27.0283 33.2116 25.3928 31.6339C23.7759 30.0368 22.8969 27.8482 22.9638 25.5864C22.9165 23.3531 23.7841 21.1961 25.3685 19.6078C26.937 17.9864 28.9808 17.1758 31.5 17.1758C33.7058 17.1185 35.827 18.0179 37.3087 19.6388C38.828 21.2616 39.6495 23.4074 39.5989 25.6208C39.5945 26.1027 39.5515 26.5835 39.4705 27.0587H39.4566ZM36.0908 24.2414H26.5934C26.774 23.1127 27.3577 22.086 28.2382 21.3484C29.1533 20.628 30.2975 20.2548 31.4653 20.2958C32.5639 20.2693 33.6355 20.6356 34.4842 21.3278C35.3543 22.077 35.9244 23.1108 36.0908 24.2414ZM51.3136 17.1723C53.4732 17.1598 55.5372 18.0547 56.9939 19.6353C58.5475 21.228 59.3924 23.3715 59.3397 25.5864C59.3941 27.8128 58.5454 29.9678 56.9835 31.5685C55.5238 33.1412 53.4589 34.0253 51.3032 34.0005C48.8719 34.0005 46.9888 33.105 45.654 31.3139V39.9826H42.1841V17.5886H45.654V19.8933C46.9726 18.0816 48.8591 17.1746 51.3136 17.1723ZM54.4053 29.2672C52.3598 31.1805 49.1639 31.1805 47.1184 29.2672C46.1619 28.2801 45.6433 26.9547 45.6783 25.5864C45.6348 24.2242 46.1609 22.9046 47.1323 21.9401C49.1562 19.9734 52.3953 19.9734 54.4192 21.9401C55.3893 22.9052 55.9141 24.2247 55.8697 25.5864C55.9061 26.9596 55.3775 28.2884 54.4053 29.2672ZM70.5165 17.1723C72.3903 17.1723 73.8939 17.764 75.0274 18.9473C76.161 20.1307 76.7254 21.736 76.7208 23.7633V33.5843H73.2196V24.1141C73.2196 22.9216 72.8969 22.0043 72.2515 21.3622C71.5397 20.6971 70.5841 20.3502 69.6073 20.4024C68.4836 20.3457 67.3898 20.7719 66.6058 21.572C65.8725 22.3494 65.507 23.4961 65.5093 25.012V33.5843H62.0289V11.1903H65.5162V19.6353C66.5919 17.9956 68.2587 17.1746 70.5165 17.1723ZM82.7829 27.0587H95.6218C95.7011 26.5833 95.744 26.1027 95.7502 25.6208C95.8008 23.4074 94.9792 21.2616 93.46 19.6388C91.9783 18.0179 89.857 17.1185 87.6512 17.1758C85.132 17.1758 83.0882 17.9864 81.5198 19.6078C79.9331 21.2 79.0665 23.3626 79.1186 25.6002C79.052 27.8619 79.931 30.0503 81.5475 31.6476C83.1854 33.2162 85.3078 34.0005 87.915 34.0005C91.0564 34.0005 93.4126 32.8378 94.9833 30.5124L92.1102 28.8509C91.164 30.1719 89.776 30.8323 87.9462 30.8323C86.7335 30.8743 85.5395 30.5268 84.5421 29.8416C83.6209 29.1688 82.992 28.174 82.7829 27.0587ZM82.7447 24.2414H92.2316C92.0657 23.114 91.4998 22.0821 90.6354 21.3312C89.7867 20.6391 88.7152 20.2728 87.6165 20.2992C86.4488 20.2583 85.3045 20.6315 84.3895 21.3519C83.5097 22.0886 82.926 23.114 82.7447 24.2414ZM109.255 17.5886V26.1609C109.253 27.6768 108.883 28.8234 108.145 29.6008C107.362 30.4017 106.267 30.8281 105.143 30.7704C104.162 30.8265 103.201 30.4794 102.485 29.8107C101.84 29.1686 101.517 28.2512 101.517 27.0587V17.5886H98.0473V27.4096C98.0381 29.4369 98.6025 31.0422 99.7407 32.2255C100.879 33.4089 102.382 34.0005 104.252 34.0005C106.512 34.0005 108.18 33.1795 109.255 31.5375V33.5843H112.725V17.5886H109.255ZM119.37 22.0158C119.383 22.5275 119.681 22.99 120.144 23.2163C120.858 23.5977 121.619 23.8878 122.407 24.0797C123.073 24.2266 123.731 24.4081 124.378 24.6232C124.996 24.8446 125.59 25.1281 126.151 25.4695C126.754 25.8234 127.25 26.332 127.587 26.9418C127.928 27.5998 128.086 28.3359 128.045 29.0745C128.095 30.4993 127.42 31.8537 126.248 32.6796C124.935 33.5865 123.36 34.0464 121.761 33.9902C120.332 34.0377 118.917 33.7038 117.663 33.0236C116.556 32.3976 115.684 31.4317 115.179 30.2716L118.18 28.5517C118.717 30.0859 119.911 30.853 121.761 30.853C123.612 30.853 124.527 30.2556 124.506 29.0608C124.506 28.187 123.483 27.499 121.438 26.9968C120.779 26.8391 120.128 26.6473 119.488 26.4223C118.887 26.1948 118.306 25.9163 117.753 25.5899C117.144 25.2533 116.64 24.7555 116.299 24.152C115.96 23.5178 115.798 22.8051 115.831 22.088C115.787 20.7068 116.411 19.3879 117.51 18.538C118.72 17.6188 120.214 17.1435 121.737 17.193C122.983 17.1703 124.214 17.4741 125.304 18.0736C126.319 18.6387 127.15 19.4803 127.698 20.4987L124.759 22.1327C124.225 20.9081 123.215 20.2958 121.73 20.2958C121.133 20.2705 120.542 20.4265 120.037 20.743C119.601 21.0184 119.347 21.5038 119.37 22.0158ZM147.8 11.204H139.732L139.736 33.5843H141.998V25.27H147.803C149.699 25.3137 151.531 24.5863 152.872 23.2567C154.213 21.9272 154.947 20.1115 154.903 18.2318C154.944 16.3533 154.209 14.5397 152.867 13.2124C151.526 11.885 149.695 11.1594 147.8 11.204ZM141.995 23.1681H147.8C149.1 23.2138 150.36 22.7143 151.27 21.7922C152.205 20.8481 152.707 19.5643 152.658 18.2421C152.703 16.9299 152.201 15.6572 151.27 14.7231C150.369 13.7841 149.106 13.272 147.8 13.3161H141.998L141.995 23.1681ZM170.067 20.7169V17.5886H172.197V33.5843H170.067V30.4505C168.584 32.7966 166.412 33.9696 163.55 33.9696C161.33 34.0002 159.195 33.1201 157.651 31.5375C156.054 29.9669 155.176 27.816 155.222 25.5864C155.177 23.357 156.055 21.2064 157.651 19.6353C159.195 18.0527 161.33 17.1727 163.55 17.2033C166.41 17.201 168.582 18.3722 170.067 20.7169ZM159.195 30.0962C161.706 32.5186 165.706 32.5186 168.217 30.0962C169.419 28.9008 170.083 27.2742 170.056 25.5864C170.056 22.1059 167.21 19.2844 163.699 19.2844C160.189 19.2844 157.342 22.1059 157.342 25.5864C157.321 27.2759 157.989 28.9022 159.195 30.0962ZM187.753 17.5782L182.524 30.994L176.455 17.5886H174.196L181.445 33.6806L181.025 34.6713C180.014 37.1183 178.54 38.2271 176.604 37.9978V39.9826C177.98 40.0933 179.347 39.6758 180.421 38.8165C181.645 37.8273 182.575 36.528 183.114 35.0566L190.012 17.5782H187.753Z" fill="#030F4C"/>
<path fill-rule="evenodd" clip-rule="evenodd" d="M196.626 0H200.134C200.142 2.33128 201.085 4.56382 202.754 6.20566C204.411 7.84947 206.656 8.77693 209 8.78562V12.2634C204.112 12.2748 200.155 16.2038 200.152 21.049H196.643C196.638 16.1992 192.673 12.2691 187.781 12.2634V8.78562C190.125 8.77821 192.37 7.85197 194.027 6.2091C195.687 4.56111 196.621 2.32883 196.626 0ZM194.089 10.5262C195.847 11.5659 197.32 13.0177 198.378 14.7539C199.431 13.0189 200.898 11.567 202.65 10.5262C200.898 9.48337 199.432 8.03055 198.378 6.2951C197.319 8.03172 195.846 9.48448 194.089 10.5262Z" fill="#F00000"/>
</svg>
