<svg width="119" height="40" viewBox="0 0 119 40" fill="none" xmlns="http://www.w3.org/2000/svg">
<path fill-rule="evenodd" clip-rule="evenodd" d="M0 16C0 10.3995 0 7.59921 1.08993 5.46009C2.04867 3.57847 3.57847 2.04867 5.46009 1.08993C7.59921 0 10.3995 0 16 0L103 0C108.601 0 111.401 0 113.54 1.08993C115.422 2.04867 116.951 3.57847 117.91 5.46009C119 7.59921 119 10.3995 119 16V24C119 29.6005 119 32.4008 117.91 34.5399C116.951 36.4215 115.422 37.9513 113.54 38.9101C111.401 40 108.601 40 103 40H16C10.3995 40 7.59921 40 5.46009 38.9101C3.57847 37.9513 2.04867 36.4215 1.08993 34.5399C0 32.4008 0 29.6005 0 24V16Z" fill="#F00000"/>
<path fill-rule="evenodd" clip-rule="evenodd" d="M74.6792 29.0762C73.0444 29.0762 71.8481 28.2676 71.7104 27.0362L69.8081 27.0361C69.9282 29.2822 71.7876 30.7031 74.5415 30.7031C77.4848 30.7031 79.3354 29.248 79.3354 26.9248C79.3354 25.1084 78.2768 24.0849 75.729 23.4824L74.3608 23.1465C72.7602 22.751 72.1059 22.2344 72.1059 21.3565C72.1059 20.2549 73.1303 19.4981 74.6274 19.4981C76.1245 19.4981 77.1489 20.2461 77.2612 21.4854H79.1372C79.0767 19.3428 77.2778 17.8711 74.6538 17.8711C72.0024 17.8711 70.1353 19.3428 70.1353 21.4854C70.1353 23.2158 71.1939 24.2822 73.4741 24.833L75.0835 25.2207C76.6929 25.6162 77.3726 26.1934 77.3726 27.1572C77.3726 28.2676 76.2456 29.0762 74.6792 29.0762ZM42.3022 27.1397H37.5688L36.4321 30.4962H34.4272L38.9106 18.0782H40.9936L45.477 30.4962H43.438L42.3022 27.1397ZM38.0591 25.5909H41.8111L39.9615 20.1436H39.9097L38.0591 25.5909ZM51.3813 30.5909C53.6538 30.5909 55.1597 28.7833 55.1597 25.9698C55.1597 23.1641 53.645 21.3477 51.3472 21.3477C50.1648 21.3096 49.0572 21.9245 48.4644 22.9483H48.4302V21.4424H46.6313V33.4913H48.4897V29.0069H48.5327C49.1003 30.0371 50.2067 30.6523 51.3813 30.5909ZM53.2495 25.9698C53.2495 24.1368 52.3022 22.9317 50.8569 22.9317C49.437 22.9317 48.4819 24.1622 48.4819 25.9698C48.4819 27.794 49.437 29.0157 50.8569 29.0157C52.3022 29.0157 53.2495 27.8194 53.2495 25.9698ZM61.3462 30.5909C63.6186 30.5909 65.1245 28.7833 65.1245 25.9698C65.1245 23.1641 63.6099 21.3477 61.312 21.3477C60.1296 21.3096 59.022 21.9245 58.4292 22.9483H58.395V21.4424H56.5962V33.4913H58.4546V29.0069H58.4976C59.0651 30.0371 60.1716 30.6523 61.3462 30.5909ZM63.2143 25.9698C63.2143 24.1368 62.2671 22.9317 60.8218 22.9317C59.4018 22.9317 58.4468 24.1622 58.4468 25.9698C58.4468 27.794 59.4018 29.0157 60.8218 29.0157C62.2671 29.0157 63.2144 27.8194 63.2143 25.9698ZM83.3462 19.2999V21.4424H85.0679V22.9141H83.3462V27.9053C83.3462 28.6807 83.6909 29.042 84.4477 29.042C84.6521 29.0385 84.8562 29.0241 85.0591 28.999V30.4619C84.7188 30.5255 84.3729 30.5543 84.0268 30.5479C82.1938 30.5479 81.479 29.8594 81.479 28.1035V22.9141H80.1626V21.4424H81.479V19.2999H83.3462ZM90.3589 21.3311C87.7427 21.3311 86.065 23.1212 86.065 25.9698C86.065 28.8262 87.7261 30.6085 90.3589 30.6085C92.9927 30.6085 94.6538 28.8262 94.6538 25.9698C94.6538 23.1211 92.9839 21.3311 90.3589 21.3311ZM92.7603 25.9698C92.7603 24.0157 91.8648 22.8624 90.3589 22.8624C88.8531 22.8624 87.9585 24.0245 87.9585 25.9698C87.9585 27.9317 88.8531 29.0762 90.3589 29.0762C91.8648 29.0762 92.7602 27.9317 92.7602 25.9698H92.7603ZM97.9585 21.4424H96.186L96.186 30.4961H98.0444V25.126C97.9826 24.5827 98.1612 24.0395 98.5335 23.6391C98.9058 23.2386 99.4346 23.0208 99.9809 23.043C100.264 23.0348 100.546 23.0727 100.816 23.1553V21.417C100.607 21.3702 100.393 21.3469 100.179 21.3477C99.1576 21.3087 98.2487 21.9914 98.0015 22.9834H97.9585V21.4424ZM109.384 27.837C109.134 29.4805 107.534 30.6084 105.486 30.6084C102.852 30.6084 101.217 28.8438 101.217 26.0127C101.217 23.1729 102.861 21.3311 105.408 21.3311C107.913 21.3311 109.488 23.0518 109.488 25.7969V26.4336H103.093V26.5459C103.034 27.22 103.266 27.8872 103.732 28.3778C104.198 28.8685 104.853 29.1353 105.529 29.1104C106.431 29.1949 107.281 28.677 107.62 27.837L109.384 27.837ZM107.628 25.1348H103.102C103.1 24.5236 103.343 23.937 103.776 23.5055C104.209 23.074 104.796 22.8333 105.408 22.837C106.014 22.8239 106.599 23.0645 107.02 23.5007C107.442 23.9369 107.662 24.5292 107.628 25.1348Z" fill="white"/>
<path fill-rule="evenodd" clip-rule="evenodd" d="M59.0937 8.43701H59.9824V14.6978H59.0937V8.43701ZM39.9317 9.54888C39.3879 8.97456 38.6151 8.6744 37.8262 8.73101H35.6709V14.6979H37.8262C39.6035 14.6979 40.6338 13.6021 40.6338 11.6959C40.7333 10.9112 40.4756 10.1232 39.9317 9.54888ZM37.7226 13.854H36.5976V9.57422H37.7226C38.2835 9.5431 38.8289 9.76423 39.2096 10.1771C39.5904 10.5901 39.7668 11.1515 39.6904 11.708C39.7728 12.2668 39.5989 12.833 39.2172 13.2493C38.8355 13.6656 38.2865 13.8877 37.7226 13.854ZM41.6807 12.4444C41.6034 11.6372 41.9905 10.8561 42.6794 10.4286C43.3683 10.0011 44.2401 10.0011 44.929 10.4286C45.6179 10.8561 46.0049 11.6372 45.9277 12.4444C46.0064 13.2523 45.6197 14.035 44.9302 14.4634C44.2407 14.8918 43.3677 14.8918 42.6782 14.4634C41.9886 14.035 41.602 13.2523 41.6807 12.4444ZM43.8057 10.8975C44.5752 10.8975 45.0137 11.4683 45.0137 12.4444H45.0137C45.0137 13.4243 44.5752 13.9946 43.8057 13.9947C43.0332 13.9947 42.5987 13.4283 42.5987 12.4444C42.5987 11.4683 43.0332 10.8975 43.8057 10.8975ZM51.5732 14.6978H50.6514L49.7207 11.3814H49.6504L48.7236 14.6978H47.8105L46.5693 10.1948H47.4707L48.2773 13.6308H48.3438L49.2695 10.1948H50.1221L51.0479 13.6308H51.1182L51.9209 10.1948H52.8096L51.5732 14.6978ZM54.709 10.1948H53.8535L53.8535 14.6978H54.7422V12.0635C54.7103 11.7638 54.8109 11.4652 55.0175 11.2458C55.2242 11.0265 55.5163 10.9084 55.8174 10.9224C56.4746 10.9224 56.7891 11.2822 56.7891 12.0059V14.6977H57.6777V11.7827C57.7429 11.3424 57.6043 10.8964 57.3011 10.5706C56.9979 10.2448 56.563 10.0745 56.1191 10.1079C55.5459 10.0613 55.0063 10.3835 54.7754 10.9102H54.709V10.1948ZM62.2167 10.4285C61.5277 10.8561 61.1406 11.6372 61.2178 12.4444C61.1392 13.2524 61.5259 14.035 62.2155 14.4634C62.9051 14.8918 63.778 14.8918 64.4676 14.4634C65.1572 14.035 65.5439 13.2524 65.4653 12.4444C65.5425 11.6372 65.1554 10.8561 64.4664 10.4285C63.7774 10.001 62.9057 10.001 62.2167 10.4285ZM64.5508 12.4444C64.5508 11.4683 64.1123 10.8975 63.3428 10.8975C62.5703 10.8975 62.1358 11.4683 62.1358 12.4444C62.1358 13.4283 62.5703 13.9947 63.3428 13.9947C64.1123 13.9946 64.5508 13.4243 64.5508 12.4444ZM68.0757 12.0801C67.0044 12.1465 66.4009 12.6138 66.4009 13.4243C66.4024 13.8087 66.5664 14.1744 66.8524 14.4312C67.1383 14.6879 67.5196 14.8117 67.9019 14.772C68.4472 14.7972 68.9638 14.5271 69.2544 14.065H69.3247V14.6978H70.1802V11.6211C70.1802 10.6699 69.5435 10.1079 68.4146 10.1079C67.3931 10.1079 66.6655 10.604 66.5747 11.3775H67.4351C67.5337 11.0591 67.8774 10.877 68.3735 10.877C68.981 10.877 69.2954 11.1455 69.2954 11.6211V12.0098L68.0757 12.0801ZM69.2954 13.0396V12.6631L68.1958 12.7334C67.5757 12.7749 67.2944 12.9859 67.2944 13.3828C67.2944 13.7881 67.646 14.0239 68.1294 14.0239C68.4156 14.0529 68.7013 13.9645 68.9211 13.7789C69.1409 13.5934 69.276 13.3266 69.2954 13.0396ZM73.2173 10.1201C72.0796 10.1201 71.3481 11.0215 71.3481 12.4444C71.3481 13.8706 72.0718 14.772 73.2173 14.772C73.798 14.7934 74.3427 14.4907 74.6313 13.9863H74.7017V14.6978H75.5532V8.43701H74.6645V10.9101H74.5981C74.3298 10.4015 73.7918 10.0937 73.2173 10.1201ZM72.2661 12.4444C72.2661 13.3994 72.7163 13.9741 73.4693 13.9741C74.2183 13.9741 74.6812 13.3911 74.6812 12.4483C74.6812 11.5098 74.2134 10.9185 73.4693 10.9185C72.7212 10.9185 72.2661 11.4971 72.2661 12.4444H72.2661ZM80.2287 10.4286C79.5398 10.8561 79.1528 11.6372 79.23 12.4444C79.1513 13.2523 79.538 14.035 80.2275 14.4634C80.917 14.8918 81.79 14.8918 82.4795 14.4634C83.1691 14.035 83.5557 13.2523 83.4771 12.4444C83.5543 11.6372 83.1672 10.8561 82.4783 10.4286C81.7894 10.0011 80.9176 10.0011 80.2287 10.4286ZM82.563 12.4444C82.563 11.4683 82.1245 10.8975 81.355 10.8975C80.5825 10.8975 80.148 11.4683 80.148 12.4444C80.148 13.4283 80.5826 13.9947 81.355 13.9947C82.1245 13.9946 82.563 13.4243 82.563 12.4444ZM85.5249 10.1948H84.6694V14.6978H85.5581V12.0635C85.5262 11.7638 85.6268 11.4652 85.8335 11.2458C86.0401 11.0265 86.3323 10.9084 86.6333 10.9224C87.2905 10.9224 87.605 11.2822 87.605 12.0059V14.6977H88.4936V11.7827C88.5588 11.3424 88.4202 10.8964 88.117 10.5706C87.8138 10.2448 87.3789 10.0745 86.9351 10.1079C86.3619 10.0613 85.8222 10.3835 85.5913 10.9102H85.5249V10.1948ZM93.5151 9.07374V10.2153H94.4907V10.9639H93.5151V13.2793C93.5151 13.751 93.7095 13.9575 94.1519 13.9575C94.2651 13.9572 94.3783 13.9503 94.4907 13.937V14.6773C94.3311 14.7058 94.1694 14.721 94.0073 14.7227C93.019 14.7227 92.6255 14.375 92.6255 13.5068V10.9638H91.9106V10.2153H92.6255V9.07374H93.5151ZM96.5854 8.43701H95.7046L95.7046 14.6977H96.5933V12.0679C96.5658 11.7589 96.6761 11.4535 96.8947 11.2334C97.1133 11.0133 97.4179 10.9009 97.7271 10.9263C98.355 10.9263 98.69 11.2905 98.69 12.0098V14.6978H99.5795V11.7905C99.6384 11.3525 99.4989 10.9111 99.199 10.5864C98.8991 10.2618 98.4701 10.0878 98.0288 10.1118C97.4469 10.0646 96.8978 10.3872 96.6558 10.9185H96.5854V8.43701ZM104.761 13.4819C104.512 14.3313 103.69 14.8801 102.81 14.7847C102.21 14.8005 101.633 14.5516 101.232 14.1041C100.831 13.6565 100.648 13.0555 100.73 12.4605C100.65 11.8638 100.833 11.2618 101.231 10.8105C101.63 10.3591 102.204 10.1028 102.806 10.1079C104.059 10.1079 104.815 10.9639 104.815 12.3779V12.688H101.635V12.7378C101.607 13.072 101.721 13.4025 101.95 13.6481C102.178 13.8936 102.499 14.0315 102.834 14.0278C103.269 14.08 103.692 13.8643 103.906 13.4819L104.761 13.4819ZM103.91 12.0308H101.635C101.631 11.7203 101.753 11.4213 101.972 11.2017C102.192 10.982 102.491 10.8604 102.801 10.8643C103.108 10.8572 103.403 10.9799 103.614 11.2021C103.825 11.4242 103.932 11.7252 103.91 12.0308Z" fill="white"/>
<path fill-rule="evenodd" clip-rule="evenodd" d="M23.1518 8.72021C23.2486 9.98445 22.8488 11.2366 22.0372 12.2108C21.2499 13.1901 20.0569 13.7542 18.8005 13.7412C18.7206 12.5134 19.132 11.3041 19.9442 10.3798C20.7667 9.44299 21.9119 8.85044 23.1518 8.72021ZM27.1254 16.1486C25.6801 17.0371 24.7907 18.6042 24.7689 20.3006C24.7709 22.22 25.9204 23.9521 27.6881 24.6998C27.3481 25.8042 26.8357 26.8479 26.1697 27.7923C25.2753 29.1302 24.3376 30.4373 22.8492 30.4614C22.1413 30.4778 21.6635 30.2742 21.1656 30.0621C20.6462 29.8409 20.1051 29.6103 19.2582 29.6103C18.36 29.6103 17.7946 29.8483 17.2493 30.0778C16.778 30.2761 16.3218 30.4682 15.6788 30.4948C14.2613 30.5473 13.1781 29.0669 12.2512 27.7415C10.3985 25.0349 8.95595 20.1139 10.89 16.7654C11.7981 15.1335 13.4962 14.0979 15.3629 14.0376C16.1668 14.021 16.9382 14.3309 17.6145 14.6025C18.1318 14.8103 18.5934 14.9957 18.9714 14.9957C19.3037 14.9957 19.7524 14.8176 20.2753 14.6101C21.0991 14.2831 22.1071 13.8831 23.1343 13.9909C24.7304 14.0408 26.2095 14.8405 27.1254 16.1486Z" fill="white"/>
</svg>
