<svg width="24" height="24" viewBox="0 0 24 24" fill="none" xmlns="http://www.w3.org/2000/svg">
<circle cx="12" cy="12" r="12" fill="#171F69"/>
<mask id="mask0_171_4480" style="mask-type:luminance" maskUnits="userSpaceOnUse" x="0" y="0" width="24" height="24">
<circle cx="12" cy="12" r="12" fill="white"/>
</mask>
<g mask="url(#mask0_171_4480)">
<circle cx="12" cy="12" r="12" fill="white"/>
<circle cx="12" cy="12" r="11.7818" stroke="#030F4C" stroke-opacity="0.101644" stroke-width="0.436364"/>
<mask id="mask1_171_4480" style="mask-type:luminance" maskUnits="userSpaceOnUse" x="0" y="0" width="24" height="24">
<circle cx="12" cy="12" r="12" fill="white"/>
<circle cx="12" cy="12" r="11.7818" stroke="white" stroke-width="0.436364"/>
</mask>
<g mask="url(#mask1_171_4480)">
<path fill-rule="evenodd" clip-rule="evenodd" d="M20.2936 -1.24854H29.7416V23.7605H20.2936V-1.24854Z" fill="#E30D0D"/>
<path fill-rule="evenodd" clip-rule="evenodd" d="M-5.62479 -1.24854H3.82321V23.7605H-5.62479V-1.24854Z" fill="#E30D0D"/>
<path fill-rule="evenodd" clip-rule="evenodd" d="M12.5182 18.3272C12.4397 17.0529 12.4042 16.23 12.3754 15.4347C12.359 15.0939 12.6619 15.1267 12.8846 15.1613C14.7451 15.4456 15.6219 15.5786 15.6219 15.5786C14.6573 13.7815 17.081 12.9113 18.3273 11.8658C17.3613 11.5442 17.493 11.6619 18.1148 9.37481C16.0982 10.0065 16.2636 9.82235 15.8357 8.83497C15.8357 8.83497 15.6787 9.01127 14.4169 10.4164C14.2368 10.6172 13.9352 10.4829 13.9987 10.1767C14.6559 6.96959 14.6892 6.83923 14.6892 6.83923C13.4088 7.60174 13.4567 7.64461 13.2536 7.25132C12.5506 5.90172 12.218 5.23633 12.218 5.23633C12.218 5.23633 11.8853 5.90172 11.1824 7.25132C10.9793 7.64461 11.0272 7.60174 9.74719 6.83923C9.74719 6.83923 9.78001 6.96959 10.4373 10.1767C10.5007 10.4829 10.1991 10.6172 10.0191 10.4164C8.75728 9.01127 8.60117 8.83497 8.60117 8.83497C8.1723 9.82235 8.33905 10.0065 6.32154 9.37481C6.94289 11.6619 7.07506 11.5442 6.1091 11.8658C7.35536 12.9113 9.77912 13.7815 8.81405 15.5786C8.81405 15.5786 9.69131 15.4456 11.5514 15.1613C11.774 15.1267 12.0774 15.0939 12.0605 15.4347C12.0317 16.23 11.9962 17.0529 11.9177 18.3272H12.5182Z" fill="#E30D0D"/>
</g>
</g>
</svg>
