<svg width="24" height="24" viewBox="0 0 24 24" fill="none" xmlns="http://www.w3.org/2000/svg">
<rect width="24" height="24" rx="12" fill="#003399"/>
<path d="M11.9999 4.08604L11.6587 5.14512L12.1838 5.31718L11.9999 4.08604Z" fill="#FFCC00"/>
<path d="M11.9998 4.08604L12.3411 5.14512L11.816 5.31718L11.9998 4.08604Z" fill="#FFCC00"/>
<path d="M13.0551 4.8554L11.9424 4.85815L11.941 5.41071L13.0551 4.8554Z" fill="#FFCC00"/>
<path d="M13.055 4.85552L12.1532 5.50731L11.8273 5.0611L13.055 4.85552Z" fill="#FFCC00"/>
<path d="M12.6519 6.10069L12.3055 5.04331L11.7795 5.21275L12.6519 6.10069Z" fill="#FFCC00"/>
<path d="M12.6521 6.10064L11.7535 5.44439L12.0772 4.99655L12.6521 6.10064Z" fill="#FFCC00"/>
<path d="M10.9448 4.8554L12.0575 4.85815L12.0589 5.41071L10.9448 4.8554Z" fill="#FFCC00"/>
<path d="M10.9449 4.85552L11.8467 5.50731L12.1726 5.0611L10.9449 4.85552Z" fill="#FFCC00"/>
<path d="M11.3479 6.10069L11.6944 5.04331L12.2203 5.21275L11.3479 6.10069Z" fill="#FFCC00"/>
<path d="M11.3478 6.10064L12.2464 5.44439L11.9227 4.99655L11.3478 6.10064Z" fill="#FFCC00"/>
<path d="M11.9999 17.4491L11.6587 18.5082L12.1838 18.6802L11.9999 17.4491Z" fill="#FFCC00"/>
<path d="M11.9998 17.4491L12.3411 18.5082L11.816 18.6802L11.9998 17.4491Z" fill="#FFCC00"/>
<path d="M13.0551 18.2184L11.9424 18.2212L11.941 18.7737L13.0551 18.2184Z" fill="#FFCC00"/>
<path d="M13.055 18.2186L12.1532 18.8704L11.8273 18.4241L13.055 18.2186Z" fill="#FFCC00"/>
<path d="M12.6519 19.4637L12.3055 18.4063L11.7795 18.5758L12.6519 19.4637Z" fill="#FFCC00"/>
<path d="M12.6521 19.4637L11.7535 18.8074L12.0772 18.3596L12.6521 19.4637Z" fill="#FFCC00"/>
<path d="M10.9448 18.2184L12.0575 18.2212L12.0589 18.7737L10.9448 18.2184Z" fill="#FFCC00"/>
<path d="M10.9449 18.2186L11.8467 18.8704L12.1726 18.4241L10.9449 18.2186Z" fill="#FFCC00"/>
<path d="M11.3479 19.4637L11.6944 18.4063L12.2203 18.5758L11.3479 19.4637Z" fill="#FFCC00"/>
<path d="M11.3478 19.4637L12.2464 18.8074L11.9227 18.3596L11.3478 19.4637Z" fill="#FFCC00"/>
<path d="M5.37467 10.7674L5.03345 11.8265L5.55854 11.9986L5.37467 10.7674Z" fill="#FFCC00"/>
<path d="M5.3746 10.7674L5.71582 11.8265L5.19073 11.9986L5.3746 10.7674Z" fill="#FFCC00"/>
<path d="M6.42981 11.5368L5.31712 11.5396L5.31574 12.0921L6.42981 11.5368Z" fill="#FFCC00"/>
<path d="M6.42973 11.5369L5.52793 12.1887L5.20203 11.7425L6.42973 11.5369Z" fill="#FFCC00"/>
<path d="M6.0267 12.7821L5.68024 11.7247L5.1543 11.8941L6.0267 12.7821Z" fill="#FFCC00"/>
<path d="M6.02681 12.782L5.12824 12.1258L5.45191 11.6779L6.02681 12.782Z" fill="#FFCC00"/>
<path d="M4.31958 11.5368L5.43227 11.5396L5.43365 12.0921L4.31958 11.5368Z" fill="#FFCC00"/>
<path d="M4.31966 11.5369L5.22146 12.1887L5.54736 11.7425L4.31966 11.5369Z" fill="#FFCC00"/>
<path d="M4.72269 12.7821L5.06915 11.7247L5.59509 11.8941L4.72269 12.7821Z" fill="#FFCC00"/>
<path d="M4.72258 12.782L5.62115 12.1258L5.29748 11.6779L4.72258 12.782Z" fill="#FFCC00"/>
<path d="M8.03215 6.99566L8.93072 6.33941L8.60705 5.89157L8.03215 6.99566Z" fill="#FFCC00"/>
<path d="M8.03214 6.99571L8.3786 5.93833L8.90454 6.10777L8.03214 6.99571Z" fill="#FFCC00"/>
<path d="M7.63081 5.75298L8.53262 6.40478L8.85851 5.95856L7.63081 5.75298Z" fill="#FFCC00"/>
<path d="M7.63086 5.75311L8.74355 5.75586L8.74492 6.30842L7.63086 5.75311Z" fill="#FFCC00"/>
<path d="M8.68876 4.98277L8.34754 6.04185L8.87262 6.21391L8.68876 4.98277Z" fill="#FFCC00"/>
<path d="M8.68868 4.98277L9.02991 6.04185L8.50482 6.21391L8.68868 4.98277Z" fill="#FFCC00"/>
<path d="M9.33809 6.99321L8.43952 6.33697L8.76319 5.88913L9.33809 6.99321Z" fill="#FFCC00"/>
<path d="M9.3381 6.99327L8.99164 5.93589L8.4657 6.10533L9.3381 6.99327Z" fill="#FFCC00"/>
<path d="M9.74394 5.74907L8.84214 6.40087L8.51624 5.95465L9.74394 5.74907Z" fill="#FFCC00"/>
<path d="M9.7439 5.7492L8.63121 5.75195L8.62983 6.30451L9.7439 5.7492Z" fill="#FFCC00"/>
<path d="M6.91744 9.44127L6.57099 8.38389L6.04505 8.55333L6.91744 9.44127Z" fill="#FFCC00"/>
<path d="M6.91756 9.44121L6.01899 8.78496L6.34266 8.33713L6.91756 9.44121Z" fill="#FFCC00"/>
<path d="M5.61162 9.43877L6.51018 8.78252L6.18651 8.33469L5.61162 9.43877Z" fill="#FFCC00"/>
<path d="M5.61161 9.43883L5.95807 8.38145L6.484 8.55089L5.61161 9.43883Z" fill="#FFCC00"/>
<path d="M5.20576 8.19463L6.10757 8.84643L6.43346 8.40021L5.20576 8.19463Z" fill="#FFCC00"/>
<path d="M5.20581 8.19476L6.3185 8.19751L6.31988 8.75007L5.20581 8.19476Z" fill="#FFCC00"/>
<path d="M7.31889 8.19854L6.41709 8.85033L6.09119 8.40411L7.31889 8.19854Z" fill="#FFCC00"/>
<path d="M7.31885 8.19866L6.20616 8.20142L6.20478 8.75397L7.31885 8.19866Z" fill="#FFCC00"/>
<path d="M6.26095 7.42833L6.60217 8.48741L6.07708 8.65947L6.26095 7.42833Z" fill="#FFCC00"/>
<path d="M6.26102 7.42833L5.9198 8.48741L6.44489 8.65947L6.26102 7.42833Z" fill="#FFCC00"/>
<path d="M7.32239 14.8776L6.2097 14.8804L6.20832 15.4329L7.32239 14.8776Z" fill="#FFCC00"/>
<path d="M7.32231 14.8777L6.42051 15.5295L6.09461 15.0833L7.32231 14.8777Z" fill="#FFCC00"/>
<path d="M6.91659 16.119L6.57013 15.0616L6.04419 15.2311L6.91659 16.119Z" fill="#FFCC00"/>
<path d="M6.9167 16.1189L6.01814 15.4627L6.34181 15.0149L6.9167 16.1189Z" fill="#FFCC00"/>
<path d="M5.60796 16.1204L6.50652 15.4642L6.18285 15.0163L5.60796 16.1204Z" fill="#FFCC00"/>
<path d="M5.60795 16.1205L5.95441 15.0631L6.48034 15.2325L5.60795 16.1205Z" fill="#FFCC00"/>
<path d="M6.26449 14.1122L6.60571 15.1712L6.08062 15.3433L6.26449 14.1122Z" fill="#FFCC00"/>
<path d="M6.26456 14.1122L5.92334 15.1712L6.44843 15.3433L6.26456 14.1122Z" fill="#FFCC00"/>
<path d="M5.20496 14.8801L6.31764 14.8828L6.31902 15.4354L5.20496 14.8801Z" fill="#FFCC00"/>
<path d="M5.20503 14.8802L6.10683 15.532L6.43273 15.0858L5.20503 14.8802Z" fill="#FFCC00"/>
<path d="M9.74744 17.3232L8.63475 17.3259L8.63337 17.8785L9.74744 17.3232Z" fill="#FFCC00"/>
<path d="M9.74736 17.3233L8.84556 17.9751L8.51966 17.5289L9.74736 17.3233Z" fill="#FFCC00"/>
<path d="M9.34164 18.5646L8.99518 17.5072L8.46924 17.6766L9.34164 18.5646Z" fill="#FFCC00"/>
<path d="M9.34175 18.5645L8.44318 17.9083L8.76686 17.4604L9.34175 18.5645Z" fill="#FFCC00"/>
<path d="M8.033 18.566L8.93157 17.9097L8.6079 17.4619L8.033 18.566Z" fill="#FFCC00"/>
<path d="M8.033 18.566L8.37945 17.5086L8.90539 17.6781L8.033 18.566Z" fill="#FFCC00"/>
<path d="M8.68954 16.5577L9.03076 17.6168L8.50567 17.7889L8.68954 16.5577Z" fill="#FFCC00"/>
<path d="M8.68961 16.5577L8.34839 17.6168L8.87348 17.7889L8.68961 16.5577Z" fill="#FFCC00"/>
<path d="M7.63 17.3256L8.74269 17.3284L8.74407 17.8809L7.63 17.3256Z" fill="#FFCC00"/>
<path d="M7.63008 17.3257L8.53188 17.9775L8.85778 17.5313L7.63008 17.3257Z" fill="#FFCC00"/>
<path d="M18.6253 10.7674L18.9666 11.8265L18.4415 11.9986L18.6253 10.7674Z" fill="#FFCC00"/>
<path d="M18.6254 10.7674L18.2842 11.8265L18.8093 11.9986L18.6254 10.7674Z" fill="#FFCC00"/>
<path d="M17.5702 11.5368L18.6829 11.5396L18.6843 12.0921L17.5702 11.5368Z" fill="#FFCC00"/>
<path d="M17.5703 11.5369L18.4721 12.1887L18.798 11.7425L17.5703 11.5369Z" fill="#FFCC00"/>
<path d="M17.9733 12.7821L18.3198 11.7247L18.8457 11.8941L17.9733 12.7821Z" fill="#FFCC00"/>
<path d="M17.9732 12.782L18.8718 12.1258L18.5481 11.6779L17.9732 12.782Z" fill="#FFCC00"/>
<path d="M19.6804 11.5368L18.5677 11.5396L18.5664 12.0921L19.6804 11.5368Z" fill="#FFCC00"/>
<path d="M19.6803 11.5369L18.7785 12.1887L18.4526 11.7425L19.6803 11.5369Z" fill="#FFCC00"/>
<path d="M19.2773 12.7821L18.9308 11.7247L18.4049 11.8941L19.2773 12.7821Z" fill="#FFCC00"/>
<path d="M19.2774 12.782L18.3789 12.1258L18.7025 11.6779L19.2774 12.782Z" fill="#FFCC00"/>
<path d="M15.9678 6.99566L15.0693 6.33941L15.393 5.89157L15.9678 6.99566Z" fill="#FFCC00"/>
<path d="M15.9679 6.99571L15.6214 5.93833L15.0955 6.10777L15.9679 6.99571Z" fill="#FFCC00"/>
<path d="M16.3692 5.75298L15.4674 6.40478L15.1415 5.95856L16.3692 5.75298Z" fill="#FFCC00"/>
<path d="M16.3691 5.75311L15.2565 5.75586L15.2551 6.30842L16.3691 5.75311Z" fill="#FFCC00"/>
<path d="M15.3112 4.98277L15.6525 6.04185L15.1274 6.21391L15.3112 4.98277Z" fill="#FFCC00"/>
<path d="M15.3113 4.98277L14.9701 6.04185L15.4952 6.21391L15.3113 4.98277Z" fill="#FFCC00"/>
<path d="M14.6619 6.99321L15.5605 6.33697L15.2368 5.88913L14.6619 6.99321Z" fill="#FFCC00"/>
<path d="M14.6619 6.99327L15.0084 5.93589L15.5343 6.10533L14.6619 6.99327Z" fill="#FFCC00"/>
<path d="M14.2561 5.74907L15.1579 6.40087L15.4838 5.95465L14.2561 5.74907Z" fill="#FFCC00"/>
<path d="M14.2561 5.7492L15.3688 5.75195L15.3702 6.30451L14.2561 5.7492Z" fill="#FFCC00"/>
<path d="M17.0826 9.44127L17.429 8.38389L17.955 8.55333L17.0826 9.44127Z" fill="#FFCC00"/>
<path d="M17.0824 9.44121L17.981 8.78496L17.6573 8.33713L17.0824 9.44121Z" fill="#FFCC00"/>
<path d="M18.3884 9.43877L17.4898 8.78252L17.8135 8.33469L18.3884 9.43877Z" fill="#FFCC00"/>
<path d="M18.3884 9.43883L18.0419 8.38145L17.516 8.55089L18.3884 9.43883Z" fill="#FFCC00"/>
<path d="M18.7942 8.19463L17.8924 8.84643L17.5665 8.40021L18.7942 8.19463Z" fill="#FFCC00"/>
<path d="M18.7942 8.19476L17.6815 8.19751L17.6801 8.75007L18.7942 8.19476Z" fill="#FFCC00"/>
<path d="M16.6811 8.19854L17.5829 8.85033L17.9088 8.40411L16.6811 8.19854Z" fill="#FFCC00"/>
<path d="M16.6812 8.19866L17.7938 8.20142L17.7952 8.75397L16.6812 8.19866Z" fill="#FFCC00"/>
<path d="M17.7391 7.42833L17.3978 8.48741L17.9229 8.65947L17.7391 7.42833Z" fill="#FFCC00"/>
<path d="M17.739 7.42833L18.0802 8.48741L17.5551 8.65947L17.739 7.42833Z" fill="#FFCC00"/>
<path d="M16.6776 14.8776L17.7903 14.8804L17.7917 15.4329L16.6776 14.8776Z" fill="#FFCC00"/>
<path d="M16.6777 14.8777L17.5795 15.5295L17.9054 15.0833L16.6777 14.8777Z" fill="#FFCC00"/>
<path d="M17.0834 16.119L17.4299 15.0616L17.9558 15.2311L17.0834 16.119Z" fill="#FFCC00"/>
<path d="M17.0833 16.1189L17.9819 15.4627L17.6582 15.0149L17.0833 16.1189Z" fill="#FFCC00"/>
<path d="M18.392 16.1204L17.4935 15.4642L17.8171 15.0163L18.392 16.1204Z" fill="#FFCC00"/>
<path d="M18.3921 16.1205L18.0456 15.0631L17.5197 15.2325L18.3921 16.1205Z" fill="#FFCC00"/>
<path d="M17.7355 14.1122L17.3943 15.1712L17.9194 15.3433L17.7355 14.1122Z" fill="#FFCC00"/>
<path d="M17.7354 14.1122L18.0767 15.1712L17.5516 15.3433L17.7354 14.1122Z" fill="#FFCC00"/>
<path d="M18.795 14.8801L17.6824 14.8828L17.681 15.4354L18.795 14.8801Z" fill="#FFCC00"/>
<path d="M18.795 14.8802L17.8932 15.532L17.5673 15.0858L18.795 14.8802Z" fill="#FFCC00"/>
<path d="M14.2526 17.3232L15.3653 17.3259L15.3666 17.8785L14.2526 17.3232Z" fill="#FFCC00"/>
<path d="M14.2526 17.3233L15.1544 17.9751L15.4803 17.5289L14.2526 17.3233Z" fill="#FFCC00"/>
<path d="M14.6584 18.5646L15.0048 17.5072L15.5308 17.6766L14.6584 18.5646Z" fill="#FFCC00"/>
<path d="M14.6582 18.5645L15.5568 17.9083L15.2331 17.4604L14.6582 18.5645Z" fill="#FFCC00"/>
<path d="M15.967 18.566L15.0684 17.9097L15.3921 17.4619L15.967 18.566Z" fill="#FFCC00"/>
<path d="M15.967 18.566L15.6205 17.5086L15.0946 17.6781L15.967 18.566Z" fill="#FFCC00"/>
<path d="M15.3105 16.5577L14.9692 17.6168L15.4943 17.7889L15.3105 16.5577Z" fill="#FFCC00"/>
<path d="M15.3104 16.5577L15.6516 17.6168L15.1265 17.7889L15.3104 16.5577Z" fill="#FFCC00"/>
<path d="M16.37 17.3256L15.2573 17.3284L15.2559 17.8809L16.37 17.3256Z" fill="#FFCC00"/>
<path d="M16.3699 17.3257L15.4681 17.9775L15.1422 17.5313L16.3699 17.3257Z" fill="#FFCC00"/>
</svg>
