<svg width="24" height="24" viewBox="0 0 24 24" fill="none" xmlns="http://www.w3.org/2000/svg">
<g opacity="0.5">
<path d="M14.5568 13.557C13.9176 14.6349 12.6758 15.2022 11.4425 14.9797C10.2092 14.7573 9.24387 13.792 9.02143 12.5587C8.799 11.3253 9.36626 10.0836 10.4442 9.44434" stroke="#030F4C" stroke-width="1.15" stroke-linecap="round" stroke-linejoin="round"/>
<path d="M17.9941 16.994C16.27 18.3017 14.1639 19.0065 12 18.9999C8.41438 19.0638 5.1014 17.0932 3.44598 13.9119C2.85134 12.7066 2.85134 11.2933 3.44598 10.0879C4.27389 8.43924 5.59364 7.08854 7.2227 6.22266" stroke="#030F4C" stroke-width="1.15" stroke-linecap="round" stroke-linejoin="round"/>
<path d="M20.424 14.1337C20.4641 14.0577 20.5163 13.9895 20.5542 13.912C21.1488 12.7067 21.1488 11.2933 20.5542 10.088C18.8988 6.90678 15.5858 4.93619 12.0002 5.00004C11.7754 5.00004 11.5569 5.03004 11.335 5.04466" stroke="#030F4C" stroke-width="1.15" stroke-linecap="round" stroke-linejoin="round"/>
<path d="M21 20L4 3" stroke="#030F4C" stroke-width="1.15" stroke-linecap="round" stroke-linejoin="round"/>
</g>
</svg>
