<svg width="24" height="24" viewBox="0 0 24 24" fill="none" xmlns="http://www.w3.org/2000/svg">
<path fill-rule="evenodd" clip-rule="evenodd" d="M3 12C3.00089 11.337 3.15345 10.683 3.446 10.088V10.088C5.1014 6.90679 8.41439 4.93619 12 5.00004C15.5856 4.93619 18.8986 6.90679 20.554 10.088V10.088C21.1487 11.2934 21.1487 12.7067 20.554 13.912V13.912C18.8986 17.0933 15.5856 19.0639 12 19C8.41439 19.0639 5.1014 17.0933 3.446 13.912V13.912C3.15345 13.3171 3.00089 12.663 3 12Z" stroke="#030F4C" stroke-width="1.15" stroke-linecap="round" stroke-linejoin="round"/>
<path d="M15 12C15 13.6569 13.6569 15 12 15C10.3431 15 9 13.6569 9 12C9 10.3431 10.3431 9 12 9" stroke="#030F4C" stroke-width="1.15" stroke-linecap="round" stroke-linejoin="round"/>
</svg>
