<svg width="137" height="40" viewBox="0 0 137 40" fill="none" xmlns="http://www.w3.org/2000/svg">
<path fill-rule="evenodd" clip-rule="evenodd" d="M0 16C0 10.3995 0 7.59921 1.08993 5.46009C2.04867 3.57847 3.57847 2.04867 5.46009 1.08993C7.59921 0 10.3995 0 16 0L121 0C126.601 0 129.401 0 131.54 1.08993C133.422 2.04867 134.951 3.57847 135.91 5.46009C137 7.59921 137 10.3995 137 16V24C137 29.6005 137 32.4008 135.91 34.5399C134.951 36.4215 133.422 37.9513 131.54 38.9101C129.401 40 126.601 40 121 40H16C10.3995 40 7.59921 40 5.46009 38.9101C3.57847 37.9513 2.04867 36.4215 1.08993 34.5399C0 32.4008 0 29.6005 0 24V16Z" fill="#F00000"/>
<path fill-rule="evenodd" clip-rule="evenodd" d="M48.74 23.0599V24.8599H53.06C52.9922 25.7077 52.6398 26.5077 52.06 27.1299C51.186 28.0201 49.9765 28.4996 48.73 28.4499C46.079 28.4499 43.93 26.3009 43.93 23.6499C43.93 20.9989 46.079 18.8499 48.73 18.8499C49.9478 18.83 51.1237 19.2939 52 20.1399L53.27 18.8699C52.0749 17.6598 50.4407 16.9851 48.74 16.9999C46.3189 16.9057 44.0404 18.1436 42.8018 20.226C41.5633 22.3083 41.5633 24.9015 42.8018 26.9838C44.0404 29.0662 46.3189 30.3041 48.74 30.2099C50.4717 30.2881 52.1527 29.6136 53.35 28.3599C54.3977 27.2088 54.957 25.6957 54.91 24.1399C54.9132 23.7609 54.8797 23.3824 54.81 23.0099L48.74 23.0599ZM59.83 21.7499C57.4841 21.7554 55.5863 23.6606 55.59 26.0065C55.5937 28.3524 57.4974 30.2517 59.8433 30.2499C62.1892 30.248 64.09 28.3458 64.09 25.9999C64.1064 24.8643 63.6612 23.7706 62.8562 22.9694C62.0513 22.1682 60.9555 21.7281 59.82 21.7499H59.83ZM64.91 26.0132C64.9026 23.6686 66.7954 21.7609 69.14 21.7499C70.2755 21.7281 71.3713 22.1682 72.1762 22.9694C72.9812 23.7706 73.4264 24.8643 73.41 25.9999C73.4099 28.3445 71.5112 30.2462 69.1666 30.2498C66.822 30.2535 64.9173 28.3578 64.91 26.0132ZM66.632 27.1183C67.0886 28.0742 68.0832 28.6538 69.14 28.5799C69.8033 28.5645 70.4322 28.2819 70.8841 27.7961C71.336 27.3103 71.5725 26.6626 71.54 25.9999C71.5374 24.9405 70.8875 23.9904 69.9012 23.604C68.9148 23.2175 67.7925 23.4733 67.0709 24.2489C66.3494 25.0246 66.1753 26.1625 66.632 27.1183ZM57.3153 27.126C57.7752 28.0813 58.7726 28.658 59.83 28.5799H59.82C60.4833 28.5645 61.1122 28.2819 61.5641 27.7961C62.016 27.3103 62.2525 26.6626 62.22 25.9999C62.2171 24.9397 61.5659 23.9892 60.5783 23.6036C59.5907 23.218 58.4678 23.4758 57.7473 24.2536C57.0268 25.0314 56.8555 26.1707 57.3153 27.126ZM90.41 21.7499C92.0679 21.8109 93.5161 22.8891 94.05 24.4599L94.26 24.9099L88.57 27.2599C88.9266 28.0721 89.7436 28.5837 90.63 28.5499C91.4858 28.5521 92.2797 28.1038 92.72 27.3699L94.17 28.3699C93.3806 29.5513 92.0508 30.2576 90.63 30.2499C89.5005 30.2665 88.4129 29.823 87.617 29.0215C86.8211 28.2199 86.3854 27.1292 86.41 25.9999C86.3409 24.8964 86.7316 23.8136 87.4894 23.0084C88.2471 22.2033 89.3043 21.7477 90.41 21.7499ZM88.25 25.8799C88.209 25.2551 88.4213 24.64 88.8389 24.1735C89.2566 23.7069 89.8444 23.4281 90.47 23.3999C91.1293 23.3564 91.751 23.7106 92.05 24.2999L88.25 25.8799ZM85.5 29.9999H83.63V17.4999H85.5V29.9999ZM80.57 22.6999H80.5C79.9299 22.0626 79.115 21.6988 78.26 21.6999C75.9901 21.81 74.2063 23.6824 74.2063 25.9549C74.2063 28.2274 75.9901 30.0998 78.26 30.2099C79.1178 30.2243 79.938 29.8582 80.5 29.2099H80.56V29.8199C80.56 31.4499 79.69 32.3199 78.29 32.3199C77.3363 32.2976 76.4907 31.7009 76.15 30.8099L74.52 31.4899C75.1477 33.0167 76.6392 34.0098 78.29 33.9999C80.48 33.9999 82.29 32.7099 82.29 29.5699V21.9999H80.57V22.6999ZM78.4269 28.5796L78.43 28.5799H78.42L78.4269 28.5796ZM80.1119 27.7777C79.6828 28.2633 79.0742 28.5529 78.4269 28.5796C77.0913 28.4603 76.0674 27.3411 76.0674 25.9999C76.0674 24.6576 77.0929 23.5377 78.43 23.4199C79.0761 23.4531 79.6815 23.7457 80.1088 24.2314C80.5362 24.7171 80.7493 25.3548 80.7 25.9999C80.7551 26.6479 80.5426 27.2903 80.1119 27.7777ZM102.81 17.4999H98.34V29.9999H100.21V25.2599H102.82C104.273 25.3643 105.662 24.6484 106.42 23.4049C107.178 22.1613 107.178 20.5985 106.42 19.3549C105.662 18.1114 104.273 17.3955 102.82 17.4999H102.81ZM100.2 23.4999H102.81L102.85 23.5299C104.035 23.5299 104.995 22.5695 104.995 21.3849C104.995 20.2002 104.035 19.2399 102.85 19.2399H100.2V23.4999ZM114.34 21.6999C112.949 21.6167 111.641 22.367 111.01 23.6099L112.67 24.2999C113.004 23.6836 113.671 23.3227 114.37 23.3799C114.85 23.3239 115.331 23.4629 115.708 23.7656C116.084 24.0683 116.322 24.5095 116.37 24.9899V25.1199C115.769 24.8019 115.1 24.637 114.42 24.6399C112.63 24.6399 110.82 25.6399 110.82 27.4499C110.856 28.2296 111.205 28.9617 111.789 29.4797C112.373 29.9977 113.142 30.2574 113.92 30.1999C114.879 30.2688 115.8 29.8086 116.32 28.9999H116.38V29.9999H118.18V25.1899C118.18 22.9999 116.52 21.7299 114.39 21.7299L114.34 21.6999ZM112.65 27.4899C112.65 28.2399 113.5 28.5499 114.11 28.5499L114.16 28.5799C115.286 28.5524 116.221 27.6993 116.35 26.5799C115.831 26.2903 115.244 26.1452 114.65 26.1599C113.71 26.1599 112.65 26.4899 112.65 27.4899ZM124.74 21.9999L122.6 27.4199H122.54L120.32 21.9999H118.32L121.65 29.5799L119.75 33.7899H121.7L126.82 21.9999H124.74ZM109.8 29.9999H107.93V17.4999H109.8V29.9999Z" fill="white"/>
<path fill-rule="evenodd" clip-rule="evenodd" d="M70.21 7.76997C69.0302 9.01874 69.0302 10.9712 70.21 12.22C71.427 13.4302 73.393 13.4302 74.61 12.22C75.7947 10.9732 75.7947 9.01673 74.61 7.76997C74.028 7.18372 73.2361 6.854 72.41 6.854C71.5839 6.854 70.792 7.18372 70.21 7.76997ZM47.67 12.24C48.1832 11.7041 48.4543 10.9812 48.42 10.24C48.42 10.0891 48.4067 9.93849 48.38 9.78997H45.47V10.51H47.64C47.6252 10.9635 47.4477 11.3965 47.14 11.73C46.4546 12.3925 45.4379 12.5776 44.5629 12.1992C43.688 11.8208 43.1266 10.9532 43.14 9.99997C43.1182 9.36919 43.3544 8.75676 43.794 8.30391C44.2337 7.85106 44.8388 7.59687 45.47 7.59997C46.0979 7.56566 46.7053 7.82865 47.11 8.30997L47.64 7.77997C47.384 7.48553 47.0618 7.25592 46.7 7.10997C46.3113 6.94364 45.8927 6.85856 45.47 6.85997C44.6406 6.84149 43.8405 7.1673 43.26 7.75997C42.3665 8.65929 42.0992 10.0066 42.5817 11.1789C43.0641 12.3512 44.2023 13.12 45.47 13.13C46.2965 13.1594 47.0964 12.8358 47.67 12.24ZM50.3 7.73997H53V6.99997H49.5V13H53V12.26H50.3V10.36H52.76V9.63997H50.3V7.73997ZM56.28 13H55.51V7.73997H53.83V6.99997H58V7.73997H56.28V13ZM61.71 6.99997H60.94V13H61.71V6.99997ZM65.13 13H64.36V7.73997H62.68V6.99997H66.8V7.73997H65.13V13ZM77.52 6.99997H76.58V13H77.36V8.10997L80.41 13H81.21V6.99997H80.44V11.67L77.52 6.99997ZM70.78 11.72C71.6813 12.6175 73.1387 12.6175 74.04 11.72C74.9252 10.7441 74.9252 9.2558 74.04 8.27997C73.1387 7.38241 71.6813 7.38241 70.78 8.27997C69.8948 9.2558 69.8948 10.7441 70.78 11.72Z" fill="white"/>
<path d="M70.21 12.22L70.1373 12.2887L70.1395 12.2909L70.21 12.22ZM70.21 7.76997L70.139 7.6995L70.1373 7.7013L70.21 7.76997ZM74.61 12.22L74.6805 12.2909L74.6825 12.2889L74.61 12.22ZM74.61 7.76997L74.6825 7.70107L74.681 7.69952L74.61 7.76997ZM48.42 10.24L48.3199 10.2399L48.3201 10.2446L48.42 10.24ZM47.67 12.24L47.742 12.3093L47.7422 12.3091L47.67 12.24ZM48.38 9.78997L48.4784 9.77229L48.4636 9.68997H48.38V9.78997ZM45.47 9.78997V9.68997H45.37V9.78997H45.47ZM45.47 10.51H45.37V10.61H45.47V10.51ZM47.64 10.51L47.7399 10.5132L47.7433 10.41H47.64V10.51ZM47.14 11.73L47.2096 11.802L47.2135 11.7978L47.14 11.73ZM44.5629 12.1992L44.5232 12.291H44.5232L44.5629 12.1992ZM43.14 9.99997L43.2401 10.0014L43.2399 9.99652L43.14 9.99997ZM43.794 8.30391L43.7223 8.23425L43.794 8.30391ZM45.47 7.59997L45.4695 7.70015L45.4754 7.69982L45.47 7.59997ZM47.11 8.30997L47.0334 8.37432L47.1036 8.45778L47.1807 8.38068L47.11 8.30997ZM47.64 7.77997L47.7107 7.85068L47.7766 7.78474L47.7154 7.71436L47.64 7.77997ZM46.7 7.10997L46.6606 7.20193L46.6626 7.20271L46.7 7.10997ZM45.47 6.85997L45.4678 6.95998L45.4703 6.95997L45.47 6.85997ZM43.26 7.75997L43.3309 7.83045L43.3314 7.82995L43.26 7.75997ZM42.5817 11.1789L42.4892 11.2169L42.5817 11.1789ZM45.47 13.13L45.4735 13.03L45.4708 13.03L45.47 13.13ZM53 7.73997V7.83997H53.1V7.73997H53ZM50.3 7.73997V7.63997H50.2V7.73997H50.3ZM53 6.99997H53.1V6.89997H53V6.99997ZM49.5 6.99997V6.89997H49.4V6.99997H49.5ZM49.5 13H49.4V13.1H49.5V13ZM53 13V13.1H53.1V13H53ZM53 12.26H53.1V12.16H53V12.26ZM50.3 12.26H50.2V12.36H50.3V12.26ZM50.3 10.36V10.26H50.2V10.36H50.3ZM52.76 10.36V10.46H52.86V10.36H52.76ZM52.76 9.63997H52.86V9.53997H52.76V9.63997ZM50.3 9.63997H50.2V9.73997H50.3V9.63997ZM55.51 13H55.41V13.1H55.51V13ZM56.28 13V13.1H56.38V13H56.28ZM55.51 7.73997H55.61V7.63997H55.51V7.73997ZM53.83 7.73997H53.73V7.83997H53.83V7.73997ZM53.83 6.99997V6.89997H53.73V6.99997H53.83ZM58 6.99997H58.1V6.89997H58V6.99997ZM58 7.73997V7.83997H58.1V7.73997H58ZM56.28 7.73997V7.63997H56.18V7.73997H56.28ZM60.94 6.99997V6.89997H60.84V6.99997H60.94ZM61.71 6.99997H61.81V6.89997H61.71V6.99997ZM60.94 13H60.84V13.1H60.94V13ZM61.71 13V13.1H61.81V13H61.71ZM64.36 13H64.26V13.1H64.36V13ZM65.13 13V13.1H65.23V13H65.13ZM64.36 7.73997H64.46V7.63997H64.36V7.73997ZM62.68 7.73997H62.58V7.83997H62.68V7.73997ZM62.68 6.99997V6.89997H62.58V6.99997H62.68ZM66.8 6.99997H66.9V6.89997H66.8V6.99997ZM66.8 7.73997V7.83997H66.9V7.73997H66.8ZM65.13 7.73997V7.63997H65.03V7.73997H65.13ZM76.58 6.99997V6.89997H76.48V6.99997H76.58ZM77.52 6.99997L77.6048 6.94695L77.5754 6.89997H77.52V6.99997ZM76.58 13H76.48V13.1H76.58V13ZM77.36 13V13.1H77.46V13H77.36ZM77.36 8.10997L77.4448 8.05705L77.26 7.76069V8.10997H77.36ZM80.41 13L80.3251 13.0529L80.3545 13.1H80.41V13ZM81.21 13V13.1H81.31V13H81.21ZM81.21 6.99997H81.31V6.89997H81.21V6.99997ZM80.44 6.99997V6.89997H80.34V6.99997H80.44ZM80.44 11.67L80.3552 11.723L80.54 12.0185V11.67H80.44ZM74.04 11.72L74.1106 11.7909L74.114 11.7872L74.04 11.72ZM70.78 11.72L70.7058 11.7872L70.7094 11.7908L70.78 11.72ZM74.04 8.27997L74.1141 8.2127L74.1105 8.20911L74.04 8.27997ZM70.78 8.27997L70.7093 8.20902L70.7059 8.21278L70.78 8.27997ZM70.2827 12.1513C69.1394 10.9411 69.1394 9.04887 70.2827 7.83864L70.1373 7.7013C68.9211 8.98861 68.9211 11.0013 70.1373 12.2886L70.2827 12.1513ZM74.5395 12.1491C73.3615 13.3205 71.4585 13.3205 70.2805 12.1491L70.1395 12.2909C71.3955 13.5399 73.4245 13.5399 74.6805 12.2909L74.5395 12.1491ZM74.5375 7.83886C75.6856 9.04702 75.6856 10.9429 74.5375 12.1511L74.6825 12.2889C75.9039 11.0035 75.9039 8.98644 74.6825 7.70109L74.5375 7.83886ZM72.41 6.954C73.2094 6.954 73.9758 7.27308 74.539 7.84042L74.681 7.69952C74.0802 7.09435 73.2627 6.754 72.41 6.754V6.954ZM70.2809 7.84042C70.8442 7.27308 71.6105 6.954 72.41 6.954V6.754C71.5572 6.754 70.7398 7.09435 70.139 7.69952L70.2809 7.84042ZM48.3201 10.2446C48.3532 10.9585 48.0921 11.6547 47.5978 12.1708L47.7422 12.3091C48.2744 11.7535 48.5555 11.0039 48.5199 10.2353L48.3201 10.2446ZM48.2816 9.80765C48.3072 9.95032 48.32 10.095 48.32 10.2399L48.52 10.24C48.52 10.0832 48.5061 9.92666 48.4784 9.77229L48.2816 9.80765ZM45.47 9.88997H48.38V9.68997H45.47V9.88997ZM45.57 10.51V9.78997H45.37V10.51H45.57ZM47.64 10.41H45.47V10.61H47.64V10.41ZM47.2135 11.7978C47.5375 11.4467 47.7243 10.9907 47.7399 10.5132L47.54 10.5067C47.526 10.9362 47.3579 11.3463 47.0665 11.6622L47.2135 11.7978ZM44.5232 12.291C45.4352 12.6855 46.495 12.4925 47.2095 11.8019L47.0705 11.6581C46.4141 12.2925 45.4405 12.4698 44.6026 12.1074L44.5232 12.291ZM43.04 9.99857C43.026 10.9921 43.6112 11.8966 44.5232 12.291L44.6026 12.1074C43.7647 11.7451 43.2271 10.9142 43.24 10.0014L43.04 9.99857ZM43.7223 8.23425C43.2637 8.70662 43.0173 9.34545 43.04 10.0034L43.2399 9.99652C43.2191 9.39293 43.4451 8.8069 43.8658 8.37357L43.7223 8.23425ZM45.4705 7.49997C44.8121 7.49674 44.1809 7.76188 43.7223 8.23425L43.8658 8.37357C44.2865 7.94023 44.8655 7.69701 45.4695 7.69997L45.4705 7.49997ZM47.1865 8.24562C46.7616 7.74023 46.1238 7.46409 45.4645 7.50012L45.4754 7.69982C46.0719 7.66723 46.649 7.91706 47.0334 8.37432L47.1865 8.24562ZM47.5693 7.70926L47.0393 8.23926L47.1807 8.38068L47.7107 7.85068L47.5693 7.70926ZM46.6626 7.20271C47.0098 7.34276 47.3189 7.56306 47.5645 7.84559L47.7154 7.71436C47.4491 7.40799 47.1139 7.16909 46.7374 7.01723L46.6626 7.20271ZM45.4703 6.95997C45.8794 6.95861 46.2845 7.04094 46.6606 7.20191L46.7393 7.01804C46.3381 6.84634 45.906 6.75852 45.4696 6.75997L45.4703 6.95997ZM43.3314 7.82995C43.8926 7.25703 44.666 6.94208 45.4678 6.95995L45.4722 6.76C44.6151 6.7409 43.7884 7.07757 43.1885 7.69L43.3314 7.82995ZM42.6741 11.1408C42.207 10.0057 42.4658 8.70122 43.3309 7.83045L43.189 7.68949C42.2672 8.61736 41.9914 10.0074 42.4892 11.2169L42.6741 11.1408ZM45.4708 13.03C44.2433 13.0204 43.1413 12.2759 42.6741 11.1408L42.4892 11.2169C42.987 12.4265 44.1613 13.2197 45.4692 13.23L45.4708 13.03ZM47.5979 12.1706C47.0441 12.7459 46.2716 13.0584 45.4735 13.03L45.4664 13.2299C46.3213 13.2603 47.1488 12.9256 47.742 12.3093L47.5979 12.1706ZM53 7.63997H50.3V7.83997H53V7.63997ZM52.9 6.99997V7.73997H53.1V6.99997H52.9ZM49.5 7.09997H53V6.89997H49.5V7.09997ZM49.6 13V6.99997H49.4V13H49.6ZM53 12.9H49.5V13.1H53V12.9ZM52.9 12.26V13H53.1V12.26H52.9ZM50.3 12.36H53V12.16H50.3V12.36ZM50.2 10.36V12.26H50.4V10.36H50.2ZM52.76 10.26H50.3V10.46H52.76V10.26ZM52.66 9.63997V10.36H52.86V9.63997H52.66ZM50.3 9.73997H52.76V9.53997H50.3V9.73997ZM50.2 7.73997V9.63997H50.4V7.73997H50.2ZM55.51 13.1H56.28V12.9H55.51V13.1ZM55.41 7.73997V13H55.61V7.73997H55.41ZM53.83 7.83997H55.51V7.63997H53.83V7.83997ZM53.73 6.99997V7.73997H53.93V6.99997H53.73ZM58 6.89997H53.83V7.09997H58V6.89997ZM58.1 7.73997V6.99997H57.9V7.73997H58.1ZM56.28 7.83997H58V7.63997H56.28V7.83997ZM56.38 13V7.73997H56.18V13H56.38ZM60.94 7.09997H61.71V6.89997H60.94V7.09997ZM61.04 13V6.99997H60.84V13H61.04ZM61.71 12.9H60.94V13.1H61.71V12.9ZM61.61 6.99997V13H61.81V6.99997H61.61ZM64.36 13.1H65.13V12.9H64.36V13.1ZM64.26 7.73997V13H64.46V7.73997H64.26ZM62.68 7.83997H64.36V7.63997H62.68V7.83997ZM62.58 6.99997V7.73997H62.78V6.99997H62.58ZM66.8 6.89997H62.68V7.09997H66.8V6.89997ZM66.9 7.73997V6.99997H66.7V7.73997H66.9ZM65.13 7.83997H66.8V7.63997H65.13V7.83997ZM65.23 13V7.73997H65.03V13H65.23ZM76.58 7.09997H77.52V6.89997H76.58V7.09997ZM76.68 13V6.99997H76.48V13H76.68ZM77.36 12.9H76.58V13.1H77.36V12.9ZM77.26 8.10997V13H77.46V8.10997H77.26ZM80.4948 12.947L77.4448 8.05705L77.2751 8.16289L80.3251 13.0529L80.4948 12.947ZM81.21 12.9H80.41V13.1H81.21V12.9ZM81.11 6.99997V13H81.31V6.99997H81.11ZM80.44 7.09997H81.21V6.89997H80.44V7.09997ZM80.54 11.67V6.99997H80.34V11.67H80.54ZM77.4352 7.05299L80.3552 11.723L80.5248 11.617L77.6048 6.94695L77.4352 7.05299ZM73.9694 11.6491C73.1071 12.5078 71.7128 12.5078 70.8505 11.6491L70.7094 11.7908C71.6498 12.7273 73.1702 12.7273 74.1105 11.7908L73.9694 11.6491ZM73.9659 8.34716C74.8165 9.28487 74.8165 10.7151 73.9659 11.6528L74.114 11.7872C75.0338 10.7732 75.0338 9.22673 74.114 8.21278L73.9659 8.34716ZM70.8505 8.35083C71.7128 7.49212 73.1071 7.49212 73.9694 8.35083L74.1105 8.20911C73.1702 7.27269 71.6498 7.27269 70.7094 8.20911L70.8505 8.35083ZM70.854 11.6528C70.0034 10.7151 70.0034 9.28487 70.854 8.34716L70.7059 8.21278C69.7861 9.22673 69.7861 10.7732 70.7059 11.7872L70.854 11.6528Z" fill="white"/>
<path d="M11.44 7.53997C11.1141 7.93108 10.9496 8.43177 10.98 8.93997V31.06C10.9496 31.5682 11.1141 32.0689 11.44 32.46L11.51 32.53L23.9 20.15V19.86L11.51 7.46997L11.44 7.53997Z" fill="url(#paint0_linear_0_1488)"/>
<path d="M28 24.28L23.9 20.15V19.86L28 15.72L28.09 15.77L33 18.56C34.4 19.35 34.4 20.65 33 21.45L28.11 24.23L28 24.28Z" fill="url(#paint1_linear_0_1488)"/>
<path d="M28.12 24.22L23.9 20L11.44 32.46C12.0287 32.9775 12.9024 33.0027 13.52 32.52L28.13 24.22" fill="url(#paint2_linear_0_1488)"/>
<path d="M28.12 15.7801L13.51 7.48005C12.8924 6.99733 12.0187 7.02253 11.43 7.54005L23.9 20.0001L28.12 15.7801Z" fill="url(#paint3_linear_0_1488)"/>
<path opacity="0.2" d="M28 24.1299L13.51 32.3799C12.917 32.8232 12.103 32.8232 11.51 32.3799L11.44 32.4499L11.51 32.5199C12.1018 32.9666 12.9182 32.9666 13.51 32.5199L28.12 24.2199L28 24.1299Z" fill="black"/>
<path opacity="0.12" fill-rule="evenodd" clip-rule="evenodd" d="M28 24.13L33 21.3C33.5167 21.045 33.8861 20.5648 34 20C33.9485 20.6244 33.5671 21.1736 33 21.44L28.09 24.22L28 24.13ZM10.9778 31.1147C10.9944 31.5546 11.1558 31.979 11.44 32.32L11.51 32.4L11.44 32.47C11.1236 32.0904 10.9594 31.6075 10.9778 31.1147ZM10.9778 31.1147C10.9784 31.0998 10.9791 31.0849 10.98 31.07V30.92C10.9761 30.9851 10.9754 31.05 10.9778 31.1147Z" fill="black"/>
<path opacity="0.25" d="M13.51 7.61994L33 18.6999C33.5167 18.955 33.886 19.4351 34 19.9999C33.9484 19.3755 33.567 18.8263 33 18.5599L13.51 7.47994C12.11 6.68994 10.97 7.34994 10.97 8.94994V9.09994C11 7.48994 12.12 6.82994 13.51 7.61994Z" fill="white"/>
<defs>
<linearGradient id="paint0_linear_0_1488" x1="18.4733" y1="-7.559" x2="-1.36617" y2="-2.28266" gradientUnits="userSpaceOnUse">
<stop stop-color="#00A0FF"/>
<stop offset="0.01" stop-color="#00A1FF"/>
<stop offset="0.26" stop-color="#00BEFF"/>
<stop offset="0.51" stop-color="#00D2FF"/>
<stop offset="0.76" stop-color="#00DFFF"/>
<stop offset="1" stop-color="#00E3FF"/>
</linearGradient>
<linearGradient id="paint1_linear_0_1488" x1="34.83" y1="9.79966" x2="10.64" y2="9.79966" gradientUnits="userSpaceOnUse">
<stop stop-color="#FFE000"/>
<stop offset="0.41" stop-color="#FFBD00"/>
<stop offset="0.78" stop-color="#FFA500"/>
<stop offset="1" stop-color="#FF9C00"/>
</linearGradient>
<linearGradient id="paint2_linear_0_1488" x1="11.0739" y1="13.5275" x2="-4.86255" y2="40.3341" gradientUnits="userSpaceOnUse">
<stop stop-color="#FF3A44"/>
<stop offset="1" stop-color="#C31162"/>
</linearGradient>
<linearGradient id="paint3_linear_0_1488" x1="1.71001" y1="4.09606" x2="8.8233" y2="16.0665" gradientUnits="userSpaceOnUse">
<stop stop-color="#32A071"/>
<stop offset="0.07" stop-color="#2DA771"/>
<stop offset="0.48" stop-color="#15CF74"/>
<stop offset="0.8" stop-color="#06E775"/>
<stop offset="1" stop-color="#00F076"/>
</linearGradient>
</defs>
</svg>
