<svg width="24" height="24" viewBox="0 0 24 24" fill="none" xmlns="http://www.w3.org/2000/svg">
<rect width="24" height="24" rx="12" fill="#00ABC2"/>
<mask id="mask0_171_4492" style="mask-type:luminance" maskUnits="userSpaceOnUse" x="0" y="0" width="24" height="24">
<rect width="24" height="24" rx="12" fill="white"/>
</mask>
<g mask="url(#mask0_171_4492)">
<path d="M3.27273 0.483316C3.27273 0.483316 3.02812 0.265536 2.94504 0.374777C2.81141 0.550462 3.35586 1.4256 3.35586 1.73377C3.35586 2.23963 3.03726 2.37718 2.64385 2.44942C2.37987 2.49791 1.95 2.42915 1.95 2.42915C2.03095 2.31392 2.08359 2.27997 2.21997 2.27077C2.06814 2.18726 1.91353 2.00596 1.91353 1.72379C1.91353 1.28861 2.08262 1.10923 2.08262 0.618632C2.08262 0.346462 1.87196 0 1.87196 0C2.24433 0.0394786 2.42886 0.404736 2.32387 0.696646C2.38312 0.705679 2.43693 0.691522 2.48316 0.64514C2.51039 0.726039 2.46738 0.819962 2.40977 0.900888C2.45618 0.927153 2.49026 0.911405 2.56418 0.895225C2.55715 0.978604 2.51001 1.06716 2.39466 1.15054C2.7294 1.05845 2.93537 1.30562 2.93537 1.56439C2.93537 1.75984 2.80609 1.89993 2.67971 1.89993C2.63888 1.89993 2.57889 1.88211 2.54506 1.85533C2.52119 1.90913 2.53348 1.98113 2.55804 2.03493C2.46544 2.00898 2.40664 1.95071 2.44849 1.82942C2.37735 1.82249 2.32076 1.79703 2.28228 1.74852C2.32127 1.69558 2.38045 1.66511 2.44849 1.66759C2.39669 1.55433 2.45442 1.49096 2.53854 1.43957C2.53854 1.43957 2.48504 1.66759 2.62165 1.66759C2.68307 1.66759 2.73904 1.6464 2.73904 1.55048C2.73904 1.46696 2.67014 1.35128 2.51083 1.35864C2.35151 1.366 2.22238 1.475 2.22238 1.74442C2.22238 1.99294 2.41161 2.11655 2.66095 2.12453C2.88578 2.1319 3.05548 2.00286 3.05548 1.75712C3.05548 1.43007 2.60984 0.684592 2.60984 0.393168C2.60984 0.174472 2.79545 0.0524224 2.97706 0.0524224C3.21256 0.0524224 3.41125 0.29946 3.41125 0.29946L3.27291 0.483235L3.27273 0.483316Z" fill="#FFEC2D"/>
<path d="M3.32414 6.39484C3.32414 6.94145 2.86094 7.22238 2.49695 7.22238C2.00656 7.22238 1.74545 6.91176 1.74545 6.50514C1.74545 6.27463 1.78531 6.13001 1.88563 5.9094L3.00948 3.43786C3.04876 3.35189 3.06143 3.25401 3.06143 3.11055C3.06143 2.88896 2.85857 2.70786 2.64585 2.7023C2.45195 2.69718 2.24068 2.89382 2.24068 3.11791C2.24068 3.39008 2.37396 3.51143 2.51079 3.51143C2.6792 3.51143 2.74629 3.43808 2.74629 3.31282C2.74629 3.22553 2.70651 3.18778 2.64931 3.18778C2.50489 3.18778 2.54544 3.39375 2.54544 3.39375C2.47371 3.37711 2.41476 3.29944 2.44846 3.20247C2.39399 3.18973 2.34483 3.15879 2.30821 3.11421C2.34692 3.07444 2.39134 3.04375 2.44846 3.03331C2.41463 2.91499 2.45984 2.8572 2.55755 2.83287C2.53783 2.87837 2.53716 2.92025 2.54371 2.95975C2.69752 2.9134 2.9333 2.98715 2.9333 3.26868C2.9333 3.54818 2.75019 3.78354 2.40689 3.72473C2.48855 3.7661 2.53009 3.85074 2.53849 3.94539C2.47613 3.91967 2.40689 3.916 2.40689 3.916C2.44703 3.99097 2.50278 4.0556 2.50038 4.20284C2.43675 4.17218 2.37762 4.11542 2.29607 4.15133C2.4241 4.41825 2.2668 4.78536 1.86664 4.87222C2.0131 4.69034 2.0848 4.49397 2.0848 4.29846C2.0848 3.66486 1.91859 3.55837 1.91859 3.11788C1.91859 2.93357 2.00801 2.73456 2.18524 2.59929V2.60665C2.0681 2.57341 1.99307 2.5123 1.94992 2.42927C2.21757 2.34886 2.60663 2.35034 2.8155 2.43741C3.05563 2.46689 3.22327 2.66204 3.27265 2.76112C3.32203 2.86019 3.41796 3.21828 3.27265 3.54077L2.12983 6.1079C2.08025 6.22021 2.05016 6.33935 2.05016 6.46833C2.05016 6.79273 2.33066 6.90599 2.49 6.90599C2.68047 6.90599 2.8744 6.75228 2.8744 6.56028C2.8744 6.43864 2.81204 6.36537 2.72201 6.36537C2.50672 6.36537 2.51981 6.55939 2.56272 6.68166C2.42873 6.61783 2.35084 6.5039 2.37225 6.38376C2.2964 6.37273 2.22419 6.33463 2.15755 6.25502C2.20998 6.18491 2.27392 6.13187 2.37225 6.12998C2.32931 5.94359 2.44708 5.86477 2.56272 5.82106C2.52614 5.95786 2.50214 6.11529 2.72201 6.11529C2.88237 6.11529 3.00857 6.14471 3.08218 6.25505L3.09949 5.52683C3.10875 5.30846 2.82362 5.31468 2.64239 5.3797C2.71078 5.12819 2.85106 4.9922 3.1757 5.02663C3.09689 4.99171 3.01292 4.91316 3.01292 4.76182C3.01297 4.55707 3.16977 4.33023 3.2727 4.26316L3.32417 6.39487L3.32414 6.39484Z" fill="#FFEC2D"/>
<path d="M3.32414 8.03436C3.32414 7.48775 2.86094 7.20682 2.49695 7.20682C2.00656 7.20682 1.74545 7.51744 1.74545 7.92406C1.74545 8.15457 1.78531 8.29919 1.88563 8.5198L3.00948 10.9913C3.04876 11.0773 3.06143 11.1752 3.06143 11.3187C3.06143 11.5402 2.85857 11.7213 2.64585 11.7269C2.45195 11.732 2.24068 11.5354 2.24068 11.3113C2.24068 11.0391 2.37396 10.9178 2.51079 10.9178C2.6792 10.9178 2.74629 10.9911 2.74629 11.1164C2.74629 11.2037 2.70651 11.2414 2.64931 11.2414C2.50489 11.2414 2.54544 11.0355 2.54544 11.0355C2.47371 11.0521 2.41476 11.1298 2.44846 11.2267C2.39399 11.2395 2.34483 11.2704 2.30821 11.315C2.34692 11.3548 2.39134 11.3854 2.44846 11.3959C2.41463 11.5142 2.45984 11.572 2.55755 11.5963C2.53783 11.5508 2.53716 11.509 2.54371 11.4694C2.69752 11.5158 2.9333 11.4421 2.9333 11.1605C2.9333 10.881 2.75019 10.6457 2.40689 10.7045C2.48855 10.6631 2.53009 10.5785 2.53849 10.4838C2.47613 10.5095 2.40689 10.5132 2.40689 10.5132C2.44703 10.4382 2.50278 10.3736 2.50038 10.2264C2.43675 10.257 2.37762 10.3138 2.29607 10.2779C2.4241 10.011 2.2668 9.64383 1.86664 9.55698C2.0131 9.73886 2.0848 9.93523 2.0848 10.1307C2.0848 10.7643 1.91859 10.8708 1.91859 11.3113C1.91859 11.4956 2.00801 11.6946 2.18524 11.8299V11.8225C2.0681 11.8558 1.99307 11.9169 1.94992 11.9999C2.21757 12.0803 2.60663 12.0789 2.8155 11.9918C3.05563 11.9623 3.22327 11.7672 3.27265 11.6681C3.32203 11.569 3.41796 11.2109 3.27265 10.8884L2.12983 8.3213C2.08025 8.20899 2.05016 8.08985 2.05016 7.96087C2.05016 7.63647 2.33066 7.52321 2.49 7.52321C2.68047 7.52321 2.8744 7.67692 2.8744 7.86892C2.8744 7.99056 2.81204 8.06383 2.72201 8.06383C2.50672 8.06383 2.51981 7.86981 2.56272 7.74754C2.42873 7.81137 2.35084 7.9253 2.37225 8.04544C2.2964 8.05647 2.22419 8.09457 2.15755 8.17418C2.20998 8.24429 2.27392 8.29733 2.37225 8.29922C2.32931 8.48561 2.44708 8.56443 2.56272 8.60814C2.52614 8.47134 2.50214 8.31391 2.72201 8.31391C2.88237 8.31391 3.00857 8.28449 3.08218 8.17415L3.09949 8.90237C3.10875 9.12074 2.82362 9.11451 2.64239 9.0495C2.71078 9.30101 2.85106 9.437 3.1757 9.40257C3.09689 9.43749 3.01292 9.51604 3.01292 9.66738C3.01297 9.87213 3.16977 10.099 3.2727 10.166L3.32417 8.03433L3.32414 8.03436Z" fill="#FFEC2D"/>
<path d="M3.27272 0.483316C3.27272 0.483316 3.51733 0.265536 3.60042 0.374777C3.73405 0.550462 3.18959 1.4256 3.18959 1.73377C3.18959 2.23963 3.5082 2.37718 3.90161 2.44942C4.16559 2.49791 4.59545 2.42915 4.59545 2.42915C4.51451 2.31392 4.46187 2.27997 4.32549 2.27077C4.47732 2.18726 4.63193 2.00596 4.63193 1.72379C4.63193 1.28861 4.46284 1.10923 4.46284 0.618632C4.46284 0.346462 4.67349 0 4.67349 0C4.30113 0.0394786 4.11659 0.404736 4.22159 0.696646C4.16233 0.705679 4.10852 0.691522 4.0623 0.64514C4.03506 0.726039 4.07808 0.819962 4.13568 0.900888C4.08928 0.927153 4.0552 0.911405 3.98128 0.895225C3.9883 0.978604 4.03544 1.06716 4.1508 1.15054C3.81606 1.05845 3.61009 1.30562 3.61009 1.56439C3.61009 1.75984 3.73937 1.89993 3.86574 1.89993C3.90657 1.89993 3.96657 1.88211 4.00039 1.85533C4.02427 1.90913 4.01198 1.98113 3.98741 2.03493C4.08001 2.00898 4.13881 1.95071 4.09697 1.82942C4.16811 1.82249 4.22469 1.79703 4.26318 1.74852C4.22418 1.69558 4.165 1.66511 4.09697 1.66759C4.14876 1.55433 4.09104 1.49096 4.00691 1.43957C4.00691 1.43957 4.06041 1.66759 3.9238 1.66759C3.86238 1.66759 3.80641 1.6464 3.80641 1.55048C3.80641 1.46696 3.87532 1.35128 4.03463 1.35864C4.19394 1.366 4.32307 1.475 4.32307 1.74442C4.32307 1.99294 4.13385 2.11655 3.8845 2.12453C3.65967 2.1319 3.48997 2.00286 3.48997 1.75712C3.48997 1.43007 3.93562 0.684592 3.93562 0.393168C3.93562 0.174472 3.75001 0.0524224 3.56839 0.0524224C3.3329 0.0524224 3.13421 0.29946 3.13421 0.29946L3.27255 0.483235L3.27272 0.483316Z" fill="#FFEC2D"/>
<path d="M3.22131 6.39484C3.22131 6.94145 3.68452 7.22238 4.04851 7.22238C4.5389 7.22238 4.8 6.91176 4.8 6.50514C4.8 6.27463 4.76014 6.13001 4.65983 5.9094L3.53597 3.43786C3.4967 3.35189 3.48402 3.25401 3.48402 3.11055C3.48402 2.88896 3.68689 2.70786 3.8996 2.7023C4.09351 2.69718 4.30478 2.89382 4.30478 3.11791C4.30478 3.39008 4.1715 3.51143 4.03466 3.51143C3.86626 3.51143 3.79916 3.43808 3.79916 3.31282C3.79916 3.22553 3.83895 3.18778 3.89614 3.18778C4.04057 3.18778 4.00002 3.39375 4.00002 3.39375C4.07175 3.37711 4.1307 3.29944 4.097 3.20247C4.15146 3.18973 4.20063 3.15879 4.23725 3.11421C4.19853 3.07444 4.15412 3.04375 4.097 3.03331C4.13083 2.91499 4.08562 2.8572 3.9879 2.83287C4.00763 2.87837 4.00829 2.92025 4.00175 2.95975C3.84793 2.9134 3.61216 2.98715 3.61216 3.26868C3.61216 3.54818 3.79527 3.78354 4.13856 3.72473C4.05691 3.7661 4.01537 3.85074 4.00697 3.94539C4.06933 3.91967 4.13856 3.916 4.13856 3.916C4.09842 3.99097 4.04268 4.0556 4.04507 4.20284C4.10871 4.17218 4.16784 4.11542 4.24939 4.15133C4.12136 4.41825 4.27866 4.78536 4.67882 4.87222C4.53236 4.69034 4.46065 4.49397 4.46065 4.29846C4.46065 3.66486 4.62687 3.55837 4.62687 3.11788C4.62687 2.93357 4.53745 2.73456 4.36021 2.59929V2.60665C4.47735 2.57341 4.55239 2.5123 4.59553 2.42927C4.32789 2.34886 3.93883 2.35034 3.72996 2.43741C3.48982 2.46689 3.32219 2.66204 3.27281 2.76112C3.22343 2.86019 3.12749 3.21828 3.27281 3.54077L4.41563 6.1079C4.46521 6.22021 4.4953 6.33935 4.4953 6.46833C4.4953 6.79273 4.2148 6.90599 4.05546 6.90599C3.86499 6.90599 3.67106 6.75228 3.67106 6.56028C3.67106 6.43864 3.73342 6.36537 3.82345 6.36537C4.03873 6.36537 4.02565 6.55939 3.98274 6.68166C4.11672 6.61783 4.19461 6.5039 4.17321 6.38376C4.24906 6.37273 4.32127 6.33463 4.38791 6.25502C4.33547 6.18491 4.27153 6.13187 4.17321 6.12998C4.21615 5.94359 4.09837 5.86477 3.98274 5.82106C4.01931 5.95786 4.04332 6.11529 3.82345 6.11529C3.66309 6.11529 3.53689 6.14471 3.46328 6.25505L3.44597 5.52683C3.4367 5.30846 3.72184 5.31468 3.90307 5.3797C3.83467 5.12819 3.6944 4.9922 3.36976 5.02663C3.44856 4.99171 3.53254 4.91316 3.53254 4.76182C3.53249 4.55707 3.37569 4.33023 3.27276 4.26316L3.22129 6.39487L3.22131 6.39484Z" fill="#FFEC2D"/>
<path d="M3.22131 8.03436C3.22131 7.48775 3.68452 7.20682 4.04851 7.20682C4.5389 7.20682 4.8 7.51744 4.8 7.92406C4.8 8.15457 4.76014 8.29919 4.65983 8.5198L3.53597 10.9913C3.4967 11.0773 3.48402 11.1752 3.48402 11.3187C3.48402 11.5402 3.68689 11.7213 3.8996 11.7269C4.09351 11.732 4.30478 11.5354 4.30478 11.3113C4.30478 11.0391 4.1715 10.9178 4.03466 10.9178C3.86626 10.9178 3.79916 10.9911 3.79916 11.1164C3.79916 11.2037 3.83895 11.2414 3.89614 11.2414C4.04057 11.2414 4.00002 11.0355 4.00002 11.0355C4.07175 11.0521 4.1307 11.1298 4.097 11.2267C4.15146 11.2395 4.20063 11.2704 4.23725 11.315C4.19853 11.3548 4.15412 11.3854 4.097 11.3959C4.13083 11.5142 4.08562 11.572 3.9879 11.5963C4.00763 11.5508 4.00829 11.509 4.00175 11.4694C3.84793 11.5158 3.61216 11.4421 3.61216 11.1605C3.61216 10.881 3.79527 10.6457 4.13856 10.7045C4.05691 10.6631 4.01537 10.5785 4.00697 10.4838C4.06933 10.5095 4.13856 10.5132 4.13856 10.5132C4.09842 10.4382 4.04268 10.3736 4.04507 10.2264C4.10871 10.257 4.16784 10.3138 4.24939 10.2779C4.12136 10.011 4.27866 9.64383 4.67882 9.55698C4.53236 9.73886 4.46065 9.93523 4.46065 10.1307C4.46065 10.7643 4.62687 10.8708 4.62687 11.3113C4.62687 11.4956 4.53745 11.6946 4.36021 11.8299V11.8225C4.47735 11.8558 4.55239 11.9169 4.59553 11.9999C4.32789 12.0803 3.93883 12.0789 3.72996 11.9918C3.48982 11.9623 3.32219 11.7672 3.27281 11.6681C3.22343 11.569 3.12749 11.2109 3.27281 10.8884L4.41563 8.3213C4.46521 8.20899 4.4953 8.08985 4.4953 7.96087C4.4953 7.63647 4.2148 7.52321 4.05546 7.52321C3.86499 7.52321 3.67106 7.67692 3.67106 7.86892C3.67106 7.99056 3.73342 8.06383 3.82345 8.06383C4.03873 8.06383 4.02565 7.86981 3.98274 7.74754C4.11672 7.81137 4.19461 7.9253 4.17321 8.04544C4.24906 8.05647 4.32127 8.09457 4.38791 8.17418C4.33547 8.24429 4.27153 8.29733 4.17321 8.29922C4.21615 8.48561 4.09837 8.56443 3.98274 8.60814C4.01931 8.47134 4.04332 8.31391 3.82345 8.31391C3.66309 8.31391 3.53689 8.28449 3.46328 8.17415L3.44597 8.90237C3.4367 9.12074 3.72184 9.11451 3.90307 9.0495C3.83467 9.30101 3.6944 9.437 3.36976 9.40257C3.44856 9.43749 3.53254 9.51604 3.53254 9.66738C3.53249 9.87213 3.37569 10.099 3.27276 10.166L3.22129 8.03433L3.22131 8.03436Z" fill="#FFEC2D"/>
<path d="M3.27273 23.5167C3.27273 23.5167 3.02812 23.7345 2.94504 23.6252C2.81141 23.4495 3.35586 22.5744 3.35586 22.2662C3.35586 21.7604 3.03726 21.6228 2.64385 21.5506C2.37987 21.5021 1.95 21.5709 1.95 21.5709C2.03095 21.6861 2.08359 21.72 2.21997 21.7292C2.06814 21.8127 1.91353 21.994 1.91353 22.2762C1.91353 22.7114 2.08262 22.8908 2.08262 23.3814C2.08262 23.6535 1.87196 24 1.87196 24C2.24433 23.9605 2.42886 23.5953 2.32387 23.3034C2.38312 23.2943 2.43693 23.3085 2.48316 23.3549C2.51039 23.274 2.46738 23.18 2.40977 23.0991C2.45618 23.0728 2.49026 23.0886 2.56418 23.1048C2.55715 23.0214 2.51001 22.9328 2.39466 22.8495C2.7294 22.9415 2.93537 22.6944 2.93537 22.4356C2.93537 22.2402 2.80609 22.1001 2.67971 22.1001C2.63888 22.1001 2.57889 22.1179 2.54506 22.1447C2.52119 22.0909 2.53348 22.0189 2.55804 21.9651C2.46544 21.991 2.40664 22.0493 2.44849 22.1706C2.37735 22.1775 2.32076 22.203 2.28228 22.2515C2.32127 22.3044 2.38045 22.3349 2.44849 22.3324C2.39669 22.4457 2.45442 22.509 2.53854 22.5604C2.53854 22.5604 2.48504 22.3324 2.62165 22.3324C2.68307 22.3324 2.73904 22.3536 2.73904 22.4495C2.73904 22.533 2.67014 22.6487 2.51083 22.6414C2.35151 22.634 2.22238 22.525 2.22238 22.2556C2.22238 22.0071 2.41161 21.8834 2.66095 21.8755C2.88578 21.8681 3.05548 21.9971 3.05548 22.2429C3.05548 22.5699 2.60984 23.3154 2.60984 23.6068C2.60984 23.8255 2.79545 23.9476 2.97706 23.9476C3.21256 23.9476 3.41125 23.7005 3.41125 23.7005L3.27291 23.5168L3.27273 23.5167Z" fill="#FFEC2D"/>
<path d="M3.32414 17.6052C3.32414 17.0586 2.86094 16.7776 2.49695 16.7776C2.00656 16.7776 1.74545 17.0882 1.74545 17.4949C1.74545 17.7254 1.78531 17.87 1.88563 18.0906L3.00948 20.5621C3.04876 20.6481 3.06143 20.746 3.06143 20.8895C3.06143 21.111 2.85857 21.2921 2.64585 21.2977C2.45195 21.3028 2.24068 21.1062 2.24068 20.8821C2.24068 20.6099 2.37396 20.4886 2.51079 20.4886C2.6792 20.4886 2.74629 20.5619 2.74629 20.6872C2.74629 20.7745 2.70651 20.8122 2.64931 20.8122C2.50489 20.8122 2.54544 20.6063 2.54544 20.6063C2.47371 20.6229 2.41476 20.7006 2.44846 20.7975C2.39399 20.8103 2.34483 20.8412 2.30821 20.8858C2.34692 20.9256 2.39134 20.9562 2.44846 20.9667C2.41463 21.085 2.45984 21.1428 2.55755 21.1671C2.53783 21.1216 2.53716 21.0798 2.54371 21.0402C2.69752 21.0866 2.9333 21.0129 2.9333 20.7313C2.9333 20.4518 2.75019 20.2165 2.40689 20.2753C2.48855 20.2339 2.53009 20.1493 2.53849 20.0546C2.47613 20.0803 2.40689 20.084 2.40689 20.084C2.44703 20.009 2.50278 19.9444 2.50038 19.7972C2.43675 19.8278 2.37762 19.8846 2.29607 19.8487C2.4241 19.5818 2.2668 19.2146 1.86664 19.1278C2.0131 19.3097 2.0848 19.506 2.0848 19.7015C2.0848 20.3351 1.91859 20.4416 1.91859 20.8821C1.91859 21.0664 2.00801 21.2654 2.18524 21.4007V21.3933C2.0681 21.4266 1.99307 21.4877 1.94992 21.5707C2.21757 21.6511 2.60663 21.6497 2.8155 21.5626C3.05563 21.5331 3.22327 21.338 3.27265 21.2389C3.32203 21.1398 3.41796 20.7817 3.27265 20.4592L2.12983 17.8921C2.08025 17.7798 2.05016 17.6607 2.05016 17.5317C2.05016 17.2073 2.33066 17.094 2.49 17.094C2.68047 17.094 2.8744 17.2477 2.8744 17.4397C2.8744 17.5614 2.81204 17.6346 2.72201 17.6346C2.50672 17.6346 2.51981 17.4406 2.56272 17.3183C2.42873 17.3822 2.35084 17.4961 2.37225 17.6162C2.2964 17.6273 2.22419 17.6654 2.15755 17.745C2.20998 17.8151 2.27392 17.8681 2.37225 17.87C2.32931 18.0564 2.44708 18.1352 2.56272 18.1789C2.52614 18.0421 2.50214 17.8847 2.72201 17.8847C2.88237 17.8847 3.00857 17.8553 3.08218 17.7449L3.09949 18.4732C3.10875 18.6915 2.82362 18.6853 2.64239 18.6203C2.71078 18.8718 2.85106 19.0078 3.1757 18.9734C3.09689 19.0083 3.01292 19.0868 3.01292 19.2382C3.01297 19.4429 3.16977 19.6698 3.2727 19.7368L3.32417 17.6051L3.32414 17.6052Z" fill="#FFEC2D"/>
<path d="M3.32414 15.9656C3.32414 16.5123 2.86094 16.7932 2.49695 16.7932C2.00656 16.7932 1.74545 16.4826 1.74545 16.0759C1.74545 15.8454 1.78531 15.7008 1.88563 15.4802L3.00948 13.0087C3.04876 12.9227 3.06143 12.8248 3.06143 12.6813C3.06143 12.4598 2.85857 12.2787 2.64585 12.2731C2.45195 12.268 2.24068 12.4646 2.24068 12.6887C2.24068 12.9609 2.37396 13.0822 2.51079 13.0822C2.6792 13.0822 2.74629 13.0089 2.74629 12.8836C2.74629 12.7963 2.70651 12.7586 2.64931 12.7586C2.50489 12.7586 2.54544 12.9645 2.54544 12.9645C2.47371 12.9479 2.41476 12.8702 2.44846 12.7733C2.39399 12.7605 2.34483 12.7296 2.30821 12.685C2.34692 12.6452 2.39134 12.6146 2.44846 12.6041C2.41463 12.4858 2.45984 12.428 2.55755 12.4037C2.53783 12.4492 2.53716 12.491 2.54371 12.5306C2.69752 12.4842 2.9333 12.5579 2.9333 12.8395C2.9333 13.119 2.75019 13.3543 2.40689 13.2955C2.48855 13.3369 2.53009 13.4215 2.53849 13.5162C2.47613 13.4905 2.40689 13.4868 2.40689 13.4868C2.44703 13.5618 2.50278 13.6264 2.50038 13.7736C2.43675 13.743 2.37762 13.6862 2.29607 13.7221C2.4241 13.989 2.2668 14.3562 1.86664 14.443C2.0131 14.2611 2.0848 14.0648 2.0848 13.8693C2.0848 13.2357 1.91859 13.1292 1.91859 12.6887C1.91859 12.5044 2.00801 12.3054 2.18524 12.1701V12.1775C2.0681 12.1442 1.99307 12.0831 1.94992 12.0001C2.21757 11.9197 2.60663 11.9211 2.8155 12.0082C3.05563 12.0377 3.22327 12.2328 3.27265 12.3319C3.32203 12.431 3.41796 12.7891 3.27265 13.1116L2.12983 15.6787C2.08025 15.791 2.05016 15.9101 2.05016 16.0391C2.05016 16.3635 2.33066 16.4768 2.49 16.4768C2.68047 16.4768 2.8744 16.3231 2.8744 16.1311C2.8744 16.0094 2.81204 15.9362 2.72201 15.9362C2.50672 15.9362 2.51981 16.1302 2.56272 16.2525C2.42873 16.1886 2.35084 16.0747 2.37225 15.9546C2.2964 15.9435 2.22419 15.9054 2.15755 15.8258C2.20998 15.7557 2.27392 15.7027 2.37225 15.7008C2.32931 15.5144 2.44708 15.4356 2.56272 15.3919C2.52614 15.5287 2.50214 15.6861 2.72201 15.6861C2.88237 15.6861 3.00857 15.7155 3.08218 15.8259L3.09949 15.0976C3.10875 14.8793 2.82362 14.8855 2.64239 14.9505C2.71078 14.699 2.85106 14.563 3.1757 14.5974C3.09689 14.5625 3.01292 14.484 3.01292 14.3326C3.01297 14.1279 3.16977 13.901 3.2727 13.834L3.32417 15.9657L3.32414 15.9656Z" fill="#FFEC2D"/>
<path d="M3.27272 23.5167C3.27272 23.5167 3.51733 23.7345 3.60042 23.6252C3.73405 23.4495 3.18959 22.5744 3.18959 22.2662C3.18959 21.7604 3.5082 21.6228 3.90161 21.5506C4.16559 21.5021 4.59545 21.5709 4.59545 21.5709C4.51451 21.6861 4.46187 21.72 4.32549 21.7292C4.47732 21.8127 4.63193 21.994 4.63193 22.2762C4.63193 22.7114 4.46284 22.8908 4.46284 23.3814C4.46284 23.6535 4.67349 24 4.67349 24C4.30113 23.9605 4.11659 23.5953 4.22159 23.3034C4.16233 23.2943 4.10852 23.3085 4.0623 23.3549C4.03506 23.274 4.07808 23.18 4.13568 23.0991C4.08928 23.0728 4.0552 23.0886 3.98128 23.1048C3.9883 23.0214 4.03544 22.9328 4.1508 22.8495C3.81606 22.9415 3.61009 22.6944 3.61009 22.4356C3.61009 22.2402 3.73937 22.1001 3.86574 22.1001C3.90657 22.1001 3.96657 22.1179 4.00039 22.1447C4.02427 22.0909 4.01198 22.0189 3.98741 21.9651C4.08001 21.991 4.13881 22.0493 4.09697 22.1706C4.16811 22.1775 4.22469 22.203 4.26318 22.2515C4.22418 22.3044 4.165 22.3349 4.09697 22.3324C4.14876 22.4457 4.09104 22.509 4.00691 22.5604C4.00691 22.5604 4.06041 22.3324 3.9238 22.3324C3.86238 22.3324 3.80641 22.3536 3.80641 22.4495C3.80641 22.533 3.87532 22.6487 4.03463 22.6414C4.19394 22.634 4.32307 22.525 4.32307 22.2556C4.32307 22.0071 4.13385 21.8834 3.8845 21.8755C3.65967 21.8681 3.48997 21.9971 3.48997 22.2429C3.48997 22.5699 3.93562 23.3154 3.93562 23.6068C3.93562 23.8255 3.75001 23.9476 3.56839 23.9476C3.3329 23.9476 3.13421 23.7005 3.13421 23.7005L3.27255 23.5168L3.27272 23.5167Z" fill="#FFEC2D"/>
<path d="M3.22131 17.6052C3.22131 17.0586 3.68452 16.7776 4.04851 16.7776C4.5389 16.7776 4.8 17.0882 4.8 17.4949C4.8 17.7254 4.76014 17.87 4.65983 18.0906L3.53597 20.5621C3.4967 20.6481 3.48402 20.746 3.48402 20.8895C3.48402 21.111 3.68689 21.2921 3.8996 21.2977C4.09351 21.3028 4.30478 21.1062 4.30478 20.8821C4.30478 20.6099 4.1715 20.4886 4.03466 20.4886C3.86626 20.4886 3.79916 20.5619 3.79916 20.6872C3.79916 20.7745 3.83895 20.8122 3.89614 20.8122C4.04057 20.8122 4.00002 20.6063 4.00002 20.6063C4.07175 20.6229 4.1307 20.7006 4.097 20.7975C4.15146 20.8103 4.20063 20.8412 4.23725 20.8858C4.19853 20.9256 4.15412 20.9562 4.097 20.9667C4.13083 21.085 4.08562 21.1428 3.9879 21.1671C4.00763 21.1216 4.00829 21.0798 4.00175 21.0402C3.84793 21.0866 3.61216 21.0129 3.61216 20.7313C3.61216 20.4518 3.79527 20.2165 4.13856 20.2753C4.05691 20.2339 4.01537 20.1493 4.00697 20.0546C4.06933 20.0803 4.13856 20.084 4.13856 20.084C4.09842 20.009 4.04268 19.9444 4.04507 19.7972C4.10871 19.8278 4.16784 19.8846 4.24939 19.8487C4.12136 19.5818 4.27866 19.2146 4.67882 19.1278C4.53236 19.3097 4.46065 19.506 4.46065 19.7015C4.46065 20.3351 4.62687 20.4416 4.62687 20.8821C4.62687 21.0664 4.53745 21.2654 4.36021 21.4007V21.3933C4.47735 21.4266 4.55239 21.4877 4.59553 21.5707C4.32789 21.6511 3.93883 21.6497 3.72996 21.5626C3.48982 21.5331 3.32219 21.338 3.27281 21.2389C3.22343 21.1398 3.12749 20.7817 3.27281 20.4592L4.41563 17.8921C4.46521 17.7798 4.4953 17.6607 4.4953 17.5317C4.4953 17.2073 4.2148 17.094 4.05546 17.094C3.86499 17.094 3.67106 17.2477 3.67106 17.4397C3.67106 17.5614 3.73342 17.6346 3.82345 17.6346C4.03873 17.6346 4.02565 17.4406 3.98274 17.3183C4.11672 17.3822 4.19461 17.4961 4.17321 17.6162C4.24906 17.6273 4.32127 17.6654 4.38791 17.745C4.33547 17.8151 4.27153 17.8681 4.17321 17.87C4.21615 18.0564 4.09837 18.1352 3.98274 18.1789C4.01931 18.0421 4.04332 17.8847 3.82345 17.8847C3.66309 17.8847 3.53689 17.8553 3.46328 17.7449L3.44597 18.4732C3.4367 18.6915 3.72184 18.6853 3.90307 18.6203C3.83467 18.8718 3.6944 19.0078 3.36976 18.9734C3.44856 19.0083 3.53254 19.0868 3.53254 19.2382C3.53249 19.4429 3.37569 19.6698 3.27276 19.7368L3.22129 17.6051L3.22131 17.6052Z" fill="#FFEC2D"/>
<path d="M3.22131 15.9656C3.22131 16.5123 3.68452 16.7932 4.04851 16.7932C4.5389 16.7932 4.8 16.4826 4.8 16.0759C4.8 15.8454 4.76014 15.7008 4.65983 15.4802L3.53597 13.0087C3.4967 12.9227 3.48402 12.8248 3.48402 12.6813C3.48402 12.4598 3.68689 12.2787 3.8996 12.2731C4.09351 12.268 4.30478 12.4646 4.30478 12.6887C4.30478 12.9609 4.1715 13.0822 4.03466 13.0822C3.86626 13.0822 3.79916 13.0089 3.79916 12.8836C3.79916 12.7963 3.83895 12.7586 3.89614 12.7586C4.04057 12.7586 4.00002 12.9645 4.00002 12.9645C4.07175 12.9479 4.1307 12.8702 4.097 12.7733C4.15146 12.7605 4.20063 12.7296 4.23725 12.685C4.19853 12.6452 4.15412 12.6146 4.097 12.6041C4.13083 12.4858 4.08562 12.428 3.9879 12.4037C4.00763 12.4492 4.00829 12.491 4.00175 12.5306C3.84793 12.4842 3.61216 12.5579 3.61216 12.8395C3.61216 13.119 3.79527 13.3543 4.13856 13.2955C4.05691 13.3369 4.01537 13.4215 4.00697 13.5162C4.06933 13.4905 4.13856 13.4868 4.13856 13.4868C4.09842 13.5618 4.04268 13.6264 4.04507 13.7736C4.10871 13.743 4.16784 13.6862 4.24939 13.7221C4.12136 13.989 4.27866 14.3562 4.67882 14.443C4.53236 14.2611 4.46065 14.0648 4.46065 13.8693C4.46065 13.2357 4.62687 13.1292 4.62687 12.6887C4.62687 12.5044 4.53745 12.3054 4.36021 12.1701V12.1775C4.47735 12.1442 4.55239 12.0831 4.59553 12.0001C4.32789 11.9197 3.93883 11.9211 3.72996 12.0082C3.48982 12.0377 3.32219 12.2328 3.27281 12.3319C3.22343 12.431 3.12749 12.7891 3.27281 13.1116L4.41563 15.6787C4.46521 15.791 4.4953 15.9101 4.4953 16.0391C4.4953 16.3635 4.2148 16.4768 4.05546 16.4768C3.86499 16.4768 3.67106 16.3231 3.67106 16.1311C3.67106 16.0094 3.73342 15.9362 3.82345 15.9362C4.03873 15.9362 4.02565 16.1302 3.98274 16.2525C4.11672 16.1886 4.19461 16.0747 4.17321 15.9546C4.24906 15.9435 4.32127 15.9054 4.38791 15.8258C4.33547 15.7557 4.27153 15.7027 4.17321 15.7008C4.21615 15.5144 4.09837 15.4356 3.98274 15.3919C4.01931 15.5287 4.04332 15.6861 3.82345 15.6861C3.66309 15.6861 3.53689 15.7155 3.46328 15.8259L3.44597 15.0976C3.4367 14.8793 3.72184 14.8855 3.90307 14.9505C3.83467 14.699 3.6944 14.563 3.36976 14.5974C3.44856 14.5625 3.53254 14.484 3.53254 14.3326C3.53249 14.1279 3.37569 13.901 3.27276 13.834L3.22129 15.9657L3.22131 15.9656Z" fill="#FFEC2D"/>
<ellipse cx="13.535" cy="10.3124" rx="3.20027" ry="3.25079" fill="#FFEC2D"/>
<path d="M13.535 6.6183C13.7252 6.61589 13.7966 6.49509 13.7966 6.35012C13.7966 6.15684 13.535 5.23633 13.535 5.23633C13.535 5.23633 13.2733 6.15684 13.2733 6.35012C13.2733 6.49509 13.3447 6.6183 13.535 6.6183Z" fill="#FFEC2D"/>
<path d="M17.1717 10.3124C17.1741 10.5057 17.293 10.5782 17.4357 10.5782C17.626 10.5782 18.5322 10.3124 18.5322 10.3124C18.5322 10.3124 17.626 10.0466 17.4357 10.0466C17.293 10.0466 17.1717 10.1191 17.1717 10.3124Z" fill="#FFEC2D"/>
<path d="M13.535 14.0066C13.3447 14.009 13.2733 14.1298 13.2733 14.2748C13.2733 14.468 13.535 15.3885 13.535 15.3885C13.535 15.3885 13.7966 14.468 13.7966 14.2748C13.7966 14.1298 13.7252 14.0066 13.535 14.0066Z" fill="#FFEC2D"/>
<path d="M9.89822 10.3125C9.89584 10.1192 9.77692 10.0467 9.63421 10.0467C9.44393 10.0467 8.53772 10.3125 8.53772 10.3125C8.53772 10.3125 9.44393 10.5782 9.63421 10.5782C9.77692 10.5782 9.89822 10.5058 9.89822 10.3125Z" fill="#FFEC2D"/>
<path d="M14.9267 6.89945C15.1034 6.97119 15.2148 6.88732 15.2694 6.75339C15.3422 6.57482 15.4473 5.62267 15.4473 5.62267C15.4473 5.62267 14.8588 6.37141 14.786 6.54998C14.7314 6.68391 14.7509 6.82549 14.9267 6.89945Z" fill="#FFEC2D"/>
<path d="M16.8948 11.7262C16.8242 11.9057 16.9068 12.0189 17.0386 12.0743C17.2144 12.1483 18.1518 12.255 18.1518 12.255C18.1518 12.255 17.4147 11.6572 17.2389 11.5833C17.107 11.5278 16.9677 11.5476 16.8948 11.7262Z" fill="#FFEC2D"/>
<path d="M12.1432 13.7254C11.9665 13.6537 11.8551 13.7376 11.8005 13.8715C11.7277 14.0501 11.6226 15.0022 11.6226 15.0022C11.6226 15.0022 12.2111 14.2535 12.2839 14.0749C12.3385 13.941 12.319 13.7994 12.1432 13.7254Z" fill="#FFEC2D"/>
<path d="M10.1751 8.89871C10.2457 8.71921 10.1631 8.60602 10.0313 8.55054C9.85547 8.47658 8.91812 8.36985 8.91812 8.36985C8.91812 8.36985 9.65522 8.96765 9.83102 9.04161C9.96286 9.09709 10.1022 9.07728 10.1751 8.89871Z" fill="#FFEC2D"/>
<path d="M16.1065 7.70028C16.2427 7.83524 16.3773 7.80107 16.4782 7.69857C16.6127 7.5619 17.0685 6.72307 17.0685 6.72307C17.0685 6.72307 16.2427 7.18605 16.1082 7.32272C16.0073 7.42523 15.9719 7.56361 16.1065 7.70028Z" fill="#FFEC2D"/>
<path d="M16.1065 12.9246C15.9736 13.063 16.0073 13.1997 16.1082 13.3022C16.2427 13.4388 17.0685 13.9018 17.0685 13.9018C17.0685 13.9018 16.6127 13.063 16.4782 12.9263C16.3773 12.8238 16.2411 12.7879 16.1065 12.9246Z" fill="#FFEC2D"/>
<path d="M10.9634 12.9246C10.8272 12.7896 10.6926 12.8238 10.5917 12.9263C10.4572 13.063 10.0014 13.9018 10.0014 13.9018C10.0014 13.9018 10.8272 13.4388 10.9617 13.3022C11.0626 13.1997 11.098 13.0613 10.9634 12.9246Z" fill="#FFEC2D"/>
<path d="M10.9634 7.70026C11.0963 7.56188 11.0626 7.42521 10.9617 7.32271C10.8272 7.18603 10.0014 6.72306 10.0014 6.72306C10.0014 6.72306 10.4572 7.56188 10.5917 7.69855C10.6926 7.80106 10.8288 7.83693 10.9634 7.70026Z" fill="#FFEC2D"/>
<path d="M16.8949 8.8988C16.9699 9.07645 17.107 9.09718 17.2389 9.04171C17.4147 8.96774 18.1518 8.36994 18.1518 8.36994C18.1518 8.36994 17.2144 8.47667 17.0386 8.55064C16.9068 8.60611 16.822 8.72023 16.8949 8.8988Z" fill="#FFEC2D"/>
<path d="M14.9267 13.7253C14.7518 13.8015 14.7314 13.9409 14.786 14.0748C14.8588 14.2534 15.4473 15.0021 15.4473 15.0021C15.4473 15.0021 15.3422 14.05 15.2694 13.8714C15.2148 13.7375 15.1025 13.6514 14.9267 13.7253Z" fill="#FFEC2D"/>
<path d="M10.1751 11.7261C10.1 11.5484 9.96286 11.5277 9.83101 11.5832C9.65521 11.6571 8.91811 12.2549 8.91811 12.2549C8.91811 12.2549 9.85546 12.1482 10.0313 12.0742C10.1631 12.0188 10.2479 11.9046 10.1751 11.7261Z" fill="#FFEC2D"/>
<path d="M12.1432 6.89954C12.3181 6.82335 12.3385 6.684 12.2839 6.55007C12.2111 6.3715 11.6226 5.62276 11.6226 5.62276C11.6226 5.62276 11.7277 6.57491 11.8005 6.75348C11.8551 6.88741 11.9674 6.97351 12.1432 6.89954Z" fill="#FFEC2D"/>
<path d="M14.2444 6.6893C14.4315 6.72463 14.5247 6.62029 14.5526 6.47812C14.5897 6.28855 14.5099 5.33387 14.5099 5.33387C14.5099 5.33387 14.0765 6.18485 14.0393 6.37442C14.0115 6.5166 14.0578 6.65159 14.2444 6.6893Z" fill="#FFEC2D"/>
<path d="M17.1018 11.0331C17.067 11.2231 17.1697 11.3178 17.3097 11.3461C17.4963 11.3838 18.4362 11.3027 18.4362 11.3027C18.4362 11.3027 17.5984 10.8625 17.4118 10.8247C17.2718 10.7965 17.1389 10.8435 17.1018 11.0331Z" fill="#FFEC2D"/>
<path d="M12.8255 13.9356C12.6384 13.9002 12.5452 14.0046 12.5173 14.1468C12.4802 14.3363 12.56 15.291 12.56 15.291C12.56 15.291 12.9934 14.44 13.0306 14.2505C13.0584 14.1083 13.0121 13.9733 12.8255 13.9356Z" fill="#FFEC2D"/>
<path d="M9.96811 9.59179C10.0029 9.40175 9.90018 9.3071 9.76021 9.27882C9.57359 9.24111 8.63375 9.32218 8.63375 9.32218C8.63375 9.32218 9.4715 9.76242 9.65812 9.80013C9.79809 9.82841 9.93099 9.78136 9.96811 9.59179Z" fill="#FFEC2D"/>
<path d="M15.5554 7.24089C15.7149 7.34627 15.8403 7.28609 15.9196 7.16556C16.0253 7.00485 16.3113 6.09182 16.3113 6.09182C16.3113 6.09182 15.5903 6.70955 15.4845 6.87026C15.4053 6.99079 15.3972 7.13351 15.5554 7.24089Z" fill="#FFEC2D"/>
<path d="M16.5588 12.3648C16.455 12.5268 16.5143 12.6542 16.6329 12.7348C16.7912 12.8421 17.69 13.1326 17.69 13.1326C17.69 13.1326 17.0819 12.4002 16.9237 12.2928C16.805 12.2123 16.6645 12.2041 16.5588 12.3648Z" fill="#FFEC2D"/>
<path d="M11.5145 13.384C11.355 13.2786 11.2296 13.3388 11.1503 13.4593C11.0446 13.62 10.7586 14.5331 10.7586 14.5331C10.7586 14.5331 11.4796 13.9153 11.5854 13.7546C11.6646 13.6341 11.6727 13.4914 11.5145 13.384Z" fill="#FFEC2D"/>
<path d="M10.5111 8.26008C10.6149 8.09803 10.5556 7.97065 10.437 7.89012C10.2787 7.78273 9.37991 7.4923 9.37991 7.4923C9.37991 7.4923 9.98803 8.22468 10.1462 8.33207C10.2649 8.4126 10.4054 8.42079 10.5111 8.26008Z" fill="#FFEC2D"/>
<path d="M16.5588 8.26011C16.6665 8.41948 16.805 8.41263 16.9236 8.33209C17.0819 8.22471 17.69 7.49233 17.69 7.49233C17.69 7.49233 16.7911 7.78276 16.6329 7.89014C16.5143 7.97068 16.4531 8.0994 16.5588 8.26011Z" fill="#FFEC2D"/>
<path d="M15.5554 13.384C15.3985 13.4934 15.4053 13.6341 15.4845 13.7546C15.5903 13.9154 16.3113 14.5331 16.3113 14.5331C16.3113 14.5331 16.0253 13.6201 15.9196 13.4593C15.8403 13.3388 15.7136 13.2766 15.5554 13.384Z" fill="#FFEC2D"/>
<path d="M10.5111 12.3648C10.4034 12.2054 10.2649 12.2122 10.1463 12.2928C9.98804 12.4002 9.37991 13.1326 9.37991 13.1326C9.37991 13.1326 10.2788 12.8421 10.437 12.7347C10.5556 12.6542 10.6168 12.5255 10.5111 12.3648Z" fill="#FFEC2D"/>
<path d="M11.5145 7.24087C11.6714 7.13148 11.6646 6.99077 11.5854 6.87023C11.4796 6.70952 10.7586 6.0918 10.7586 6.0918C10.7586 6.0918 11.0446 7.00483 11.1503 7.16554C11.2296 7.28607 11.3563 7.34825 11.5145 7.24087Z" fill="#FFEC2D"/>
<path d="M17.1018 9.59169C17.1412 9.78078 17.2718 9.82831 17.4118 9.80003C17.5984 9.76232 18.4362 9.32208 18.4362 9.32208C18.4362 9.32208 17.4963 9.241 17.3097 9.27871C17.1697 9.30699 17.0647 9.40212 17.1018 9.59169Z" fill="#FFEC2D"/>
<path d="M14.2444 13.9356C14.0583 13.9756 14.0115 14.1083 14.0393 14.2504C14.0765 14.44 14.5099 15.291 14.5099 15.291C14.5099 15.291 14.5897 14.3363 14.5525 14.1467C14.5247 14.0046 14.4311 13.8978 14.2444 13.9356Z" fill="#FFEC2D"/>
<path d="M9.96811 11.0331C9.92866 10.844 9.79809 10.7964 9.65813 10.8247C9.4715 10.8624 8.63375 11.3027 8.63375 11.3027C8.63375 11.3027 9.57359 11.3838 9.76021 11.346C9.90018 11.3178 10.0052 11.2226 9.96811 11.0331Z" fill="#FFEC2D"/>
<path d="M12.8255 6.68932C13.0116 6.64925 13.0584 6.51662 13.0306 6.37445C12.9934 6.18488 12.56 5.3339 12.56 5.3339C12.56 5.3339 12.4802 6.28857 12.5174 6.47814C12.5452 6.62032 12.6388 6.72703 12.8255 6.68932Z" fill="#FFEC2D"/>
<path d="M12.964 17.3544C12.8784 17.3592 12.7951 17.3705 12.7134 17.397C12.6017 17.4124 12.4946 17.4518 12.3836 17.4703L12.3392 17.4776L12.2647 17.4848C12.2695 17.5058 12.2726 17.5267 12.2726 17.5477C12.2726 17.5694 12.2703 17.5903 12.2647 17.6081C12.26 17.625 12.2449 17.6459 12.233 17.6588C12.2171 17.6765 12.2005 17.6918 12.1807 17.7015C12.1616 17.7111 12.1402 17.7152 12.1188 17.7168C12.0974 17.7176 12.0752 17.7168 12.0546 17.7087C12.0332 17.7015 12.0134 17.6878 11.9951 17.6717C11.9732 17.6772 11.951 17.6812 11.9285 17.6837C11.9064 17.6862 11.8857 17.6862 11.8659 17.6837C11.8437 17.6773 11.8207 17.6701 11.7993 17.6612C11.7778 17.6521 11.7571 17.6411 11.7375 17.6282C11.6566 17.6765 11.5662 17.7224 11.5171 17.807C11.4893 17.8456 11.4838 17.8899 11.4774 17.9358C11.4735 17.9922 11.4877 18.0518 11.5115 18.1041C11.5202 18.1194 11.5274 18.0486 11.5543 18.0389C11.5995 18.001 11.6558 17.9737 11.7129 17.9584C11.7613 17.9334 11.7549 17.96 11.7351 17.9986C11.7303 18.0188 11.7034 18.0953 11.7399 18.0566C11.9008 17.9841 12.0792 17.9696 12.2528 17.956C12.5049 17.9294 12.7579 17.9237 13.0108 17.9205L13.7243 17.9358C13.8377 17.9391 13.9519 17.9648 14.0637 17.9455C14.0906 17.9382 14.1326 17.9366 14.1485 17.9205C14.0977 17.8907 14.0383 17.8899 13.982 17.8827H13.5285C13.4024 17.8698 13.2708 17.8682 13.1519 17.8198C13.1202 17.807 13.0908 17.7764 13.0607 17.8094C13.0155 17.8255 12.9672 17.8368 12.9196 17.84C12.8363 17.8464 12.7531 17.8287 12.6762 17.7973C12.7317 17.7192 12.7983 17.6507 12.8593 17.5782C12.8102 17.5702 12.7626 17.5597 12.7134 17.5477C12.7999 17.4873 12.8799 17.4188 12.964 17.3544V17.3544Z" fill="#FFEC2D"/>
<path fill-rule="evenodd" clip-rule="evenodd" d="M11.99 17.5845C11.908 17.641 11.832 17.6933 11.735 17.6032H11.735C11.7344 17.5693 11.7378 17.5339 11.7534 17.5034C11.8751 17.3428 12.0643 17.2785 12.2521 17.2148C12.3433 17.1838 12.4342 17.153 12.5169 17.1112C12.8715 16.9969 13.1098 16.725 13.3486 16.4526C13.4897 16.2915 13.631 16.1304 13.7965 16.0014C13.9023 15.9631 14.0161 15.9551 14.1304 15.9471C14.2147 15.9412 14.2993 15.9353 14.381 15.9171C15.0963 15.8114 15.7993 15.5781 16.4288 15.2164C17.8035 14.4114 18.8546 13.0197 19.1638 11.4285C19.1305 11.2674 19.3893 11.1973 19.4266 11.3601C19.4915 11.6565 19.4349 11.9605 19.3795 12.2578C19.3668 12.3261 19.3542 12.394 19.3431 12.4614C19.5398 12.1717 19.6235 11.8308 19.7066 11.4922C19.735 11.3764 19.7634 11.2609 19.7962 11.1478C19.8165 11.11 19.8256 11.0593 19.8349 11.0082C19.8524 10.912 19.8701 10.8142 19.9628 10.7973C20.1416 10.7723 20.1681 10.9694 20.169 11.1032C20.1616 11.7531 19.8607 12.3529 19.5701 12.9163C19.797 12.7258 19.9603 12.4788 20.1235 12.2323C20.199 12.1181 20.2745 12.004 20.3563 11.8956C20.4332 11.7466 20.6184 11.6326 20.7665 11.7571C20.8345 11.8769 20.7594 12.004 20.6903 12.1211C20.666 12.1622 20.6425 12.2021 20.6261 12.2399C20.3324 12.7299 19.9957 13.2026 19.5885 13.6019C19.9167 13.4446 20.1707 13.18 20.4222 12.918C20.4965 12.8407 20.5706 12.7635 20.6464 12.6894C20.7117 12.5618 20.9627 12.5794 20.9444 12.7418C20.5911 13.305 20.0993 13.7683 19.5823 14.1753C19.7538 14.2284 19.8997 14.1346 20.0445 14.0414C20.1213 13.992 20.1978 13.9429 20.2775 13.9159C20.4526 13.829 20.3783 14.0706 20.3234 14.1508C20.1636 14.3978 19.9155 14.5507 19.6686 14.7029C19.5574 14.7715 19.4465 14.8399 19.344 14.9166C19.1508 14.9884 19.2294 15.0711 19.3995 15.041C19.411 15.0405 19.4263 15.0393 19.4438 15.0379C19.5538 15.0289 19.7519 15.0127 19.6437 15.1351C19.4758 15.26 19.2757 15.3139 19.0755 15.3678C18.9472 15.4024 18.8188 15.437 18.6988 15.4903C18.7847 15.5213 18.8779 15.5217 18.9703 15.5221C19.0727 15.5226 19.174 15.5231 19.2633 15.5651C19.1103 15.6855 18.9186 15.7247 18.7294 15.7633C18.6606 15.7773 18.5922 15.7913 18.5261 15.8091C18.3302 15.8286 18.3183 15.8813 18.5215 15.8982C18.5465 15.9046 18.5841 15.9068 18.6243 15.9092C18.7208 15.9149 18.833 15.9215 18.8277 15.9889C18.7079 16.0304 18.5798 16.0445 18.4515 16.0586C18.2686 16.0788 18.0855 16.099 17.9267 16.1985C17.9365 16.2509 18.0467 16.2879 18.1399 16.3192C18.1721 16.33 18.2023 16.3402 18.2257 16.35C18.3516 16.3934 18.2486 16.4446 18.1435 16.4969C18.0874 16.5248 18.0306 16.5531 18.0077 16.5806C17.509 16.903 16.908 17.013 16.3244 16.9674C16.7915 16.9199 17.2277 16.7124 17.5993 16.427C17.7548 16.3733 17.7139 16.2423 17.6756 16.1191C17.673 16.111 17.6705 16.1029 17.6681 16.0949C17.7987 16.1062 17.9587 16.0818 18.0333 15.9673C17.8361 15.8527 17.992 15.7872 18.1405 15.7521C18.2181 15.7241 18.4194 15.6387 18.2816 15.5527C18.2944 15.4602 18.3894 15.4198 18.4802 15.3812C18.5217 15.3636 18.5623 15.3463 18.5938 15.3247C18.7793 15.2576 18.7585 15.2183 18.5761 15.185C18.6954 15.0791 18.8318 14.9994 18.9683 14.9197C19.058 14.8672 19.1477 14.8148 19.2326 14.7549C19.3685 14.6887 19.1929 14.6605 19.0781 14.6421C19.0509 14.6377 19.0272 14.6339 19.0117 14.6303C19.0484 14.5899 19.0932 14.5512 19.1389 14.5118C19.2735 14.3955 19.4158 14.2726 19.3799 14.0818C19.3066 14.0792 19.239 14.1023 19.1713 14.1254C19.1094 14.1465 19.0475 14.1676 18.9811 14.1691C19.1509 13.9969 19.2915 13.7762 19.3063 13.5271C19.1004 13.481 18.8835 13.5391 18.7017 13.64C18.3174 13.8715 17.9925 14.2104 17.754 14.5929C17.7092 14.7224 17.655 14.8397 17.5147 14.884C17.3512 14.9758 17.1795 15.0585 17.0072 15.1415C16.5206 15.3759 16.029 15.6127 15.7047 16.0637C15.4266 16.1423 15.1405 16.1779 14.8545 16.2136C14.5473 16.2519 14.2402 16.2902 13.9427 16.3816C13.7155 16.4277 13.5504 16.5806 13.3861 16.7327C13.3374 16.7777 13.2889 16.8227 13.2387 16.8648C12.8768 17.1215 12.5096 17.3784 12.0888 17.5255C12.054 17.5405 12.0215 17.5628 11.99 17.5845ZM16.3492 18.1269C16.4477 18.1939 16.548 18.2622 16.668 18.1889V18.189C16.7444 18.1323 16.7549 18.0347 16.7651 17.9413C16.7687 17.9084 16.7722 17.8761 16.7785 17.8462C16.7588 17.7245 16.806 17.7637 16.8724 17.819C16.9252 17.8629 16.9902 17.917 17.0435 17.9083C17.295 17.9966 17.6075 17.7957 17.5638 17.5096C17.3279 17.501 17.093 17.4753 16.858 17.4496C16.5172 17.4122 16.1765 17.3749 15.8333 17.3899C15.8127 17.3921 15.792 17.3934 15.7719 17.3946C15.6655 17.4012 15.574 17.4069 15.5868 17.5375C15.5748 17.5973 15.508 17.6182 15.4509 17.636C15.3908 17.6548 15.3415 17.6703 15.3778 17.7241C15.4436 17.8335 15.3032 17.9079 15.1997 17.9628C15.1774 17.9747 15.1568 17.9856 15.1403 17.9958C14.7802 18.133 14.399 18.1303 14.0176 18.1275C13.7909 18.1259 13.5641 18.1243 13.3416 18.1521C12.9947 18.182 12.5823 18.3165 12.4836 18.7C12.6816 18.7536 12.8547 18.6316 13.0171 18.5172C13.0624 18.4853 13.1068 18.4539 13.1508 18.4272C13.1775 18.4418 13.1732 18.4936 13.1683 18.5537C13.162 18.6296 13.1546 18.7187 13.2076 18.7623C13.3749 18.749 13.491 18.5898 13.5919 18.4514C13.6094 18.4274 13.6265 18.4041 13.6432 18.3822C13.6924 18.439 13.6796 18.511 13.667 18.5812C13.6551 18.6482 13.6434 18.7136 13.6862 18.7623C13.8328 18.7764 13.9238 18.6675 14.014 18.5597C14.0626 18.5015 14.111 18.4437 14.1676 18.4056C14.2225 18.3962 14.2102 18.4587 14.1958 18.5317C14.1818 18.6028 14.1658 18.6839 14.2077 18.7187C14.363 18.7856 14.5235 18.6732 14.5735 18.5204C14.6463 18.3043 14.7135 18.4643 14.7415 18.6003C14.832 18.7543 15.0068 18.6092 15.0725 18.5072C15.1335 18.3491 15.1932 18.416 15.2643 18.4956C15.2871 18.5211 15.3111 18.548 15.3366 18.5691C15.4877 18.5933 15.5682 18.4781 15.6474 18.3647C15.6848 18.3111 15.722 18.2579 15.7661 18.2201C15.7556 18.3513 15.8966 18.5213 16.0116 18.3884C16.0561 18.3468 16.082 18.2837 16.1073 18.2223C16.1366 18.1512 16.1649 18.0823 16.2201 18.0518C16.2638 18.0688 16.3064 18.0977 16.3492 18.1269Z" fill="#FFEC2D"/>
<path d="M13.4238 15.989C13.3406 16.1425 13.2916 16.3189 13.1845 16.4564C12.8625 16.1587 12.3956 16.1686 11.987 16.1487C11.6498 16.1304 11.2832 16.0988 11.0223 15.8546C10.7478 15.6262 10.5238 15.3297 10.2171 15.1444C9.93716 15.0671 9.65497 14.9704 9.42992 14.7755C8.94899 14.3772 8.67356 13.7864 8.20361 13.3758C8.11402 13.2862 8.00836 13.2168 7.90799 13.1408C7.81261 13.1644 7.85578 13.3735 7.73907 13.2669C7.67556 13.221 7.51673 13.2165 7.50241 13.2806C7.64609 13.4729 7.78992 13.6925 7.80983 13.9385C7.71184 13.9487 7.53761 13.9175 7.48904 13.9546C7.61917 14.1527 7.78597 14.3284 7.97549 14.4683C7.88459 14.4831 7.70546 14.475 7.67062 14.5123C7.85873 14.668 8.06045 14.8272 8.30679 14.8672C8.35722 14.9347 8.23306 15.065 8.33748 15.1227C8.39801 15.1478 8.59778 15.1899 8.46018 15.2598C8.36576 15.3244 8.40079 15.4751 8.52155 15.4717C8.5979 15.5113 8.76932 15.521 8.78273 15.5896C8.71506 15.6595 8.50449 15.7425 8.68371 15.808C8.85114 15.9023 9.04208 15.9636 9.23327 15.9703C9.13732 16.0523 9.01911 16.0988 8.92035 16.176C9.36156 16.4388 9.85065 16.6116 10.334 16.778C10.5264 16.8433 10.721 16.9042 10.9205 16.9426C10.3409 16.9086 9.7807 16.7343 9.25282 16.4957C8.97922 16.3738 8.70377 16.256 8.42336 16.1511C8.54631 16.0861 8.68852 16.0702 8.81603 16.0139C8.55135 15.9601 8.2622 15.9424 8.02953 15.7946C8.06521 15.73 8.20038 15.7269 8.27514 15.694C8.41573 15.6598 8.50295 15.6183 8.3047 15.6059C8.10479 15.5508 7.8755 15.5755 7.69932 15.453C7.71067 15.3796 7.89505 15.4052 7.97014 15.3735C8.06471 15.357 8.16984 15.3431 8.2454 15.2785C7.93634 15.1484 7.53209 15.2406 7.29001 14.9633C7.23419 14.8577 7.46338 14.9428 7.52864 14.9252C7.6945 14.9252 7.87274 14.9787 8.03067 14.9108C7.58033 14.71 7.09794 14.5219 6.75449 14.1505C6.71636 14.0907 6.6021 13.9276 6.69429 13.9074C6.96161 13.9433 7.1551 14.2397 7.44104 14.1936C7.47903 14.1415 7.27493 14.0563 7.22398 13.982C6.80708 13.6186 6.40245 13.2242 6.11025 12.7482C6.09015 12.5892 6.33614 12.5654 6.4009 12.6882C6.71974 13.0001 7.00775 13.3641 7.40487 13.5771C7.54577 13.6465 7.32395 13.4949 7.29441 13.4399C6.92748 13.0071 6.57817 12.55 6.32172 12.0403C6.27582 11.9484 6.19975 11.7821 6.33709 11.7332C6.4744 11.6633 6.61064 11.7585 6.68026 11.8783C6.95003 12.224 7.14854 12.6347 7.48459 12.9227C7.19829 12.3583 6.89261 11.7642 6.88521 11.1148C6.89194 10.9889 6.89991 10.7985 7.06798 10.8037C7.20909 10.7819 7.18681 10.9654 7.23304 11.0529C7.37209 11.53 7.43272 12.0464 7.71165 12.4677C7.65004 12.1138 7.55935 11.7493 7.6196 11.3895C7.63349 11.2713 7.76442 11.2356 7.84988 11.307C7.91898 11.4788 7.93337 11.6909 7.99633 11.8745C8.35453 13.1193 9.15882 14.214 10.2069 14.9487C11.0701 15.5501 12.0946 15.9091 13.1401 15.9717C13.2345 15.9801 13.3293 15.983 13.4239 15.9888" fill="#FFEC2D"/>
<ellipse cx="12.0966" cy="17.582" rx="0.0562991" ry="0.0571877" fill="#FFEC2D"/>
<circle cx="12.1189" cy="17.5994" r="0.05" fill="#FFEC2D" stroke="#FFEC2D" stroke-width="0.1"/>
</g>
</svg>
