<svg width="44" height="44" viewBox="0 0 44 44" fill="none" xmlns="http://www.w3.org/2000/svg">
<path d="M21.0833 36.6667C12.4777 36.6667 5.5 29.689 5.5 21.0833C5.5 12.4777 12.4777 5.5 21.0833 5.5C29.689 5.5 36.6667 12.4777 36.6667 21.0833" stroke="#030F4C" stroke-width="1.5" stroke-linecap="round" stroke-linejoin="round"/>
<path d="M6.38 15.8951H35.7683" stroke="#030F4C" stroke-width="1.5" stroke-linecap="round" stroke-linejoin="round"/>
<path d="M6.38 26.2716H21.0833" stroke="#030F4C" stroke-width="1.5" stroke-linecap="round" stroke-linejoin="round"/>
<path d="M28.0097 21.0833C28.0097 16.2983 26.7594 11.5115 24.2569 7.33514C22.7902 4.88764 19.3765 4.88764 17.9117 7.33514C12.9067 15.6896 12.9067 26.4788 17.9099 34.8333C18.6432 36.0561 19.8624 36.6666 21.0834 36.6666" stroke="#030F4C" stroke-width="1.5" stroke-linecap="round" stroke-linejoin="round"/>
<path d="M36.1589 31.1666V28.8255C36.1589 27.1681 34.7454 25.6666 33 25.6666C31.2547 25.6666 29.8412 27.0801 29.8412 28.8255V31.1666" stroke="#030F4C" stroke-width="1.5" stroke-linecap="round" stroke-linejoin="round"/>
<path fill-rule="evenodd" clip-rule="evenodd" d="M36.7143 38.5H29.2857C28.2993 38.5 27.5 37.7006 27.5 36.7143V32.9523C27.5 31.966 28.2993 31.1666 29.2857 31.1666H36.7143C37.7007 31.1666 38.5 31.966 38.5 32.9523V36.7143C38.5 37.7006 37.7007 38.5 36.7143 38.5Z" stroke="#030F4C" stroke-width="1.5" stroke-linecap="round" stroke-linejoin="round"/>
</svg>
