<svg width="44" height="44" viewBox="0 0 44 44" fill="none" xmlns="http://www.w3.org/2000/svg">
<path d="M5.5 28.875H9.779C10.4273 28.8755 11.0492 28.6183 11.5078 28.16V28.16C11.966 27.7014 12.2232 27.0795 12.2228 26.4312V16.6522C12.2232 16.0039 11.966 15.382 11.5078 14.9234V14.9234C11.0492 14.4652 10.4273 14.208 9.779 14.2084H5.51283" stroke="#030F4C" stroke-width="1.5" stroke-linecap="round" stroke-linejoin="round"/>
<path d="M38.4872 14.2084H34.2229C33.5746 14.208 32.9527 14.4652 32.4941 14.9234V14.9234C32.0358 15.382 31.7786 16.0039 31.7791 16.6522V26.4312C31.7786 27.0795 32.0358 27.7014 32.4941 28.16V28.16C32.9527 28.6183 33.5746 28.8755 34.2229 28.875H38.4872" stroke="#030F4C" stroke-width="1.5" stroke-linecap="round" stroke-linejoin="round"/>
<rect x="5.5" y="5.5" width="33" height="33" rx="9.16285" stroke="#030F4C" stroke-width="1.5" stroke-linecap="round" stroke-linejoin="round"/>
<path d="M31.8157 26.8528H30.239C29.7146 26.8524 29.1962 26.9649 28.7192 27.1828L21.0063 30.6955" stroke="#030F4C" stroke-width="1.5" stroke-linecap="round" stroke-linejoin="round"/>
<path d="M19.5159 15.8914C18.5884 15.339 17.4638 15.2262 16.4451 15.5834L12.2284 17.1032" stroke="#030F4C" stroke-width="1.5" stroke-linecap="round" stroke-linejoin="round"/>
<path d="M32.0723 15.466L26.7996 13.145C25.6697 12.6477 24.3653 12.7524 23.3291 13.4237L18.5441 16.5238C17.8251 16.9899 17.3631 17.7634 17.2938 18.6175C17.2246 19.4716 17.5558 20.3094 18.1903 20.8853V20.8853C19.014 21.6312 20.2044 21.8111 21.2116 21.3418L24.0643 20.0108" stroke="#030F4C" stroke-width="1.5" stroke-linecap="round" stroke-linejoin="round"/>
<path d="M24.0643 20.009L25.5127 21.3235C26.2773 22.0163 26.7146 22.9991 26.7174 24.0309C26.7202 25.0626 26.2882 26.0478 25.5273 26.7447L21.8295 30.129C20.4336 31.4066 18.2948 31.4122 16.8923 30.1419L14.3513 27.8374C13.7478 27.3009 12.9842 26.9787 12.1788 26.9207" stroke="#030F4C" stroke-width="1.5" stroke-linecap="round" stroke-linejoin="round"/>
</svg>
