<svg width="44" height="44" viewBox="0 0 44 44" fill="none" xmlns="http://www.w3.org/2000/svg">
<path d="M22 7.16667V3.5" stroke="#030F4C" stroke-width="1.5" stroke-linecap="round" stroke-linejoin="round"/>
<path d="M3.66669 21.8333H7.33335" stroke="#030F4C" stroke-width="1.5" stroke-linecap="round" stroke-linejoin="round"/>
<path d="M8.98334 8.81665L11 10.8333" stroke="#030F4C" stroke-width="1.5" stroke-linecap="round" stroke-linejoin="round"/>
<path d="M35.0167 8.81665L33 10.8333" stroke="#030F4C" stroke-width="1.5" stroke-linecap="round" stroke-linejoin="round"/>
<path d="M40.3334 21.6499H36.6667" stroke="#030F4C" stroke-width="1.5" stroke-linecap="round" stroke-linejoin="round"/>
<path d="M5.5 29.8999V29.8999C7.51667 28.9833 10.0833 28.9833 12.1 29.8999V29.8999C14.1167 30.8166 16.6833 30.8166 18.7 29.8999V29.8999C20.7167 28.9833 23.2833 28.9833 25.3 29.8999V29.8999C27.3167 30.8166 29.8833 30.8166 31.9 29.8999V29.8999C33.9167 28.9833 36.4833 28.9833 38.5 29.8999V29.8999" stroke="#030F4C" stroke-width="1.5" stroke-linecap="round" stroke-linejoin="round"/>
<path d="M12.1 35.7666V35.7666C14.1167 36.6833 16.6834 36.6833 18.7 35.7666V35.7666C20.7167 34.85 23.2834 34.85 25.3 35.7666V35.7666C27.3167 36.6833 29.8834 36.6833 31.9 35.7666V35.7666" stroke="#030F4C" stroke-width="1.5" stroke-linecap="round" stroke-linejoin="round"/>
<path d="M12.8334 21.8333C12.8334 16.7 16.8667 12.6666 22 12.6666C27.1334 12.6666 31.1667 16.7 31.1667 21.8333" stroke="#030F4C" stroke-width="1.5" stroke-linecap="round" stroke-linejoin="round"/>
</svg>
