<svg width="584" height="584" viewBox="0 0 584 584" fill="none" xmlns="http://www.w3.org/2000/svg">
<path fill-rule="evenodd" clip-rule="evenodd" d="M243.437 0H339.99C340.205 64.6807 366.145 126.622 412.095 172.175C457.692 217.782 519.489 243.514 584 243.755V340.245C449.483 340.561 340.573 449.57 340.468 584H243.914C243.756 449.443 134.645 340.403 0 340.245V243.755C64.4998 243.549 126.299 217.851 171.905 172.27C217.588 126.547 243.305 64.6127 243.437 0ZM173.624 292.048C221.992 320.893 262.527 361.173 291.666 409.344C320.639 361.205 361.012 320.924 409.23 292.048C361.025 263.114 320.658 222.805 291.666 174.656C262.509 222.838 221.979 263.144 173.624 292.048Z" fill="#F00000"/>
</svg>
