<svg width="290" height="290" viewBox="0 0 290 290" fill="none" xmlns="http://www.w3.org/2000/svg">
<path fill-rule="evenodd" clip-rule="evenodd" d="M111.072 -59H178.527C178.677 -13.8121 196.8 29.4619 228.902 61.2863C260.757 93.1488 303.93 111.126 349 111.294V178.706C255.022 178.926 178.934 255.083 178.861 349H111.406C111.296 254.995 35.0668 178.816 -59 178.706V111.294C-13.9385 111.151 29.2361 93.1971 61.0981 61.353C93.0137 29.4094 110.98 -13.8596 111.072 -59ZM62.2991 145.033C96.0902 165.186 124.409 193.326 144.766 226.98C165.008 193.349 193.214 165.207 226.9 145.033C193.223 124.819 165.021 96.6586 144.766 63.0199C124.396 96.6814 96.0813 124.841 62.2991 145.033Z" fill="#111D58"/>
</svg>
