<svg width="30" height="30" viewBox="0 0 30 30" fill="none" xmlns="http://www.w3.org/2000/svg">
<path fill-rule="evenodd" clip-rule="evenodd" d="M12.5053 0H17.4653C17.4763 3.32264 18.8088 6.50455 21.1693 8.84458C23.5116 11.1874 26.6861 12.5093 30 12.5217V17.4783C23.0899 17.4946 17.4952 23.0944 17.4898 30H12.5298C12.5217 23.0878 6.91668 17.4865 0 17.4783V12.5217C3.31335 12.5111 6.48795 11.191 8.83074 8.84949C11.1775 6.50069 12.4985 3.31914 12.5053 0ZM8.91905 15.0025C11.4037 16.4842 13.486 18.5534 14.9828 21.0279C16.4712 18.5551 18.5452 16.4858 21.0221 15.0025C18.5458 13.5161 16.4722 11.4455 14.9828 8.97205C13.485 11.4472 11.403 13.5177 8.91905 15.0025Z" fill="#F00000"/>
</svg>
