<svg width="320" height="206" viewBox="0 0 320 206" fill="none" xmlns="http://www.w3.org/2000/svg">
<g clip-path="url(#clip0_0_1659)">
<rect width="320" height="206" rx="20" fill="#09348B"/>
<g clip-path="url(#clip1_0_1659)">
<path fill-rule="evenodd" clip-rule="evenodd" d="M30 147C30 141.399 30 138.599 31.0899 136.46C32.0487 134.578 33.5785 133.049 35.4601 132.09C37.5992 131 40.3995 131 46 131H274C279.601 131 282.401 131 284.54 132.09C286.422 133.049 287.951 134.578 288.91 136.46C290 138.599 290 141.399 290 147V160C290 165.601 290 168.401 288.91 170.54C287.951 172.422 286.422 173.951 284.54 174.91C282.401 176 279.601 176 274 176H46C40.3995 176 37.5992 176 35.4601 174.91C33.5785 173.951 32.0487 172.422 31.0899 170.54C30 168.401 30 165.601 30 160V147Z" fill="#F00000"/>
<path d="M119.784 159.24C118.995 159.24 118.275 159.101 117.624 158.824C116.973 158.547 116.413 158.149 115.944 157.632C115.475 157.109 115.112 156.48 114.856 155.744C114.605 155.003 114.48 154.168 114.48 153.24C114.48 152.013 114.699 150.952 115.136 150.056C115.573 149.16 116.189 148.469 116.984 147.984C117.779 147.493 118.712 147.248 119.784 147.248C121.075 147.248 122.115 147.549 122.904 148.152C123.693 148.749 124.237 149.568 124.536 150.608L123.096 150.904C122.856 150.205 122.461 149.648 121.912 149.232C121.363 148.816 120.677 148.608 119.856 148.608C118.997 148.603 118.283 148.795 117.712 149.184C117.147 149.568 116.72 150.109 116.432 150.808C116.144 151.507 115.997 152.317 115.992 153.24C115.987 154.157 116.128 154.963 116.416 155.656C116.704 156.349 117.133 156.893 117.704 157.288C118.28 157.677 118.997 157.875 119.856 157.88C120.597 157.885 121.221 157.744 121.728 157.456C122.235 157.168 122.627 156.752 122.904 156.208C123.181 155.664 123.349 155.011 123.408 154.248H120.96V153.072H124.912C124.928 153.179 124.936 153.307 124.936 153.456C124.941 153.6 124.944 153.699 124.944 153.752C124.944 154.803 124.747 155.744 124.352 156.576C123.963 157.403 123.384 158.053 122.616 158.528C121.853 159.003 120.909 159.24 119.784 159.24ZM130.286 159.24C129.438 159.24 128.697 159.053 128.062 158.68C127.433 158.301 126.942 157.776 126.59 157.104C126.238 156.427 126.062 155.637 126.062 154.736C126.062 153.792 126.235 152.976 126.582 152.288C126.929 151.595 127.411 151.061 128.03 150.688C128.654 150.309 129.385 150.12 130.222 150.12C131.091 150.12 131.83 150.32 132.438 150.72C133.051 151.12 133.51 151.691 133.814 152.432C134.123 153.173 134.257 154.056 134.214 155.08H132.774V154.568C132.758 153.507 132.542 152.715 132.126 152.192C131.71 151.664 131.091 151.4 130.27 151.4C129.39 151.4 128.721 151.683 128.262 152.248C127.803 152.813 127.574 153.624 127.574 154.68C127.574 155.699 127.803 156.488 128.262 157.048C128.721 157.608 129.374 157.888 130.222 157.888C130.793 157.888 131.289 157.757 131.71 157.496C132.131 157.235 132.462 156.859 132.702 156.368L134.07 156.84C133.734 157.603 133.227 158.195 132.55 158.616C131.878 159.032 131.123 159.24 130.286 159.24ZM127.094 155.08V153.936H133.478V155.08H127.094ZM140.819 159C140.307 159.101 139.8 159.141 139.299 159.12C138.803 159.104 138.36 159.005 137.971 158.824C137.582 158.637 137.286 158.349 137.083 157.96C136.912 157.619 136.819 157.275 136.803 156.928C136.792 156.576 136.787 156.179 136.787 155.736V147.96H138.211V155.672C138.211 156.024 138.214 156.325 138.219 156.576C138.23 156.827 138.286 157.043 138.387 157.224C138.579 157.565 138.883 157.765 139.299 157.824C139.72 157.883 140.227 157.867 140.819 157.776V159ZM135.035 151.536V150.36H140.819V151.536H135.035ZM149.864 159.24C149.048 159.24 148.312 159.101 147.656 158.824C147.006 158.547 146.467 158.152 146.04 157.64C145.619 157.123 145.344 156.512 145.216 155.808L146.688 155.576C146.875 156.301 147.262 156.869 147.848 157.28C148.44 157.685 149.136 157.888 149.936 157.888C150.454 157.888 150.92 157.808 151.336 157.648C151.758 157.483 152.091 157.248 152.336 156.944C152.582 156.64 152.704 156.28 152.704 155.864C152.704 155.608 152.659 155.389 152.568 155.208C152.483 155.021 152.363 154.864 152.208 154.736C152.059 154.603 151.888 154.491 151.696 154.4C151.504 154.309 151.304 154.235 151.096 154.176L148.16 153.304C147.84 153.208 147.531 153.088 147.232 152.944C146.934 152.795 146.667 152.611 146.432 152.392C146.198 152.168 146.011 151.901 145.872 151.592C145.734 151.277 145.664 150.907 145.664 150.48C145.664 149.797 145.84 149.216 146.192 148.736C146.55 148.251 147.032 147.88 147.64 147.624C148.248 147.368 148.934 147.243 149.696 147.248C150.47 147.253 151.16 147.392 151.768 147.664C152.382 147.931 152.888 148.315 153.288 148.816C153.694 149.317 153.966 149.917 154.104 150.616L152.592 150.88C152.512 150.411 152.334 150.008 152.056 149.672C151.784 149.331 151.443 149.069 151.032 148.888C150.622 148.701 150.171 148.605 149.68 148.6C149.211 148.595 148.787 148.669 148.408 148.824C148.03 148.979 147.728 149.195 147.504 149.472C147.28 149.744 147.168 150.059 147.168 150.416C147.168 150.768 147.27 151.053 147.472 151.272C147.675 151.485 147.923 151.656 148.216 151.784C148.515 151.907 148.806 152.008 149.088 152.088L151.28 152.72C151.531 152.789 151.819 152.885 152.144 153.008C152.475 153.131 152.795 153.304 153.104 153.528C153.414 153.747 153.67 154.04 153.872 154.408C154.075 154.771 154.176 155.229 154.176 155.784C154.176 156.339 154.064 156.832 153.84 157.264C153.622 157.696 153.315 158.059 152.92 158.352C152.526 158.64 152.067 158.859 151.544 159.008C151.022 159.163 150.462 159.24 149.864 159.24ZM160.678 159C160.166 159.101 159.66 159.141 159.158 159.12C158.662 159.104 158.22 159.005 157.83 158.824C157.441 158.637 157.145 158.349 156.942 157.96C156.772 157.619 156.678 157.275 156.662 156.928C156.652 156.576 156.646 156.179 156.646 155.736V147.96H158.07V155.672C158.07 156.024 158.073 156.325 158.078 156.576C158.089 156.827 158.145 157.043 158.246 157.224C158.438 157.565 158.742 157.765 159.158 157.824C159.58 157.883 160.086 157.867 160.678 157.776V159ZM154.894 151.536V150.36H160.678V151.536H154.894ZM164.889 159.24C164.243 159.24 163.702 159.123 163.265 158.888C162.833 158.648 162.505 158.333 162.281 157.944C162.062 157.555 161.953 157.128 161.953 156.664C161.953 156.211 162.038 155.819 162.209 155.488C162.385 155.152 162.63 154.875 162.945 154.656C163.259 154.432 163.635 154.256 164.073 154.128C164.483 154.016 164.942 153.92 165.449 153.84C165.961 153.755 166.478 153.677 167.001 153.608C167.523 153.539 168.011 153.472 168.465 153.408L167.953 153.704C167.969 152.936 167.814 152.368 167.489 152C167.169 151.632 166.614 151.448 165.825 151.448C165.302 151.448 164.843 151.568 164.449 151.808C164.059 152.043 163.785 152.427 163.625 152.96L162.273 152.552C162.481 151.795 162.883 151.2 163.481 150.768C164.078 150.336 164.865 150.12 165.841 150.12C166.625 150.12 167.297 150.261 167.857 150.544C168.422 150.821 168.827 151.243 169.073 151.808C169.195 152.075 169.273 152.365 169.305 152.68C169.337 152.989 169.352 153.315 169.352 153.656V159H168.089V156.928L168.385 157.12C168.059 157.819 167.603 158.347 167.017 158.704C166.435 159.061 165.726 159.24 164.889 159.24ZM165.105 158.048C165.617 158.048 166.059 157.957 166.433 157.776C166.811 157.589 167.115 157.347 167.345 157.048C167.574 156.744 167.723 156.413 167.793 156.056C167.873 155.789 167.915 155.493 167.921 155.168C167.931 154.837 167.937 154.584 167.937 154.408L168.433 154.624C167.969 154.688 167.513 154.749 167.065 154.808C166.617 154.867 166.193 154.931 165.793 155C165.393 155.064 165.033 155.141 164.713 155.232C164.478 155.307 164.257 155.403 164.049 155.52C163.846 155.637 163.681 155.789 163.553 155.976C163.43 156.157 163.368 156.384 163.368 156.656C163.368 156.891 163.427 157.115 163.545 157.328C163.667 157.541 163.854 157.715 164.105 157.848C164.361 157.981 164.694 158.048 165.105 158.048ZM171.433 159V150.36H172.705V152.448L172.497 152.176C172.598 151.909 172.729 151.664 172.889 151.44C173.054 151.216 173.238 151.032 173.441 150.888C173.665 150.707 173.918 150.568 174.201 150.472C174.483 150.376 174.771 150.32 175.065 150.304C175.358 150.283 175.633 150.301 175.889 150.36V151.696C175.59 151.616 175.262 151.595 174.905 151.632C174.547 151.669 174.217 151.8 173.913 152.024C173.635 152.221 173.419 152.461 173.265 152.744C173.115 153.027 173.011 153.333 172.953 153.664C172.894 153.989 172.865 154.323 172.865 154.664V159H171.433ZM182.225 159C181.713 159.101 181.207 159.141 180.705 159.12C180.209 159.104 179.767 159.005 179.377 158.824C178.988 158.637 178.692 158.349 178.489 157.96C178.319 157.619 178.225 157.275 178.209 156.928C178.199 156.576 178.193 156.179 178.193 155.736V147.96H179.617V155.672C179.617 156.024 179.62 156.325 179.625 156.576C179.636 156.827 179.692 157.043 179.793 157.224C179.985 157.565 180.289 157.765 180.705 157.824C181.127 157.883 181.633 157.867 182.225 157.776V159ZM176.441 151.536V150.36H182.225V151.536H176.441ZM187.364 159.24C186.516 159.24 185.775 159.053 185.14 158.68C184.511 158.301 184.02 157.776 183.668 157.104C183.316 156.427 183.14 155.637 183.14 154.736C183.14 153.792 183.313 152.976 183.66 152.288C184.007 151.595 184.489 151.061 185.108 150.688C185.732 150.309 186.463 150.12 187.3 150.12C188.169 150.12 188.908 150.32 189.516 150.72C190.129 151.12 190.588 151.691 190.892 152.432C191.201 153.173 191.335 154.056 191.292 155.08H189.852V154.568C189.836 153.507 189.62 152.715 189.204 152.192C188.788 151.664 188.169 151.4 187.348 151.4C186.468 151.4 185.799 151.683 185.34 152.248C184.881 152.813 184.652 153.624 184.652 154.68C184.652 155.699 184.881 156.488 185.34 157.048C185.799 157.608 186.452 157.888 187.3 157.888C187.871 157.888 188.367 157.757 188.788 157.496C189.209 157.235 189.54 156.859 189.78 156.368L191.148 156.84C190.812 157.603 190.305 158.195 189.628 158.616C188.956 159.032 188.201 159.24 187.364 159.24ZM184.172 155.08V153.936H190.556V155.08H184.172ZM196.465 159.24C195.66 159.24 194.969 159.04 194.393 158.64C193.817 158.235 193.372 157.688 193.057 157C192.748 156.312 192.593 155.536 192.593 154.672C192.593 153.808 192.748 153.032 193.057 152.344C193.372 151.656 193.817 151.115 194.393 150.72C194.969 150.32 195.657 150.12 196.457 150.12C197.273 150.12 197.958 150.317 198.513 150.712C199.068 151.107 199.486 151.648 199.769 152.336C200.057 153.024 200.201 153.803 200.201 154.672C200.201 155.531 200.057 156.307 199.769 157C199.486 157.688 199.068 158.235 198.513 158.64C197.958 159.04 197.276 159.24 196.465 159.24ZM196.641 157.936C197.222 157.936 197.7 157.797 198.073 157.52C198.446 157.237 198.721 156.851 198.897 156.36C199.078 155.864 199.169 155.301 199.169 154.672C199.169 154.032 199.078 153.469 198.897 152.984C198.721 152.493 198.449 152.112 198.081 151.84C197.713 151.563 197.246 151.424 196.681 151.424C196.094 151.424 195.609 151.568 195.225 151.856C194.846 152.144 194.564 152.533 194.377 153.024C194.196 153.515 194.105 154.064 194.105 154.672C194.105 155.285 194.198 155.84 194.385 156.336C194.572 156.827 194.852 157.216 195.225 157.504C195.604 157.792 196.076 157.936 196.641 157.936ZM199.169 159V152.64H199.009V147.48H200.441V159H199.169Z" fill="white"/>
</g>
<path d="M73.64 63L81.128 39.96H85.944L93.432 63H89.96L83.064 41.976H83.928L77.112 63H73.64ZM77.528 57.8V54.664H89.56V57.8H77.528ZM96.1225 63V39.48H99.4665V63H96.1225ZM107.451 63L102.171 45.704L105.483 45.72L109.099 57.576L112.747 45.72H115.627L119.275 57.576L122.891 45.72H126.187L120.907 63H118.219L114.187 50.488L110.139 63H107.451ZM132.464 63.48C131.184 63.48 130.112 63.2453 129.248 62.776C128.384 62.296 127.728 61.6667 127.28 60.888C126.842 60.0987 126.624 59.2347 126.624 58.296C126.624 57.4213 126.778 56.6533 127.088 55.992C127.397 55.3307 127.856 54.7707 128.464 54.312C129.072 53.8427 129.818 53.464 130.704 53.176C131.472 52.952 132.341 52.7547 133.312 52.584C134.282 52.4133 135.301 52.2533 136.368 52.104C137.445 51.9547 138.512 51.8053 139.568 51.656L138.352 52.328C138.373 50.9733 138.085 49.9707 137.488 49.32C136.901 48.6587 135.888 48.328 134.448 48.328C133.541 48.328 132.709 48.5413 131.952 48.968C131.194 49.384 130.666 50.0773 130.368 51.048L127.248 50.088C127.674 48.6053 128.485 47.4267 129.68 46.552C130.885 45.6773 132.485 45.24 134.48 45.24C136.026 45.24 137.37 45.5067 138.512 46.04C139.664 46.5627 140.506 47.3947 141.04 48.536C141.317 49.1013 141.488 49.6987 141.552 50.328C141.616 50.9573 141.648 51.6347 141.648 52.36V63H138.688V59.048L139.264 59.56C138.549 60.8827 137.637 61.8693 136.528 62.52C135.429 63.16 134.074 63.48 132.464 63.48ZM133.056 60.744C134.005 60.744 134.821 60.5787 135.504 60.248C136.186 59.9067 136.736 59.4747 137.152 58.952C137.568 58.4293 137.84 57.8853 137.968 57.32C138.149 56.808 138.25 56.232 138.272 55.592C138.304 54.952 138.32 54.44 138.32 54.056L139.408 54.456C138.352 54.616 137.392 54.76 136.528 54.888C135.664 55.016 134.88 55.144 134.176 55.272C133.482 55.3893 132.864 55.5333 132.32 55.704C131.861 55.864 131.45 56.056 131.088 56.28C130.736 56.504 130.453 56.776 130.24 57.096C130.037 57.416 129.936 57.8053 129.936 58.264C129.936 58.712 130.048 59.128 130.272 59.512C130.496 59.8853 130.837 60.184 131.296 60.408C131.754 60.632 132.341 60.744 133.056 60.744ZM146.67 70.68L150.014 61.576L150.062 64.264L142.526 45.72H146.014L151.646 60.04H150.622L155.998 45.72H159.39L149.854 70.68H146.67ZM168.004 63.464C165.903 63.464 164.191 63 162.868 62.072C161.546 61.144 160.735 59.8373 160.436 58.152L163.86 57.624C164.074 58.52 164.564 59.2293 165.332 59.752C166.111 60.264 167.076 60.52 168.228 60.52C169.274 60.52 170.09 60.3067 170.676 59.88C171.274 59.4533 171.572 58.8667 171.572 58.12C171.572 57.6827 171.466 57.3307 171.252 57.064C171.05 56.7867 170.618 56.5253 169.956 56.28C169.295 56.0347 168.287 55.7307 166.932 55.368C165.45 54.984 164.271 54.5733 163.396 54.136C162.532 53.688 161.914 53.1707 161.54 52.584C161.178 51.9867 160.996 51.2667 160.996 50.424C160.996 49.3787 161.274 48.4667 161.828 47.688C162.383 46.9093 163.162 46.3067 164.164 45.88C165.178 45.4533 166.362 45.24 167.716 45.24C169.039 45.24 170.218 45.448 171.252 45.864C172.287 46.28 173.124 46.872 173.764 47.64C174.404 48.3973 174.788 49.288 174.916 50.312L171.492 50.936C171.375 50.104 170.986 49.448 170.324 48.968C169.663 48.488 168.804 48.2267 167.748 48.184C166.735 48.1413 165.914 48.312 165.284 48.696C164.655 49.0693 164.34 49.5867 164.34 50.248C164.34 50.632 164.458 50.9573 164.692 51.224C164.938 51.4907 165.407 51.7467 166.1 51.992C166.794 52.2373 167.818 52.5307 169.172 52.872C170.623 53.2453 171.775 53.6613 172.628 54.12C173.482 54.568 174.09 55.1067 174.452 55.736C174.826 56.3547 175.012 57.1067 175.012 57.992C175.012 59.6987 174.388 61.0373 173.14 62.008C171.903 62.9787 170.191 63.464 168.004 63.464ZM183.959 63V39.96H197.607V43.304H187.303V49.8H195.687V53.16H187.303V63H183.959ZM199.99 63V45.72H202.966V49.912L202.55 49.368C202.763 48.8133 203.041 48.3067 203.382 47.848C203.723 47.3787 204.118 46.9947 204.566 46.696C205.003 46.376 205.489 46.1307 206.022 45.96C206.566 45.7787 207.121 45.672 207.686 45.64C208.251 45.5973 208.795 45.624 209.318 45.72V48.856C208.753 48.7067 208.123 48.664 207.43 48.728C206.747 48.792 206.118 49.0107 205.542 49.384C204.998 49.736 204.566 50.1627 204.246 50.664C203.937 51.1653 203.713 51.7253 203.574 52.344C203.435 52.952 203.366 53.5973 203.366 54.28V63H199.99ZM219.217 63.48C217.499 63.48 215.99 63.1067 214.689 62.36C213.398 61.6027 212.39 60.552 211.664 59.208C210.95 57.8533 210.593 56.2853 210.593 54.504C210.593 52.616 210.945 50.9787 211.649 49.592C212.363 48.2053 213.355 47.1333 214.625 46.376C215.894 45.6187 217.371 45.24 219.057 45.24C220.817 45.24 222.315 45.6507 223.553 46.472C224.79 47.2827 225.713 48.44 226.321 49.944C226.939 51.448 227.185 53.2347 227.057 55.304H223.713V54.088C223.691 52.0827 223.307 50.6 222.561 49.64C221.825 48.68 220.699 48.2 219.185 48.2C217.51 48.2 216.251 48.728 215.409 49.784C214.566 50.84 214.145 52.3653 214.145 54.36C214.145 56.2587 214.566 57.7307 215.409 58.776C216.251 59.8107 217.467 60.328 219.057 60.328C220.102 60.328 221.003 60.0933 221.761 59.624C222.529 59.144 223.126 58.4613 223.553 57.576L226.833 58.616C226.161 60.1627 225.142 61.3627 223.777 62.216C222.411 63.0587 220.891 63.48 219.217 63.48ZM213.057 55.304V52.696H225.392V55.304H213.057ZM237.81 63.48C236.093 63.48 234.584 63.1067 233.282 62.36C231.992 61.6027 230.984 60.552 230.258 59.208C229.544 57.8533 229.186 56.2853 229.186 54.504C229.186 52.616 229.538 50.9787 230.242 49.592C230.957 48.2053 231.949 47.1333 233.218 46.376C234.488 45.6187 235.965 45.24 237.65 45.24C239.41 45.24 240.909 45.6507 242.146 46.472C243.384 47.2827 244.306 48.44 244.914 49.944C245.533 51.448 245.778 53.2347 245.65 55.304H242.306V54.088C242.285 52.0827 241.901 50.6 241.154 49.64C240.418 48.68 239.293 48.2 237.778 48.2C236.104 48.2 234.845 48.728 234.002 49.784C233.16 50.84 232.738 52.3653 232.738 54.36C232.738 56.2587 233.16 57.7307 234.002 58.776C234.845 59.8107 236.061 60.328 237.65 60.328C238.696 60.328 239.597 60.0933 240.354 59.624C241.122 59.144 241.72 58.4613 242.146 57.576L245.426 58.616C244.754 60.1627 243.736 61.3627 242.37 62.216C241.005 63.0587 239.485 63.48 237.81 63.48ZM231.65 55.304V52.696H243.986V55.304H231.65Z" fill="white"/>
<path opacity="0.5" d="M64.2775 98V89.36H65.2495L68.5135 96.242L71.7595 89.36H72.7435V97.994H71.7295V91.706L68.7955 98H68.2255L65.2915 91.706V98H64.2775ZM76.2679 98.18C75.7839 98.18 75.3779 98.092 75.0499 97.916C74.7259 97.736 74.4799 97.5 74.3119 97.208C74.1479 96.916 74.0659 96.596 74.0659 96.248C74.0659 95.908 74.1299 95.614 74.2579 95.366C74.3899 95.114 74.5739 94.906 74.8099 94.742C75.0459 94.574 75.3279 94.442 75.6559 94.346C75.9639 94.262 76.3079 94.19 76.6879 94.13C77.0719 94.066 77.4599 94.008 77.8519 93.956C78.2439 93.904 78.6099 93.854 78.9499 93.806L78.5659 94.028C78.5779 93.452 78.4619 93.026 78.2179 92.75C77.9779 92.474 77.5619 92.336 76.9699 92.336C76.5779 92.336 76.2339 92.426 75.9379 92.606C75.6459 92.782 75.4399 93.07 75.3199 93.47L74.3059 93.164C74.4619 92.596 74.7639 92.15 75.2119 91.826C75.6599 91.502 76.2499 91.34 76.9819 91.34C77.5699 91.34 78.0739 91.446 78.4939 91.658C78.9179 91.866 79.2219 92.182 79.4059 92.606C79.4979 92.806 79.5559 93.024 79.5799 93.26C79.6039 93.492 79.6159 93.736 79.6159 93.992V98H78.6679V96.446L78.8899 96.59C78.6459 97.114 78.3039 97.51 77.8639 97.778C77.4279 98.046 76.8959 98.18 76.2679 98.18ZM76.4299 97.286C76.8139 97.286 77.1459 97.218 77.4259 97.082C77.7099 96.942 77.9379 96.76 78.1099 96.536C78.2819 96.308 78.3939 96.06 78.4459 95.792C78.5059 95.592 78.5379 95.37 78.5419 95.126C78.5499 94.878 78.5539 94.688 78.5539 94.556L78.9259 94.718C78.5779 94.766 78.2359 94.812 77.8999 94.856C77.5639 94.9 77.2459 94.948 76.9459 95C76.6459 95.048 76.3759 95.106 76.1359 95.174C75.9599 95.23 75.7939 95.302 75.6379 95.39C75.4859 95.478 75.3619 95.592 75.2659 95.732C75.1739 95.868 75.1279 96.038 75.1279 96.242C75.1279 96.418 75.1719 96.586 75.2599 96.746C75.3519 96.906 75.4919 97.036 75.6799 97.136C75.8719 97.236 76.1219 97.286 76.4299 97.286ZM85.7899 98V94.754C85.7899 94.446 85.7619 94.15 85.7059 93.866C85.6539 93.582 85.5599 93.328 85.4239 93.104C85.2919 92.876 85.1119 92.696 84.8839 92.564C84.6599 92.432 84.3759 92.366 84.0319 92.366C83.7639 92.366 83.5199 92.412 83.2999 92.504C83.0839 92.592 82.8979 92.728 82.7419 92.912C82.5859 93.096 82.4639 93.328 82.3759 93.608C82.2919 93.884 82.2499 94.21 82.2499 94.586L81.5479 94.37C81.5479 93.742 81.6599 93.204 81.8839 92.756C82.1119 92.304 82.4299 91.958 82.8379 91.718C83.2499 91.474 83.7339 91.352 84.2899 91.352C84.7099 91.352 85.0679 91.418 85.3639 91.55C85.6599 91.682 85.9059 91.858 86.1019 92.078C86.2979 92.294 86.4519 92.538 86.5639 92.81C86.6759 93.078 86.7539 93.352 86.7979 93.632C86.8459 93.908 86.8699 94.17 86.8699 94.418V98H85.7899ZM81.1699 98V91.52H82.1299V93.254H82.2499V98H81.1699ZM90.2718 98.18C89.7878 98.18 89.3818 98.092 89.0538 97.916C88.7298 97.736 88.4838 97.5 88.3158 97.208C88.1518 96.916 88.0698 96.596 88.0698 96.248C88.0698 95.908 88.1338 95.614 88.2618 95.366C88.3938 95.114 88.5778 94.906 88.8138 94.742C89.0498 94.574 89.3318 94.442 89.6598 94.346C89.9678 94.262 90.3118 94.19 90.6918 94.13C91.0758 94.066 91.4638 94.008 91.8558 93.956C92.2478 93.904 92.6138 93.854 92.9538 93.806L92.5698 94.028C92.5818 93.452 92.4658 93.026 92.2218 92.75C91.9818 92.474 91.5658 92.336 90.9738 92.336C90.5818 92.336 90.2378 92.426 89.9418 92.606C89.6498 92.782 89.4438 93.07 89.3238 93.47L88.3098 93.164C88.4658 92.596 88.7678 92.15 89.2158 91.826C89.6638 91.502 90.2538 91.34 90.9858 91.34C91.5738 91.34 92.0778 91.446 92.4978 91.658C92.9218 91.866 93.2258 92.182 93.4098 92.606C93.5018 92.806 93.5598 93.024 93.5838 93.26C93.6078 93.492 93.6198 93.736 93.6198 93.992V98H92.6718V96.446L92.8938 96.59C92.6498 97.114 92.3078 97.51 91.8678 97.778C91.4318 98.046 90.8998 98.18 90.2718 98.18ZM90.4338 97.286C90.8178 97.286 91.1498 97.218 91.4298 97.082C91.7138 96.942 91.9418 96.76 92.1138 96.536C92.2858 96.308 92.3978 96.06 92.4498 95.792C92.5098 95.592 92.5418 95.37 92.5458 95.126C92.5538 94.878 92.5578 94.688 92.5578 94.556L92.9298 94.718C92.5818 94.766 92.2398 94.812 91.9038 94.856C91.5678 94.9 91.2498 94.948 90.9498 95C90.6498 95.048 90.3798 95.106 90.1398 95.174C89.9638 95.23 89.7978 95.302 89.6418 95.39C89.4898 95.478 89.3658 95.592 89.2698 95.732C89.1778 95.868 89.1318 96.038 89.1318 96.242C89.1318 96.418 89.1758 96.586 89.2638 96.746C89.3558 96.906 89.4958 97.036 89.6838 97.136C89.8758 97.236 90.1258 97.286 90.4338 97.286ZM97.8018 101.06C97.4618 101.06 97.1298 101.008 96.8058 100.904C96.4818 100.8 96.1838 100.642 95.9118 100.43C95.6438 100.222 95.4198 99.958 95.2398 99.638L96.2178 99.122C96.3778 99.438 96.6038 99.668 96.8958 99.812C97.1918 99.956 97.4958 100.028 97.8078 100.028C98.2198 100.028 98.5618 99.952 98.8338 99.8C99.1058 99.652 99.3058 99.43 99.4338 99.134C99.5658 98.838 99.6298 98.47 99.6258 98.03V96.26H99.7518V91.52H100.7V98.042C100.7 98.218 100.694 98.388 100.682 98.552C100.674 98.716 100.654 98.878 100.622 99.038C100.538 99.498 100.372 99.876 100.124 100.172C99.8758 100.472 99.5558 100.694 99.1638 100.838C98.7718 100.986 98.3178 101.06 97.8018 101.06ZM97.7238 98.18C97.1198 98.18 96.6018 98.03 96.1698 97.73C95.7378 97.426 95.4038 97.016 95.1678 96.5C94.9358 95.984 94.8198 95.402 94.8198 94.754C94.8198 94.106 94.9358 93.524 95.1678 93.008C95.4038 92.492 95.7378 92.086 96.1698 91.79C96.6018 91.49 97.1178 91.34 97.7178 91.34C98.3298 91.34 98.8438 91.488 99.2598 91.784C99.6758 92.08 99.9898 92.486 100.202 93.002C100.418 93.518 100.526 94.102 100.526 94.754C100.526 95.398 100.418 95.98 100.202 96.5C99.9898 97.016 99.6758 97.426 99.2598 97.73C98.8438 98.03 98.3318 98.18 97.7238 98.18ZM97.8558 97.202C98.2918 97.202 98.6498 97.098 98.9298 96.89C99.2098 96.678 99.4158 96.388 99.5478 96.02C99.6838 95.648 99.7518 95.226 99.7518 94.754C99.7518 94.274 99.6838 93.852 99.5478 93.488C99.4158 93.12 99.2118 92.834 98.9358 92.63C98.6598 92.422 98.3098 92.318 97.8858 92.318C97.4458 92.318 97.0818 92.426 96.7938 92.642C96.5098 92.858 96.2978 93.15 96.1578 93.518C96.0218 93.886 95.9538 94.298 95.9538 94.754C95.9538 95.214 96.0238 95.63 96.1638 96.002C96.3038 96.37 96.5138 96.662 96.7938 96.878C97.0778 97.094 97.4318 97.202 97.8558 97.202ZM102.495 90.374V89.27H103.563V90.374H102.495ZM102.495 98V91.52H103.563V98H102.495ZM109.977 98V94.754C109.977 94.446 109.949 94.15 109.893 93.866C109.841 93.582 109.747 93.328 109.611 93.104C109.479 92.876 109.299 92.696 109.071 92.564C108.847 92.432 108.563 92.366 108.219 92.366C107.951 92.366 107.707 92.412 107.487 92.504C107.271 92.592 107.085 92.728 106.929 92.912C106.773 93.096 106.651 93.328 106.563 93.608C106.479 93.884 106.437 94.21 106.437 94.586L105.735 94.37C105.735 93.742 105.847 93.204 106.071 92.756C106.299 92.304 106.617 91.958 107.025 91.718C107.437 91.474 107.921 91.352 108.477 91.352C108.897 91.352 109.255 91.418 109.551 91.55C109.847 91.682 110.093 91.858 110.289 92.078C110.485 92.294 110.639 92.538 110.751 92.81C110.863 93.078 110.941 93.352 110.985 93.632C111.033 93.908 111.057 94.17 111.057 94.418V98H109.977ZM105.357 98V91.52H106.317V93.254H106.437V98H105.357ZM115.239 101.06C114.899 101.06 114.567 101.008 114.243 100.904C113.919 100.8 113.621 100.642 113.349 100.43C113.081 100.222 112.857 99.958 112.677 99.638L113.655 99.122C113.815 99.438 114.041 99.668 114.333 99.812C114.629 99.956 114.933 100.028 115.245 100.028C115.657 100.028 115.999 99.952 116.271 99.8C116.543 99.652 116.743 99.43 116.871 99.134C117.003 98.838 117.067 98.47 117.063 98.03V96.26H117.189V91.52H118.137V98.042C118.137 98.218 118.131 98.388 118.119 98.552C118.111 98.716 118.091 98.878 118.059 99.038C117.975 99.498 117.809 99.876 117.561 100.172C117.313 100.472 116.993 100.694 116.601 100.838C116.209 100.986 115.755 101.06 115.239 101.06ZM115.161 98.18C114.557 98.18 114.039 98.03 113.607 97.73C113.175 97.426 112.841 97.016 112.605 96.5C112.373 95.984 112.257 95.402 112.257 94.754C112.257 94.106 112.373 93.524 112.605 93.008C112.841 92.492 113.175 92.086 113.607 91.79C114.039 91.49 114.555 91.34 115.155 91.34C115.767 91.34 116.281 91.488 116.697 91.784C117.113 92.08 117.427 92.486 117.639 93.002C117.855 93.518 117.963 94.102 117.963 94.754C117.963 95.398 117.855 95.98 117.639 96.5C117.427 97.016 117.113 97.426 116.697 97.73C116.281 98.03 115.769 98.18 115.161 98.18ZM115.293 97.202C115.729 97.202 116.087 97.098 116.367 96.89C116.647 96.678 116.853 96.388 116.985 96.02C117.121 95.648 117.189 95.226 117.189 94.754C117.189 94.274 117.121 93.852 116.985 93.488C116.853 93.12 116.649 92.834 116.373 92.63C116.097 92.422 115.747 92.318 115.323 92.318C114.883 92.318 114.519 92.426 114.231 92.642C113.947 92.858 113.735 93.15 113.595 93.518C113.459 93.886 113.391 94.298 113.391 94.754C113.391 95.214 113.461 95.63 113.601 96.002C113.741 96.37 113.951 96.662 114.231 96.878C114.515 97.094 114.869 97.202 115.293 97.202ZM123.115 100.88L124.369 97.472L124.387 98.48L121.555 91.52H122.677L124.897 97.118H124.513L126.595 91.52H127.681L124.153 100.88H123.115ZM131.198 98.18C130.554 98.18 129.998 98.034 129.53 97.742C129.066 97.45 128.708 97.046 128.456 96.53C128.204 96.014 128.078 95.422 128.078 94.754C128.078 94.074 128.206 93.478 128.462 92.966C128.718 92.454 129.08 92.056 129.548 91.772C130.016 91.484 130.566 91.34 131.198 91.34C131.846 91.34 132.404 91.486 132.872 91.778C133.34 92.066 133.698 92.468 133.946 92.984C134.198 93.496 134.324 94.086 134.324 94.754C134.324 95.43 134.198 96.026 133.946 96.542C133.694 97.054 133.334 97.456 132.866 97.748C132.398 98.036 131.842 98.18 131.198 98.18ZM131.198 97.166C131.87 97.166 132.37 96.942 132.698 96.494C133.026 96.046 133.19 95.466 133.19 94.754C133.19 94.022 133.024 93.44 132.692 93.008C132.36 92.572 131.862 92.354 131.198 92.354C130.746 92.354 130.374 92.456 130.082 92.66C129.79 92.864 129.572 93.146 129.428 93.506C129.284 93.866 129.212 94.282 129.212 94.754C129.212 95.482 129.38 96.066 129.716 96.506C130.052 96.946 130.546 97.166 131.198 97.166ZM138.105 98.168C137.689 98.168 137.331 98.102 137.031 97.97C136.735 97.838 136.489 97.662 136.293 97.442C136.097 97.222 135.943 96.978 135.831 96.71C135.719 96.442 135.639 96.168 135.591 95.888C135.547 95.608 135.525 95.346 135.525 95.102V91.52H136.605V94.766C136.605 95.07 136.633 95.364 136.689 95.648C136.745 95.932 136.839 96.188 136.971 96.416C137.107 96.644 137.287 96.824 137.511 96.956C137.739 97.088 138.023 97.154 138.363 97.154C138.631 97.154 138.875 97.108 139.095 97.016C139.315 96.924 139.503 96.788 139.659 96.608C139.815 96.424 139.935 96.192 140.019 95.912C140.103 95.632 140.145 95.306 140.145 94.934L140.847 95.15C140.847 95.774 140.733 96.312 140.505 96.764C140.281 97.216 139.963 97.564 139.551 97.808C139.143 98.048 138.661 98.168 138.105 98.168ZM140.265 98V96.266H140.145V91.52H141.219V98H140.265ZM142.899 98V91.52H143.853V93.086L143.697 92.882C143.773 92.682 143.871 92.498 143.991 92.33C144.115 92.162 144.253 92.024 144.405 91.916C144.573 91.78 144.763 91.676 144.975 91.604C145.187 91.532 145.403 91.49 145.623 91.478C145.843 91.462 146.049 91.476 146.241 91.52V92.522C146.017 92.462 145.771 92.446 145.503 92.474C145.235 92.502 144.987 92.6 144.759 92.768C144.551 92.916 144.389 93.096 144.273 93.308C144.161 93.52 144.083 93.75 144.039 93.998C143.995 94.242 143.973 94.492 143.973 94.748V98H142.899ZM150.396 98V91.166C150.396 90.998 150.404 90.828 150.42 90.656C150.436 90.48 150.472 90.31 150.528 90.146C150.584 89.978 150.676 89.824 150.804 89.684C150.952 89.52 151.114 89.404 151.29 89.336C151.466 89.264 151.644 89.22 151.824 89.204C152.008 89.188 152.182 89.18 152.346 89.18H153.168V90.068H152.406C152.09 90.068 151.854 90.146 151.698 90.302C151.542 90.454 151.464 90.686 151.464 90.998V98H150.396ZM149.298 92.402V91.52H153.168V92.402H149.298ZM154.428 90.374V89.27H155.496V90.374H154.428ZM154.428 98V91.52H155.496V98H154.428ZM161.915 98V94.754C161.915 94.446 161.887 94.15 161.831 93.866C161.779 93.582 161.685 93.328 161.549 93.104C161.417 92.876 161.237 92.696 161.009 92.564C160.785 92.432 160.501 92.366 160.157 92.366C159.889 92.366 159.645 92.412 159.425 92.504C159.209 92.592 159.023 92.728 158.867 92.912C158.711 93.096 158.589 93.328 158.501 93.608C158.417 93.884 158.375 94.21 158.375 94.586L157.673 94.37C157.673 93.742 157.785 93.204 158.009 92.756C158.237 92.304 158.555 91.958 158.963 91.718C159.375 91.474 159.859 91.352 160.415 91.352C160.835 91.352 161.193 91.418 161.489 91.55C161.785 91.682 162.031 91.858 162.227 92.078C162.423 92.294 162.577 92.538 162.689 92.81C162.801 93.078 162.879 93.352 162.923 93.632C162.971 93.908 162.995 94.17 162.995 94.418V98H161.915ZM157.295 98V91.52H158.255V93.254H158.375V98H157.295ZM166.397 98.18C165.913 98.18 165.507 98.092 165.179 97.916C164.855 97.736 164.609 97.5 164.441 97.208C164.277 96.916 164.195 96.596 164.195 96.248C164.195 95.908 164.259 95.614 164.387 95.366C164.519 95.114 164.703 94.906 164.939 94.742C165.175 94.574 165.457 94.442 165.785 94.346C166.093 94.262 166.437 94.19 166.817 94.13C167.201 94.066 167.589 94.008 167.981 93.956C168.373 93.904 168.739 93.854 169.079 93.806L168.695 94.028C168.707 93.452 168.591 93.026 168.347 92.75C168.107 92.474 167.691 92.336 167.099 92.336C166.707 92.336 166.363 92.426 166.067 92.606C165.775 92.782 165.569 93.07 165.449 93.47L164.435 93.164C164.591 92.596 164.893 92.15 165.341 91.826C165.789 91.502 166.379 91.34 167.111 91.34C167.699 91.34 168.203 91.446 168.623 91.658C169.047 91.866 169.351 92.182 169.535 92.606C169.627 92.806 169.685 93.024 169.709 93.26C169.733 93.492 169.745 93.736 169.745 93.992V98H168.797V96.446L169.019 96.59C168.775 97.114 168.433 97.51 167.993 97.778C167.557 98.046 167.025 98.18 166.397 98.18ZM166.559 97.286C166.943 97.286 167.275 97.218 167.555 97.082C167.839 96.942 168.067 96.76 168.239 96.536C168.411 96.308 168.523 96.06 168.575 95.792C168.635 95.592 168.667 95.37 168.671 95.126C168.679 94.878 168.683 94.688 168.683 94.556L169.055 94.718C168.707 94.766 168.365 94.812 168.029 94.856C167.693 94.9 167.375 94.948 167.075 95C166.775 95.048 166.505 95.106 166.265 95.174C166.089 95.23 165.923 95.302 165.767 95.39C165.615 95.478 165.491 95.592 165.395 95.732C165.303 95.868 165.257 96.038 165.257 96.242C165.257 96.418 165.301 96.586 165.389 96.746C165.481 96.906 165.621 97.036 165.809 97.136C166.001 97.236 166.251 97.286 166.559 97.286ZM175.919 98V94.754C175.919 94.446 175.891 94.15 175.835 93.866C175.783 93.582 175.689 93.328 175.553 93.104C175.421 92.876 175.241 92.696 175.013 92.564C174.789 92.432 174.505 92.366 174.161 92.366C173.893 92.366 173.649 92.412 173.429 92.504C173.213 92.592 173.027 92.728 172.871 92.912C172.715 93.096 172.593 93.328 172.505 93.608C172.421 93.884 172.379 94.21 172.379 94.586L171.677 94.37C171.677 93.742 171.789 93.204 172.013 92.756C172.241 92.304 172.559 91.958 172.967 91.718C173.379 91.474 173.863 91.352 174.419 91.352C174.839 91.352 175.197 91.418 175.493 91.55C175.789 91.682 176.035 91.858 176.231 92.078C176.427 92.294 176.581 92.538 176.693 92.81C176.805 93.078 176.883 93.352 176.927 93.632C176.975 93.908 176.999 94.17 176.999 94.418V98H175.919ZM171.299 98V91.52H172.259V93.254H172.379V98H171.299ZM181.23 98.18C180.574 98.18 180.016 98.034 179.556 97.742C179.1 97.446 178.752 97.04 178.512 96.524C178.272 96.008 178.148 95.42 178.14 94.76C178.148 94.084 178.274 93.49 178.518 92.978C178.766 92.462 179.12 92.06 179.58 91.772C180.04 91.484 180.594 91.34 181.242 91.34C181.926 91.34 182.514 91.508 183.006 91.844C183.502 92.18 183.834 92.64 184.002 93.224L182.946 93.542C182.81 93.166 182.588 92.874 182.28 92.666C181.976 92.458 181.626 92.354 181.23 92.354C180.786 92.354 180.42 92.458 180.132 92.666C179.844 92.87 179.63 93.154 179.49 93.518C179.35 93.878 179.278 94.292 179.274 94.76C179.282 95.48 179.448 96.062 179.772 96.506C180.1 96.946 180.586 97.166 181.23 97.166C181.654 97.166 182.006 97.07 182.286 96.878C182.566 96.682 182.778 96.4 182.922 96.032L184.002 96.314C183.778 96.918 183.428 97.38 182.952 97.7C182.476 98.02 181.902 98.18 181.23 98.18ZM187.859 98.18C187.223 98.18 186.667 98.04 186.191 97.76C185.719 97.476 185.351 97.082 185.087 96.578C184.823 96.07 184.691 95.478 184.691 94.802C184.691 94.094 184.821 93.482 185.081 92.966C185.341 92.446 185.703 92.046 186.167 91.766C186.635 91.482 187.183 91.34 187.811 91.34C188.463 91.34 189.017 91.49 189.473 91.79C189.933 92.09 190.277 92.518 190.505 93.074C190.737 93.63 190.837 94.292 190.805 95.06H189.725V94.676C189.713 93.88 189.551 93.286 189.239 92.894C188.927 92.498 188.463 92.3 187.847 92.3C187.187 92.3 186.685 92.512 186.341 92.936C185.997 93.36 185.825 93.968 185.825 94.76C185.825 95.524 185.997 96.116 186.341 96.536C186.685 96.956 187.175 97.166 187.811 97.166C188.239 97.166 188.611 97.068 188.927 96.872C189.243 96.676 189.491 96.394 189.671 96.026L190.697 96.38C190.445 96.952 190.065 97.396 189.557 97.712C189.053 98.024 188.487 98.18 187.859 98.18ZM185.465 95.06V94.202H190.253V95.06H185.465ZM194.589 98.174C193.817 98.174 193.183 98.006 192.687 97.67C192.195 97.33 191.893 96.856 191.781 96.248L192.873 96.074C192.961 96.426 193.163 96.706 193.479 96.914C193.795 97.118 194.187 97.22 194.655 97.22C195.099 97.22 195.447 97.128 195.699 96.944C195.951 96.76 196.077 96.51 196.077 96.194C196.077 96.01 196.035 95.862 195.951 95.75C195.867 95.634 195.693 95.526 195.429 95.426C195.169 95.326 194.775 95.206 194.247 95.066C193.675 94.914 193.225 94.756 192.897 94.592C192.569 94.428 192.335 94.238 192.195 94.022C192.055 93.806 191.985 93.544 191.985 93.236C191.985 92.856 192.089 92.524 192.297 92.24C192.505 91.952 192.795 91.73 193.167 91.574C193.543 91.418 193.979 91.34 194.475 91.34C194.967 91.34 195.407 91.418 195.795 91.574C196.183 91.73 196.495 91.952 196.731 92.24C196.971 92.524 197.113 92.856 197.157 93.236L196.065 93.434C196.013 93.086 195.845 92.812 195.561 92.612C195.281 92.412 194.919 92.306 194.475 92.294C194.055 92.278 193.713 92.352 193.449 92.516C193.189 92.68 193.059 92.902 193.059 93.182C193.059 93.338 193.107 93.472 193.203 93.584C193.303 93.696 193.485 93.802 193.749 93.902C194.017 94.002 194.405 94.116 194.913 94.244C195.485 94.388 195.935 94.546 196.263 94.718C196.595 94.886 196.831 95.086 196.971 95.318C197.111 95.546 197.181 95.828 197.181 96.164C197.181 96.788 196.951 97.28 196.491 97.64C196.031 97.996 195.397 98.174 194.589 98.174ZM203.714 98.18C203.078 98.18 202.522 98.04 202.046 97.76C201.574 97.476 201.206 97.082 200.942 96.578C200.678 96.07 200.546 95.478 200.546 94.802C200.546 94.094 200.676 93.482 200.936 92.966C201.196 92.446 201.558 92.046 202.022 91.766C202.49 91.482 203.038 91.34 203.666 91.34C204.318 91.34 204.872 91.49 205.328 91.79C205.788 92.09 206.132 92.518 206.36 93.074C206.592 93.63 206.692 94.292 206.66 95.06H205.58V94.676C205.568 93.88 205.406 93.286 205.094 92.894C204.782 92.498 204.318 92.3 203.702 92.3C203.042 92.3 202.54 92.512 202.196 92.936C201.852 93.36 201.68 93.968 201.68 94.76C201.68 95.524 201.852 96.116 202.196 96.536C202.54 96.956 203.03 97.166 203.666 97.166C204.094 97.166 204.466 97.068 204.782 96.872C205.098 96.676 205.346 96.394 205.526 96.026L206.552 96.38C206.3 96.952 205.92 97.396 205.412 97.712C204.908 98.024 204.342 98.18 203.714 98.18ZM201.32 95.06V94.202H206.108V95.06H201.32ZM208.614 98V91.166C208.614 90.998 208.622 90.828 208.638 90.656C208.654 90.48 208.69 90.31 208.746 90.146C208.802 89.978 208.894 89.824 209.022 89.684C209.17 89.52 209.332 89.404 209.508 89.336C209.684 89.264 209.862 89.22 210.042 89.204C210.226 89.188 210.4 89.18 210.564 89.18H211.386V90.068H210.624C210.308 90.068 210.072 90.146 209.916 90.302C209.76 90.454 209.682 90.686 209.682 90.998V98H208.614ZM207.516 92.402V91.52H211.386V92.402H207.516ZM212.424 98V91.166C212.424 90.998 212.432 90.828 212.448 90.656C212.464 90.48 212.5 90.31 212.556 90.146C212.612 89.978 212.704 89.824 212.832 89.684C212.98 89.52 213.142 89.404 213.318 89.336C213.494 89.264 213.672 89.22 213.852 89.204C214.036 89.188 214.21 89.18 214.374 89.18H215.196V90.068H214.434C214.118 90.068 213.882 90.146 213.726 90.302C213.57 90.454 213.492 90.686 213.492 90.998V98H212.424ZM211.326 92.402V91.52H215.196V92.402H211.326ZM216.448 90.374V89.27H217.516V90.374H216.448ZM216.448 98V91.52H217.516V98H216.448ZM222.047 98.18C221.391 98.18 220.833 98.034 220.373 97.742C219.917 97.446 219.569 97.04 219.329 96.524C219.089 96.008 218.965 95.42 218.957 94.76C218.965 94.084 219.091 93.49 219.335 92.978C219.583 92.462 219.937 92.06 220.397 91.772C220.857 91.484 221.411 91.34 222.059 91.34C222.743 91.34 223.331 91.508 223.823 91.844C224.319 92.18 224.651 92.64 224.819 93.224L223.763 93.542C223.627 93.166 223.405 92.874 223.097 92.666C222.793 92.458 222.443 92.354 222.047 92.354C221.603 92.354 221.237 92.458 220.949 92.666C220.661 92.87 220.447 93.154 220.307 93.518C220.167 93.878 220.095 94.292 220.091 94.76C220.099 95.48 220.265 96.062 220.589 96.506C220.917 96.946 221.403 97.166 222.047 97.166C222.471 97.166 222.823 97.07 223.103 96.878C223.383 96.682 223.595 96.4 223.739 96.032L224.819 96.314C224.595 96.918 224.245 97.38 223.769 97.7C223.293 98.02 222.719 98.18 222.047 98.18ZM225.987 90.374V89.27H227.055V90.374H225.987ZM225.987 98V91.52H227.055V98H225.987ZM231.664 98.18C231.028 98.18 230.472 98.04 229.996 97.76C229.524 97.476 229.156 97.082 228.892 96.578C228.628 96.07 228.496 95.478 228.496 94.802C228.496 94.094 228.626 93.482 228.886 92.966C229.146 92.446 229.508 92.046 229.972 91.766C230.44 91.482 230.988 91.34 231.616 91.34C232.268 91.34 232.822 91.49 233.278 91.79C233.738 92.09 234.082 92.518 234.31 93.074C234.542 93.63 234.642 94.292 234.61 95.06H233.53V94.676C233.518 93.88 233.356 93.286 233.044 92.894C232.732 92.498 232.268 92.3 231.652 92.3C230.992 92.3 230.49 92.512 230.146 92.936C229.802 93.36 229.63 93.968 229.63 94.76C229.63 95.524 229.802 96.116 230.146 96.536C230.49 96.956 230.98 97.166 231.616 97.166C232.044 97.166 232.416 97.068 232.732 96.872C233.048 96.676 233.296 96.394 233.476 96.026L234.502 96.38C234.25 96.952 233.87 97.396 233.362 97.712C232.858 98.024 232.292 98.18 231.664 98.18ZM229.27 95.06V94.202H234.058V95.06H229.27ZM240.384 98V94.754C240.384 94.446 240.356 94.15 240.3 93.866C240.248 93.582 240.154 93.328 240.018 93.104C239.886 92.876 239.706 92.696 239.478 92.564C239.254 92.432 238.97 92.366 238.626 92.366C238.358 92.366 238.114 92.412 237.894 92.504C237.678 92.592 237.492 92.728 237.336 92.912C237.18 93.096 237.058 93.328 236.97 93.608C236.886 93.884 236.844 94.21 236.844 94.586L236.142 94.37C236.142 93.742 236.254 93.204 236.478 92.756C236.706 92.304 237.024 91.958 237.432 91.718C237.844 91.474 238.328 91.352 238.884 91.352C239.304 91.352 239.662 91.418 239.958 91.55C240.254 91.682 240.5 91.858 240.696 92.078C240.892 92.294 241.046 92.538 241.158 92.81C241.27 93.078 241.348 93.352 241.392 93.632C241.44 93.908 241.464 94.17 241.464 94.418V98H240.384ZM235.764 98V91.52H236.724V93.254H236.844V98H235.764ZM246.642 98C246.258 98.076 245.878 98.106 245.502 98.09C245.13 98.078 244.798 98.004 244.506 97.868C244.214 97.728 243.992 97.512 243.84 97.22C243.712 96.964 243.642 96.706 243.63 96.446C243.622 96.182 243.618 95.884 243.618 95.552V89.72H244.686V95.504C244.686 95.768 244.688 95.994 244.692 96.182C244.7 96.37 244.742 96.532 244.818 96.668C244.962 96.924 245.19 97.074 245.502 97.118C245.818 97.162 246.198 97.15 246.642 97.082V98ZM242.304 92.402V91.52H246.642V92.402H242.304ZM248.077 98V89.18H249.145V98H248.077ZM251.845 100.88L253.099 97.472L253.117 98.48L250.285 91.52H251.407L253.627 97.118H253.243L255.325 91.52H256.411L252.883 100.88H251.845Z" fill="white"/>
</g>
<defs>
<clipPath id="clip0_0_1659">
<rect width="320" height="206" fill="white"/>
</clipPath>
<clipPath id="clip1_0_1659">
<rect width="260" height="45" fill="white" transform="translate(30 131)"/>
</clipPath>
</defs>
</svg>
