<svg width="320" height="206" viewBox="0 0 320 206" fill="none" xmlns="http://www.w3.org/2000/svg">
<rect width="320" height="206" rx="20" fill="#09348B"/>
<g clip-path="url(#clip0_87_2143)">
<rect x="30" y="76" width="260" height="45" rx="10" fill="white"/>
<path d="M89.856 105.24C88.7093 105.24 87.736 104.987 86.936 104.48C86.136 103.973 85.5253 103.269 85.104 102.368C84.688 101.467 84.48 100.424 84.48 99.24C84.48 98.056 84.688 97.0133 85.104 96.112C85.5253 95.2107 86.136 94.5067 86.936 94C87.736 93.4933 88.7093 93.24 89.856 93.24C91.1893 93.24 92.2853 93.5787 93.144 94.256C94.008 94.9333 94.6027 95.8453 94.928 96.992L93.48 97.376C93.2453 96.5173 92.8267 95.84 92.224 95.344C91.6213 94.848 90.832 94.6 89.856 94.6C88.9973 94.6 88.2827 94.7947 87.712 95.184C87.1413 95.5733 86.712 96.1173 86.424 96.816C86.136 97.5093 85.9893 98.3173 85.984 99.24C85.9787 100.157 86.12 100.965 86.408 101.664C86.696 102.357 87.128 102.901 87.704 103.296C88.28 103.685 88.9973 103.88 89.856 103.88C90.832 103.88 91.6213 103.632 92.224 103.136C92.8267 102.635 93.2453 101.957 93.48 101.104L94.928 101.488C94.6027 102.629 94.008 103.541 93.144 104.224C92.2853 104.901 91.1893 105.24 89.856 105.24ZM99.1385 105.24C98.4932 105.24 97.9518 105.123 97.5145 104.888C97.0825 104.648 96.7545 104.333 96.5305 103.944C96.3118 103.555 96.2025 103.128 96.2025 102.664C96.2025 102.211 96.2878 101.819 96.4585 101.488C96.6345 101.152 96.8798 100.875 97.1945 100.656C97.5092 100.432 97.8852 100.256 98.3225 100.128C98.7332 100.016 99.1918 99.92 99.6985 99.84C100.211 99.7547 100.728 99.6773 101.251 99.608C101.773 99.5387 102.261 99.472 102.715 99.408L102.203 99.704C102.219 98.936 102.064 98.368 101.739 98C101.419 97.632 100.864 97.448 100.075 97.448C99.5518 97.448 99.0932 97.568 98.6985 97.808C98.3092 98.0427 98.0345 98.4267 97.8745 98.96L96.5225 98.552C96.7305 97.7947 97.1332 97.2 97.7305 96.768C98.3278 96.336 99.1145 96.12 100.091 96.12C100.875 96.12 101.547 96.2613 102.107 96.544C102.672 96.8213 103.077 97.2427 103.323 97.808C103.445 98.0747 103.523 98.3653 103.555 98.68C103.587 98.9893 103.602 99.3147 103.602 99.656V105H102.339V102.928L102.635 103.12C102.309 103.819 101.853 104.347 101.267 104.704C100.685 105.061 99.9758 105.24 99.1385 105.24ZM99.3545 104.048C99.8665 104.048 100.309 103.957 100.683 103.776C101.061 103.589 101.365 103.347 101.595 103.048C101.824 102.744 101.973 102.413 102.043 102.056C102.123 101.789 102.165 101.493 102.171 101.168C102.181 100.837 102.187 100.584 102.187 100.408L102.683 100.624C102.219 100.688 101.763 100.749 101.315 100.808C100.867 100.867 100.443 100.931 100.043 101C99.6425 101.064 99.2825 101.141 98.9625 101.232C98.7278 101.307 98.5065 101.403 98.2985 101.52C98.0958 101.637 97.9305 101.789 97.8025 101.976C97.6798 102.157 97.6185 102.384 97.6185 102.656C97.6185 102.891 97.6772 103.115 97.7945 103.328C97.9172 103.541 98.1038 103.715 98.3545 103.848C98.6105 103.981 98.9438 104.048 99.3545 104.048ZM111.835 105V100.672C111.835 100.261 111.797 99.8667 111.723 99.488C111.653 99.1093 111.528 98.7707 111.347 98.472C111.171 98.168 110.931 97.928 110.627 97.752C110.328 97.576 109.949 97.488 109.491 97.488C109.133 97.488 108.808 97.5493 108.515 97.672C108.227 97.7893 107.979 97.9707 107.771 98.216C107.563 98.4613 107.4 98.7707 107.283 99.144C107.171 99.512 107.115 99.9467 107.115 100.448L106.179 100.16C106.179 99.3227 106.328 98.6053 106.627 98.008C106.931 97.4053 107.355 96.944 107.899 96.624C108.448 96.2987 109.093 96.136 109.835 96.136C110.395 96.136 110.872 96.224 111.267 96.4C111.661 96.576 111.989 96.8107 112.251 97.104C112.512 97.392 112.717 97.7173 112.867 98.08C113.016 98.4373 113.12 98.8027 113.179 99.176C113.243 99.544 113.275 99.8933 113.275 100.224V105H111.835ZM105.675 105V96.36H106.955V98.672H107.115V105H105.675ZM117.81 105.24C117.165 105.24 116.624 105.123 116.186 104.888C115.754 104.648 115.426 104.333 115.202 103.944C114.984 103.555 114.874 103.128 114.874 102.664C114.874 102.211 114.96 101.819 115.13 101.488C115.306 101.152 115.552 100.875 115.866 100.656C116.181 100.432 116.557 100.256 116.994 100.128C117.405 100.016 117.864 99.92 118.37 99.84C118.882 99.7547 119.4 99.6773 119.922 99.608C120.445 99.5387 120.933 99.472 121.386 99.408L120.874 99.704C120.89 98.936 120.736 98.368 120.41 98C120.09 97.632 119.536 97.448 118.746 97.448C118.224 97.448 117.765 97.568 117.37 97.808C116.981 98.0427 116.706 98.4267 116.546 98.96L115.194 98.552C115.402 97.7947 115.805 97.2 116.402 96.768C117 96.336 117.786 96.12 118.762 96.12C119.546 96.12 120.218 96.2613 120.778 96.544C121.344 96.8213 121.749 97.2427 121.994 97.808C122.117 98.0747 122.194 98.3653 122.226 98.68C122.258 98.9893 122.274 99.3147 122.274 99.656V105H121.01V102.928L121.306 103.12C120.981 103.819 120.525 104.347 119.938 104.704C119.357 105.061 118.648 105.24 117.81 105.24ZM118.026 104.048C118.538 104.048 118.981 103.957 119.354 103.776C119.733 103.589 120.037 103.347 120.266 103.048C120.496 102.744 120.645 102.413 120.714 102.056C120.794 101.789 120.837 101.493 120.842 101.168C120.853 100.837 120.858 100.584 120.858 100.408L121.354 100.624C120.89 100.688 120.434 100.749 119.986 100.808C119.538 100.867 119.114 100.931 118.714 101C118.314 101.064 117.954 101.141 117.634 101.232C117.4 101.307 117.178 101.403 116.97 101.52C116.768 101.637 116.602 101.789 116.474 101.976C116.352 102.157 116.29 102.384 116.29 102.656C116.29 102.891 116.349 103.115 116.466 103.328C116.589 103.541 116.776 103.715 117.026 103.848C117.282 103.981 117.616 104.048 118.026 104.048ZM127.746 105.24C126.941 105.24 126.25 105.04 125.674 104.64C125.098 104.235 124.653 103.688 124.338 103C124.029 102.312 123.874 101.536 123.874 100.672C123.874 99.808 124.029 99.032 124.338 98.344C124.653 97.656 125.098 97.1147 125.674 96.72C126.25 96.32 126.938 96.12 127.738 96.12C128.554 96.12 129.24 96.3173 129.794 96.712C130.349 97.1067 130.768 97.648 131.05 98.336C131.338 99.024 131.482 99.8027 131.482 100.672C131.482 101.531 131.338 102.307 131.05 103C130.768 103.688 130.349 104.235 129.794 104.64C129.24 105.04 128.557 105.24 127.746 105.24ZM127.922 103.936C128.504 103.936 128.981 103.797 129.354 103.52C129.728 103.237 130.002 102.851 130.178 102.36C130.36 101.864 130.45 101.301 130.45 100.672C130.45 100.032 130.36 99.4693 130.178 98.984C130.002 98.4933 129.73 98.112 129.362 97.84C128.994 97.5627 128.528 97.424 127.962 97.424C127.376 97.424 126.89 97.568 126.506 97.856C126.128 98.144 125.845 98.5333 125.658 99.024C125.477 99.5147 125.386 100.064 125.386 100.672C125.386 101.285 125.48 101.84 125.666 102.336C125.853 102.827 126.133 103.216 126.506 103.504C126.885 103.792 127.357 103.936 127.922 103.936ZM130.45 105V98.64H130.29V93.48H131.722V105H130.45ZM136.42 105.24C135.774 105.24 135.233 105.123 134.796 104.888C134.364 104.648 134.036 104.333 133.812 103.944C133.593 103.555 133.484 103.128 133.484 102.664C133.484 102.211 133.569 101.819 133.74 101.488C133.916 101.152 134.161 100.875 134.476 100.656C134.79 100.432 135.166 100.256 135.604 100.128C136.014 100.016 136.473 99.92 136.98 99.84C137.492 99.7547 138.009 99.6773 138.532 99.608C139.054 99.5387 139.542 99.472 139.996 99.408L139.484 99.704C139.5 98.936 139.345 98.368 139.02 98C138.7 97.632 138.145 97.448 137.356 97.448C136.833 97.448 136.374 97.568 135.98 97.808C135.59 98.0427 135.316 98.4267 135.156 98.96L133.804 98.552C134.012 97.7947 134.414 97.2 135.012 96.768C135.609 96.336 136.396 96.12 137.372 96.12C138.156 96.12 138.828 96.2613 139.388 96.544C139.953 96.8213 140.358 97.2427 140.604 97.808C140.726 98.0747 140.804 98.3653 140.836 98.68C140.868 98.9893 140.884 99.3147 140.884 99.656V105H139.62V102.928L139.916 103.12C139.59 103.819 139.134 104.347 138.548 104.704C137.966 105.061 137.257 105.24 136.42 105.24ZM136.636 104.048C137.148 104.048 137.59 103.957 137.964 103.776C138.342 103.589 138.646 103.347 138.876 103.048C139.105 102.744 139.254 102.413 139.324 102.056C139.404 101.789 139.446 101.493 139.452 101.168C139.462 100.837 139.468 100.584 139.468 100.408L139.964 100.624C139.5 100.688 139.044 100.749 138.596 100.808C138.148 100.867 137.724 100.931 137.324 101C136.924 101.064 136.564 101.141 136.244 101.232C136.009 101.307 135.788 101.403 135.58 101.52C135.377 101.637 135.212 101.789 135.084 101.976C134.961 102.157 134.9 102.384 134.9 102.656C134.9 102.891 134.958 103.115 135.076 103.328C135.198 103.541 135.385 103.715 135.636 103.848C135.892 103.981 136.225 104.048 136.636 104.048Z" fill="#030F4C"/>
<g opacity="0.5">
<path d="M268 97.5L271 100.5L274 97.5" stroke="#030F4C" stroke-width="1.15" stroke-linecap="round" stroke-linejoin="round"/>
</g>
<circle cx="62" cy="99" r="12" fill="white"/>
<path fill-rule="evenodd" clip-rule="evenodd" d="M70.2936 90.3272C72.5775 92.5119 74 95.5899 74 99C74 102.41 72.5775 105.488 70.2936 107.673V90.3272ZM53.8232 90.217V107.783C51.4711 105.592 50 102.468 50 99C50 95.5321 51.4711 92.4077 53.8232 90.217ZM62.5183 105.327C62.4398 104.053 62.4043 103.23 62.3754 102.435C62.359 102.094 62.662 102.127 62.8846 102.161C64.7451 102.446 65.6219 102.579 65.6219 102.579C64.8806 101.198 66.1405 100.364 67.3292 99.5774C67.6872 99.3405 68.0388 99.1078 68.3273 98.8658C68.2994 98.8565 68.2724 98.8476 68.2463 98.839C67.946 98.7397 67.7652 98.6799 67.6814 98.555C67.5546 98.3659 67.6504 98.0275 67.8913 97.1769C67.9559 96.9487 68.0309 96.6837 68.1149 96.3748C66.2911 96.9461 66.252 96.8501 65.9446 96.0963C65.9121 96.0165 65.8766 95.9294 65.8357 95.835C65.8357 95.835 65.6787 96.0113 64.4169 97.4165C64.2368 97.6173 63.9353 97.483 63.9987 97.1767C64.656 93.9696 64.6892 93.8393 64.6892 93.8393C64.5328 93.9324 64.3963 94.0148 64.2766 94.087C63.7231 94.421 63.5321 94.5361 63.4188 94.4837C63.3591 94.4561 63.3209 94.382 63.2627 94.269C63.2597 94.2632 63.2567 94.2573 63.2536 94.2514C62.5506 92.9018 62.218 92.2364 62.218 92.2364C62.218 92.2364 61.8854 92.9018 61.1824 94.2514C61.1793 94.2573 61.1763 94.2632 61.1733 94.269C61.115 94.382 61.0769 94.4561 61.0172 94.4837C60.9039 94.5361 60.713 94.4209 60.1597 94.087C60.0401 94.0148 59.9036 93.9324 59.7472 93.8393C59.7472 93.8393 59.78 93.9696 60.4373 97.1767C60.5007 97.483 60.1992 97.6173 60.0191 97.4165C58.7573 96.0113 58.6012 95.835 58.6012 95.835C58.56 95.9299 58.5243 96.0174 58.4916 96.0974L58.4916 96.0974C58.1842 96.8502 58.1452 96.9458 56.3216 96.3748C56.4057 96.6844 56.4808 96.95 56.5455 97.1785C56.7859 98.028 56.8816 98.3661 56.7549 98.555C56.6712 98.6799 56.4903 98.7397 56.19 98.839C56.1639 98.8476 56.137 98.8565 56.1091 98.8658C56.3976 99.1078 56.7492 99.3404 57.1072 99.5773C58.2959 100.364 59.5558 101.197 58.8141 102.579C58.8141 102.579 59.6913 102.446 61.5514 102.161C61.774 102.127 62.0774 102.094 62.0606 102.435C62.0317 103.23 61.9962 104.053 61.9177 105.327H62.5183Z" fill="#E30D0D"/>
</g>
<g clip-path="url(#clip1_87_2143)">
<path d="M63.2771 47.18C62.6651 47.18 62.1131 47.076 61.6211 46.868C61.1331 46.66 60.7291 46.364 60.4091 45.98C60.0931 45.592 59.8871 45.134 59.7911 44.606L60.8951 44.432C61.0351 44.976 61.3251 45.402 61.7651 45.71C62.2091 46.014 62.7311 46.166 63.3311 46.166C63.7191 46.166 64.0691 46.106 64.3811 45.986C64.6971 45.862 64.9471 45.686 65.1311 45.458C65.3151 45.23 65.4071 44.96 65.4071 44.648C65.4071 44.456 65.3731 44.292 65.3051 44.156C65.2411 44.016 65.1511 43.898 65.0351 43.802C64.9231 43.702 64.7951 43.618 64.6511 43.55C64.5071 43.482 64.3571 43.426 64.2011 43.382L61.9991 42.728C61.7591 42.656 61.5271 42.566 61.3031 42.458C61.0791 42.346 60.8791 42.208 60.7031 42.044C60.5271 41.876 60.3871 41.676 60.2831 41.444C60.1791 41.208 60.1271 40.93 60.1271 40.61C60.1271 40.098 60.2591 39.662 60.5231 39.302C60.7911 38.938 61.1531 38.66 61.6091 38.468C62.0651 38.276 62.5791 38.182 63.1511 38.186C63.7311 38.19 64.2491 38.294 64.7051 38.498C65.1651 38.698 65.5451 38.986 65.8451 39.362C66.1491 39.738 66.3531 40.188 66.4571 40.712L65.3231 40.91C65.2631 40.558 65.1291 40.256 64.9211 40.004C64.7171 39.748 64.4611 39.552 64.1531 39.416C63.8451 39.276 63.5071 39.204 63.1391 39.2C62.7871 39.196 62.4691 39.252 62.1851 39.368C61.9011 39.484 61.6751 39.646 61.5071 39.854C61.3391 40.058 61.2551 40.294 61.2551 40.562C61.2551 40.826 61.3311 41.04 61.4831 41.204C61.6351 41.364 61.8211 41.492 62.0411 41.588C62.2651 41.68 62.4831 41.756 62.6951 41.816L64.3391 42.29C64.5271 42.342 64.7431 42.414 64.9871 42.506C65.2351 42.598 65.4751 42.728 65.7071 42.896C65.9391 43.06 66.1311 43.28 66.2831 43.556C66.4351 43.828 66.5111 44.172 66.5111 44.588C66.5111 45.004 66.4271 45.374 66.2591 45.698C66.0951 46.022 65.8651 46.294 65.5691 46.514C65.2731 46.73 64.9291 46.894 64.5371 47.006C64.1451 47.122 63.7251 47.18 63.2771 47.18ZM70.5777 47.18C69.9417 47.18 69.3857 47.04 68.9097 46.76C68.4377 46.476 68.0697 46.082 67.8057 45.578C67.5417 45.07 67.4097 44.478 67.4097 43.802C67.4097 43.094 67.5397 42.482 67.7997 41.966C68.0597 41.446 68.4217 41.046 68.8857 40.766C69.3537 40.482 69.9017 40.34 70.5297 40.34C71.1817 40.34 71.7357 40.49 72.1917 40.79C72.6517 41.09 72.9957 41.518 73.2237 42.074C73.4557 42.63 73.5557 43.292 73.5237 44.06H72.4437V43.676C72.4317 42.88 72.2697 42.286 71.9577 41.894C71.6457 41.498 71.1817 41.3 70.5657 41.3C69.9057 41.3 69.4037 41.512 69.0597 41.936C68.7157 42.36 68.5437 42.968 68.5437 43.76C68.5437 44.524 68.7157 45.116 69.0597 45.536C69.4037 45.956 69.8937 46.166 70.5297 46.166C70.9577 46.166 71.3297 46.068 71.6457 45.872C71.9617 45.676 72.2097 45.394 72.3897 45.026L73.4157 45.38C73.1637 45.952 72.7837 46.396 72.2757 46.712C71.7717 47.024 71.2057 47.18 70.5777 47.18ZM68.1837 44.06V43.202H72.9717V44.06H68.1837ZM79.2978 47V43.754C79.2978 43.446 79.2698 43.15 79.2138 42.866C79.1618 42.582 79.0678 42.328 78.9318 42.104C78.7998 41.876 78.6198 41.696 78.3918 41.564C78.1678 41.432 77.8838 41.366 77.5398 41.366C77.2718 41.366 77.0278 41.412 76.8078 41.504C76.5918 41.592 76.4058 41.728 76.2498 41.912C76.0938 42.096 75.9718 42.328 75.8838 42.608C75.7998 42.884 75.7578 43.21 75.7578 43.586L75.0558 43.37C75.0558 42.742 75.1678 42.204 75.3918 41.756C75.6198 41.304 75.9378 40.958 76.3458 40.718C76.7578 40.474 77.2418 40.352 77.7978 40.352C78.2178 40.352 78.5758 40.418 78.8718 40.55C79.1678 40.682 79.4138 40.858 79.6098 41.078C79.8058 41.294 79.9598 41.538 80.0718 41.81C80.1838 42.078 80.2618 42.352 80.3058 42.632C80.3538 42.908 80.3778 43.17 80.3778 43.418V47H79.2978ZM74.6778 47V40.52H75.6378V42.254H75.7578V47H74.6778ZM84.4231 47.18C83.8191 47.18 83.3011 47.03 82.8691 46.73C82.4371 46.426 82.1031 46.016 81.8671 45.5C81.6351 44.984 81.5191 44.402 81.5191 43.754C81.5191 43.106 81.6351 42.524 81.8671 42.008C82.1031 41.492 82.4371 41.086 82.8691 40.79C83.3011 40.49 83.8171 40.34 84.4171 40.34C85.0291 40.34 85.5431 40.488 85.9591 40.784C86.3751 41.08 86.6891 41.486 86.9011 42.002C87.1171 42.518 87.2251 43.102 87.2251 43.754C87.2251 44.398 87.1171 44.98 86.9011 45.5C86.6891 46.016 86.3751 46.426 85.9591 46.73C85.5431 47.03 85.0311 47.18 84.4231 47.18ZM84.5551 46.202C84.9911 46.202 85.3491 46.098 85.6291 45.89C85.9091 45.678 86.1151 45.388 86.2471 45.02C86.3831 44.648 86.4511 44.226 86.4511 43.754C86.4511 43.274 86.3831 42.852 86.2471 42.488C86.1151 42.12 85.9111 41.834 85.6351 41.63C85.3591 41.422 85.0091 41.318 84.5851 41.318C84.1451 41.318 83.7811 41.426 83.4931 41.642C83.2091 41.858 82.9971 42.15 82.8571 42.518C82.7211 42.886 82.6531 43.298 82.6531 43.754C82.6531 44.214 82.7231 44.63 82.8631 45.002C83.0031 45.37 83.2131 45.662 83.4931 45.878C83.7771 46.094 84.1311 46.202 84.5551 46.202ZM86.4511 47V42.23H86.3311V38.36H87.4051V47H86.4511ZM91.4884 47V38.36H92.4604L95.7244 45.242L98.9704 38.36H99.9544V46.994H98.9404V40.706L96.0064 47H95.4364L92.5024 40.706V47H91.4884ZM104.397 47.18C103.753 47.18 103.197 47.034 102.729 46.742C102.265 46.45 101.907 46.046 101.655 45.53C101.403 45.014 101.277 44.422 101.277 43.754C101.277 43.074 101.405 42.478 101.661 41.966C101.917 41.454 102.279 41.056 102.747 40.772C103.215 40.484 103.765 40.34 104.397 40.34C105.045 40.34 105.603 40.486 106.071 40.778C106.539 41.066 106.897 41.468 107.145 41.984C107.397 42.496 107.523 43.086 107.523 43.754C107.523 44.43 107.397 45.026 107.145 45.542C106.893 46.054 106.533 46.456 106.065 46.748C105.597 47.036 105.041 47.18 104.397 47.18ZM104.397 46.166C105.069 46.166 105.569 45.942 105.897 45.494C106.225 45.046 106.389 44.466 106.389 43.754C106.389 43.022 106.223 42.44 105.891 42.008C105.559 41.572 105.061 41.354 104.397 41.354C103.945 41.354 103.573 41.456 103.281 41.66C102.989 41.864 102.771 42.146 102.627 42.506C102.483 42.866 102.411 43.282 102.411 43.754C102.411 44.482 102.579 45.066 102.915 45.506C103.251 45.946 103.745 46.166 104.397 46.166ZM113.458 47V43.754C113.458 43.446 113.43 43.15 113.374 42.866C113.322 42.582 113.228 42.328 113.092 42.104C112.96 41.876 112.78 41.696 112.552 41.564C112.328 41.432 112.044 41.366 111.7 41.366C111.432 41.366 111.188 41.412 110.968 41.504C110.752 41.592 110.566 41.728 110.41 41.912C110.254 42.096 110.132 42.328 110.044 42.608C109.96 42.884 109.918 43.21 109.918 43.586L109.216 43.37C109.216 42.742 109.328 42.204 109.552 41.756C109.78 41.304 110.098 40.958 110.506 40.718C110.918 40.474 111.402 40.352 111.958 40.352C112.378 40.352 112.736 40.418 113.032 40.55C113.328 40.682 113.574 40.858 113.77 41.078C113.966 41.294 114.12 41.538 114.232 41.81C114.344 42.078 114.422 42.352 114.466 42.632C114.514 42.908 114.538 43.17 114.538 43.418V47H113.458ZM108.838 47V40.52H109.798V42.254H109.918V47H108.838ZM118.847 47.18C118.211 47.18 117.655 47.04 117.179 46.76C116.707 46.476 116.339 46.082 116.075 45.578C115.811 45.07 115.679 44.478 115.679 43.802C115.679 43.094 115.809 42.482 116.069 41.966C116.329 41.446 116.691 41.046 117.155 40.766C117.623 40.482 118.171 40.34 118.799 40.34C119.451 40.34 120.005 40.49 120.461 40.79C120.921 41.09 121.265 41.518 121.493 42.074C121.725 42.63 121.825 43.292 121.793 44.06H120.713V43.676C120.701 42.88 120.539 42.286 120.227 41.894C119.915 41.498 119.451 41.3 118.835 41.3C118.175 41.3 117.673 41.512 117.329 41.936C116.985 42.36 116.813 42.968 116.813 43.76C116.813 44.524 116.985 45.116 117.329 45.536C117.673 45.956 118.163 46.166 118.799 46.166C119.227 46.166 119.599 46.068 119.915 45.872C120.231 45.676 120.479 45.394 120.659 45.026L121.685 45.38C121.433 45.952 121.053 46.396 120.545 46.712C120.041 47.024 119.475 47.18 118.847 47.18ZM116.453 44.06V43.202H121.241V44.06H116.453ZM123.912 49.88L125.166 46.472L125.184 47.48L122.352 40.52H123.474L125.694 46.118H125.31L127.392 40.52H128.478L124.95 49.88H123.912Z" fill="white"/>
<path d="M33 39H51" stroke="white" stroke-width="1.15" stroke-linecap="round" stroke-linejoin="round"/>
<path d="M42 49H36C34.3431 49 33 47.6569 33 46V38C33 36.3431 34.3431 35 36 35H48C49.6569 35 51 36.3431 51 38V44" stroke="white" stroke-width="1.15" stroke-linecap="round" stroke-linejoin="round"/>
<path d="M49 51L51 49L49 47" stroke="white" stroke-width="1.15" stroke-linecap="round" stroke-linejoin="round"/>
<path d="M46 49H51" stroke="white" stroke-width="1.15" stroke-linecap="round" stroke-linejoin="round"/>
<path d="M39 43H36.5" stroke="white" stroke-width="1.15" stroke-linecap="round" stroke-linejoin="round"/>
</g>
<path opacity="0.5" d="M191.703 47L194.595 38.36H196.083L198.975 47H197.865L195.159 38.984H195.495L192.813 47H191.703ZM193.095 44.978V43.976H197.583V44.978H193.095ZM202.779 47.18C202.123 47.18 201.565 47.034 201.105 46.742C200.649 46.446 200.301 46.04 200.061 45.524C199.821 45.008 199.697 44.42 199.689 43.76C199.697 43.084 199.823 42.49 200.067 41.978C200.315 41.462 200.669 41.06 201.129 40.772C201.589 40.484 202.143 40.34 202.791 40.34C203.475 40.34 204.063 40.508 204.555 40.844C205.051 41.18 205.383 41.64 205.551 42.224L204.495 42.542C204.359 42.166 204.137 41.874 203.829 41.666C203.525 41.458 203.175 41.354 202.779 41.354C202.335 41.354 201.969 41.458 201.681 41.666C201.393 41.87 201.179 42.154 201.039 42.518C200.899 42.878 200.827 43.292 200.823 43.76C200.831 44.48 200.997 45.062 201.321 45.506C201.649 45.946 202.135 46.166 202.779 46.166C203.203 46.166 203.555 46.07 203.835 45.878C204.115 45.682 204.327 45.4 204.471 45.032L205.551 45.314C205.327 45.918 204.977 46.38 204.501 46.7C204.025 47.02 203.451 47.18 202.779 47.18ZM209.33 47.18C208.674 47.18 208.116 47.034 207.656 46.742C207.2 46.446 206.852 46.04 206.612 45.524C206.372 45.008 206.248 44.42 206.24 43.76C206.248 43.084 206.374 42.49 206.618 41.978C206.866 41.462 207.22 41.06 207.68 40.772C208.14 40.484 208.694 40.34 209.342 40.34C210.026 40.34 210.614 40.508 211.106 40.844C211.602 41.18 211.934 41.64 212.102 42.224L211.046 42.542C210.91 42.166 210.688 41.874 210.38 41.666C210.076 41.458 209.726 41.354 209.33 41.354C208.886 41.354 208.52 41.458 208.232 41.666C207.944 41.87 207.73 42.154 207.59 42.518C207.45 42.878 207.378 43.292 207.374 43.76C207.382 44.48 207.548 45.062 207.872 45.506C208.2 45.946 208.686 46.166 209.33 46.166C209.754 46.166 210.106 46.07 210.386 45.878C210.666 45.682 210.878 45.4 211.022 45.032L212.102 45.314C211.878 45.918 211.528 46.38 211.052 46.7C210.576 47.02 210.002 47.18 209.33 47.18ZM215.959 47.18C215.323 47.18 214.767 47.04 214.291 46.76C213.819 46.476 213.451 46.082 213.187 45.578C212.923 45.07 212.791 44.478 212.791 43.802C212.791 43.094 212.921 42.482 213.181 41.966C213.441 41.446 213.803 41.046 214.267 40.766C214.735 40.482 215.283 40.34 215.911 40.34C216.563 40.34 217.117 40.49 217.573 40.79C218.033 41.09 218.377 41.518 218.605 42.074C218.837 42.63 218.937 43.292 218.905 44.06H217.825V43.676C217.813 42.88 217.651 42.286 217.339 41.894C217.027 41.498 216.563 41.3 215.947 41.3C215.287 41.3 214.785 41.512 214.441 41.936C214.097 42.36 213.925 42.968 213.925 43.76C213.925 44.524 214.097 45.116 214.441 45.536C214.785 45.956 215.275 46.166 215.911 46.166C216.339 46.166 216.711 46.068 217.027 45.872C217.343 45.676 217.591 45.394 217.771 45.026L218.797 45.38C218.545 45.952 218.165 46.396 217.657 46.712C217.153 47.024 216.587 47.18 215.959 47.18ZM213.565 44.06V43.202H218.353V44.06H213.565ZM223.041 47.18C222.433 47.18 221.921 47.03 221.505 46.73C221.089 46.426 220.773 46.016 220.557 45.5C220.345 44.98 220.239 44.398 220.239 43.754C220.239 43.102 220.345 42.518 220.557 42.002C220.773 41.486 221.089 41.08 221.505 40.784C221.925 40.488 222.439 40.34 223.047 40.34C223.647 40.34 224.163 40.49 224.595 40.79C225.031 41.086 225.365 41.492 225.597 42.008C225.829 42.524 225.945 43.106 225.945 43.754C225.945 44.402 225.829 44.984 225.597 45.5C225.365 46.016 225.031 46.426 224.595 46.73C224.163 47.03 223.645 47.18 223.041 47.18ZM220.059 49.88V40.52H221.013V45.29H221.133V49.88H220.059ZM222.909 46.202C223.337 46.202 223.691 46.094 223.971 45.878C224.251 45.662 224.461 45.37 224.601 45.002C224.741 44.63 224.811 44.214 224.811 43.754C224.811 43.298 224.741 42.886 224.601 42.518C224.465 42.15 224.253 41.858 223.965 41.642C223.681 41.426 223.319 41.318 222.879 41.318C222.459 41.318 222.111 41.422 221.835 41.63C221.559 41.834 221.353 42.12 221.217 42.488C221.081 42.852 221.013 43.274 221.013 43.754C221.013 44.226 221.079 44.648 221.211 45.02C221.347 45.388 221.555 45.678 221.835 45.89C222.115 46.098 222.473 46.202 222.909 46.202ZM230.878 47C230.494 47.076 230.114 47.106 229.738 47.09C229.366 47.078 229.034 47.004 228.742 46.868C228.45 46.728 228.228 46.512 228.076 46.22C227.948 45.964 227.878 45.706 227.866 45.446C227.858 45.182 227.854 44.884 227.854 44.552V38.72H228.922V44.504C228.922 44.768 228.924 44.994 228.928 45.182C228.936 45.37 228.978 45.532 229.054 45.668C229.198 45.924 229.426 46.074 229.738 46.118C230.054 46.162 230.434 46.15 230.878 46.082V47ZM226.54 41.402V40.52H230.878V41.402H226.54ZM234.596 47V38.36H238.01C238.094 38.36 238.194 38.364 238.31 38.372C238.426 38.376 238.538 38.388 238.646 38.408C239.114 38.48 239.506 38.64 239.822 38.888C240.142 39.136 240.382 39.45 240.542 39.83C240.702 40.206 240.782 40.624 240.782 41.084C240.782 41.54 240.7 41.958 240.536 42.338C240.376 42.714 240.136 43.028 239.816 43.28C239.5 43.528 239.11 43.688 238.646 43.76C238.538 43.776 238.426 43.788 238.31 43.796C238.194 43.804 238.094 43.808 238.01 43.808H235.664V47H234.596ZM235.664 42.794H237.974C238.05 42.794 238.136 42.79 238.232 42.782C238.332 42.774 238.426 42.76 238.514 42.74C238.79 42.676 239.014 42.56 239.186 42.392C239.362 42.22 239.49 42.02 239.57 41.792C239.65 41.56 239.69 41.324 239.69 41.084C239.69 40.844 239.65 40.61 239.57 40.382C239.49 40.15 239.362 39.948 239.186 39.776C239.014 39.604 238.79 39.488 238.514 39.428C238.426 39.404 238.332 39.39 238.232 39.386C238.136 39.378 238.05 39.374 237.974 39.374H235.664V42.794ZM243.586 47.18C243.102 47.18 242.696 47.092 242.368 46.916C242.044 46.736 241.798 46.5 241.63 46.208C241.466 45.916 241.384 45.596 241.384 45.248C241.384 44.908 241.448 44.614 241.576 44.366C241.708 44.114 241.892 43.906 242.128 43.742C242.364 43.574 242.646 43.442 242.974 43.346C243.282 43.262 243.626 43.19 244.006 43.13C244.39 43.066 244.778 43.008 245.17 42.956C245.562 42.904 245.928 42.854 246.268 42.806L245.884 43.028C245.896 42.452 245.78 42.026 245.536 41.75C245.296 41.474 244.88 41.336 244.288 41.336C243.896 41.336 243.552 41.426 243.256 41.606C242.964 41.782 242.758 42.07 242.638 42.47L241.624 42.164C241.78 41.596 242.082 41.15 242.53 40.826C242.978 40.502 243.568 40.34 244.3 40.34C244.888 40.34 245.392 40.446 245.812 40.658C246.236 40.866 246.54 41.182 246.724 41.606C246.816 41.806 246.874 42.024 246.898 42.26C246.922 42.492 246.934 42.736 246.934 42.992V47H245.986V45.446L246.208 45.59C245.964 46.114 245.622 46.51 245.182 46.778C244.746 47.046 244.214 47.18 243.586 47.18ZM243.748 46.286C244.132 46.286 244.464 46.218 244.744 46.082C245.028 45.942 245.256 45.76 245.428 45.536C245.6 45.308 245.712 45.06 245.764 44.792C245.824 44.592 245.856 44.37 245.86 44.126C245.868 43.878 245.872 43.688 245.872 43.556L246.244 43.718C245.896 43.766 245.554 43.812 245.218 43.856C244.882 43.9 244.564 43.948 244.264 44C243.964 44.048 243.694 44.106 243.454 44.174C243.278 44.23 243.112 44.302 242.956 44.39C242.804 44.478 242.68 44.592 242.584 44.732C242.492 44.868 242.446 45.038 242.446 45.242C242.446 45.418 242.49 45.586 242.578 45.746C242.67 45.906 242.81 46.036 242.998 46.136C243.19 46.236 243.44 46.286 243.748 46.286ZM249.031 49.88L250.285 46.472L250.303 47.48L247.471 40.52H248.593L250.813 46.118H250.429L252.511 40.52H253.597L250.069 49.88H249.031ZM262.334 47L262.34 42.854C262.34 42.37 262.21 41.992 261.95 41.72C261.694 41.444 261.36 41.306 260.948 41.306C260.708 41.306 260.48 41.362 260.264 41.474C260.048 41.582 259.872 41.754 259.736 41.99C259.6 42.222 259.532 42.52 259.532 42.884L258.968 42.656C258.96 42.196 259.054 41.794 259.25 41.45C259.45 41.102 259.722 40.832 260.066 40.64C260.41 40.448 260.798 40.352 261.23 40.352C261.906 40.352 262.438 40.558 262.826 40.97C263.214 41.378 263.408 41.928 263.408 42.62L263.402 47H262.334ZM254.582 47V40.52H255.536V42.254H255.656V47H254.582ZM258.464 47L258.47 42.896C258.47 42.4 258.342 42.012 258.086 41.732C257.83 41.448 257.49 41.306 257.066 41.306C256.646 41.306 256.306 41.45 256.046 41.738C255.786 42.026 255.656 42.408 255.656 42.884L255.092 42.548C255.092 42.128 255.192 41.752 255.392 41.42C255.592 41.088 255.864 40.828 256.208 40.64C256.552 40.448 256.942 40.352 257.378 40.352C257.814 40.352 258.194 40.444 258.518 40.628C258.842 40.812 259.092 41.076 259.268 41.42C259.444 41.76 259.532 42.166 259.532 42.638L259.526 47H258.464ZM267.72 47.18C267.084 47.18 266.528 47.04 266.052 46.76C265.58 46.476 265.212 46.082 264.948 45.578C264.684 45.07 264.552 44.478 264.552 43.802C264.552 43.094 264.682 42.482 264.942 41.966C265.202 41.446 265.564 41.046 266.028 40.766C266.496 40.482 267.044 40.34 267.672 40.34C268.324 40.34 268.878 40.49 269.334 40.79C269.794 41.09 270.138 41.518 270.366 42.074C270.598 42.63 270.698 43.292 270.666 44.06H269.586V43.676C269.574 42.88 269.412 42.286 269.1 41.894C268.788 41.498 268.324 41.3 267.708 41.3C267.048 41.3 266.546 41.512 266.202 41.936C265.858 42.36 265.686 42.968 265.686 43.76C265.686 44.524 265.858 45.116 266.202 45.536C266.546 45.956 267.036 46.166 267.672 46.166C268.1 46.166 268.472 46.068 268.788 45.872C269.104 45.676 269.352 45.394 269.532 45.026L270.558 45.38C270.306 45.952 269.926 46.396 269.418 46.712C268.914 47.024 268.348 47.18 267.72 47.18ZM265.326 44.06V43.202H270.114V44.06H265.326ZM276.44 47V43.754C276.44 43.446 276.412 43.15 276.356 42.866C276.304 42.582 276.21 42.328 276.074 42.104C275.942 41.876 275.762 41.696 275.534 41.564C275.31 41.432 275.026 41.366 274.682 41.366C274.414 41.366 274.17 41.412 273.95 41.504C273.734 41.592 273.548 41.728 273.392 41.912C273.236 42.096 273.114 42.328 273.026 42.608C272.942 42.884 272.9 43.21 272.9 43.586L272.198 43.37C272.198 42.742 272.31 42.204 272.534 41.756C272.762 41.304 273.08 40.958 273.488 40.718C273.9 40.474 274.384 40.352 274.94 40.352C275.36 40.352 275.718 40.418 276.014 40.55C276.31 40.682 276.556 40.858 276.752 41.078C276.948 41.294 277.102 41.538 277.214 41.81C277.326 42.078 277.404 42.352 277.448 42.632C277.496 42.908 277.52 43.17 277.52 43.418V47H276.44ZM271.82 47V40.52H272.78V42.254H272.9V47H271.82ZM282.698 47C282.314 47.076 281.934 47.106 281.558 47.09C281.186 47.078 280.854 47.004 280.562 46.868C280.27 46.728 280.048 46.512 279.896 46.22C279.768 45.964 279.698 45.706 279.686 45.446C279.678 45.182 279.674 44.884 279.674 44.552V38.72H280.742V44.504C280.742 44.768 280.744 44.994 280.748 45.182C280.756 45.37 280.798 45.532 280.874 45.668C281.018 45.924 281.246 46.074 281.558 46.118C281.874 46.162 282.254 46.15 282.698 46.082V47ZM278.36 41.402V40.52H282.698V41.402H278.36ZM286.462 47.174C285.69 47.174 285.056 47.006 284.56 46.67C284.068 46.33 283.766 45.856 283.654 45.248L284.746 45.074C284.834 45.426 285.036 45.706 285.352 45.914C285.668 46.118 286.06 46.22 286.528 46.22C286.972 46.22 287.32 46.128 287.572 45.944C287.824 45.76 287.95 45.51 287.95 45.194C287.95 45.01 287.908 44.862 287.824 44.75C287.74 44.634 287.566 44.526 287.302 44.426C287.042 44.326 286.648 44.206 286.12 44.066C285.548 43.914 285.098 43.756 284.77 43.592C284.442 43.428 284.208 43.238 284.068 43.022C283.928 42.806 283.858 42.544 283.858 42.236C283.858 41.856 283.962 41.524 284.17 41.24C284.378 40.952 284.668 40.73 285.04 40.574C285.416 40.418 285.852 40.34 286.348 40.34C286.84 40.34 287.28 40.418 287.668 40.574C288.056 40.73 288.368 40.952 288.604 41.24C288.844 41.524 288.986 41.856 289.03 42.236L287.938 42.434C287.886 42.086 287.718 41.812 287.434 41.612C287.154 41.412 286.792 41.306 286.348 41.294C285.928 41.278 285.586 41.352 285.322 41.516C285.062 41.68 284.932 41.902 284.932 42.182C284.932 42.338 284.98 42.472 285.076 42.584C285.176 42.696 285.358 42.802 285.622 42.902C285.89 43.002 286.278 43.116 286.786 43.244C287.358 43.388 287.808 43.546 288.136 43.718C288.468 43.886 288.704 44.086 288.844 44.318C288.984 44.546 289.054 44.828 289.054 45.164C289.054 45.788 288.824 46.28 288.364 46.64C287.904 46.996 287.27 47.174 286.462 47.174Z" fill="white"/>
<g opacity="0.5">
<path d="M182 38H164" stroke="white" stroke-width="1.15" stroke-linecap="round" stroke-linejoin="round"/>
<path d="M173 48H179C180.657 48 182 46.6569 182 45V37C182 35.3431 180.657 34 179 34H167C165.343 34 164 35.3431 164 37V43" stroke="white" stroke-width="1.15" stroke-linecap="round" stroke-linejoin="round"/>
<path d="M167 46L169 48L167 50" stroke="white" stroke-width="1.15" stroke-linecap="round" stroke-linejoin="round"/>
<path d="M164 48H169" stroke="white" stroke-width="1.15" stroke-linecap="round" stroke-linejoin="round"/>
<path d="M170 42H168" stroke="white" stroke-width="1.15" stroke-linecap="round" stroke-linejoin="round"/>
</g>
<g clip-path="url(#clip2_87_2143)">
<path fill-rule="evenodd" clip-rule="evenodd" d="M30 147C30 141.399 30 138.599 31.0899 136.46C32.0487 134.578 33.5785 133.049 35.4601 132.09C37.5992 131 40.3995 131 46 131H274C279.601 131 282.401 131 284.54 132.09C286.422 133.049 287.951 134.578 288.91 136.46C290 138.599 290 141.399 290 147V160C290 165.601 290 168.401 288.91 170.54C287.951 172.422 286.422 173.951 284.54 174.91C282.401 176 279.601 176 274 176H46C40.3995 176 37.5992 176 35.4601 174.91C33.5785 173.951 32.0487 172.422 31.0899 170.54C30 168.401 30 165.601 30 160V147Z" fill="#F00000"/>
<path d="M136.012 159.24C134.866 159.24 133.892 158.987 133.092 158.48C132.292 157.973 131.682 157.269 131.26 156.368C130.844 155.467 130.636 154.424 130.636 153.24C130.636 152.056 130.844 151.013 131.26 150.112C131.682 149.211 132.292 148.507 133.092 148C133.892 147.493 134.866 147.24 136.012 147.24C137.346 147.24 138.442 147.579 139.3 148.256C140.164 148.933 140.759 149.845 141.084 150.992L139.636 151.376C139.402 150.517 138.983 149.84 138.38 149.344C137.778 148.848 136.988 148.6 136.012 148.6C135.154 148.6 134.439 148.795 133.868 149.184C133.298 149.573 132.868 150.117 132.58 150.816C132.292 151.509 132.146 152.317 132.14 153.24C132.135 154.157 132.276 154.965 132.564 155.664C132.852 156.357 133.284 156.901 133.86 157.296C134.436 157.685 135.154 157.88 136.012 157.88C136.988 157.88 137.778 157.632 138.38 157.136C138.983 156.635 139.402 155.957 139.636 155.104L141.084 155.488C140.759 156.629 140.164 157.541 139.3 158.224C138.442 158.901 137.346 159.24 136.012 159.24ZM146.519 159.24C145.66 159.24 144.919 159.045 144.295 158.656C143.676 158.267 143.199 157.728 142.863 157.04C142.527 156.352 142.359 155.563 142.359 154.672C142.359 153.765 142.529 152.971 142.871 152.288C143.212 151.605 143.695 151.075 144.319 150.696C144.943 150.312 145.676 150.12 146.519 150.12C147.383 150.12 148.127 150.315 148.751 150.704C149.375 151.088 149.852 151.624 150.183 152.312C150.519 152.995 150.687 153.781 150.687 154.672C150.687 155.573 150.519 156.368 150.183 157.056C149.847 157.739 149.367 158.275 148.743 158.664C148.119 159.048 147.377 159.24 146.519 159.24ZM146.519 157.888C147.415 157.888 148.081 157.589 148.519 156.992C148.956 156.395 149.175 155.621 149.175 154.672C149.175 153.696 148.953 152.92 148.511 152.344C148.068 151.763 147.404 151.472 146.519 151.472C145.916 151.472 145.42 151.608 145.031 151.88C144.641 152.152 144.351 152.528 144.159 153.008C143.967 153.488 143.871 154.043 143.871 154.672C143.871 155.643 144.095 156.421 144.543 157.008C144.991 157.595 145.649 157.888 146.519 157.888ZM158.6 159V154.672C158.6 154.261 158.563 153.867 158.488 153.488C158.419 153.109 158.293 152.771 158.112 152.472C157.936 152.168 157.696 151.928 157.392 151.752C157.093 151.576 156.715 151.488 156.256 151.488C155.899 151.488 155.573 151.549 155.28 151.672C154.992 151.789 154.744 151.971 154.536 152.216C154.328 152.461 154.165 152.771 154.048 153.144C153.936 153.512 153.88 153.947 153.88 154.448L152.944 154.16C152.944 153.323 153.093 152.605 153.392 152.008C153.696 151.405 154.12 150.944 154.664 150.624C155.213 150.299 155.859 150.136 156.6 150.136C157.16 150.136 157.637 150.224 158.032 150.4C158.427 150.576 158.755 150.811 159.016 151.104C159.277 151.392 159.483 151.717 159.632 152.08C159.781 152.437 159.885 152.803 159.944 153.176C160.008 153.544 160.04 153.893 160.04 154.224V159H158.6ZM152.44 159V150.36H153.72V152.672H153.88V159H152.44ZM162.944 159V149.888C162.944 149.664 162.955 149.437 162.976 149.208C162.997 148.973 163.045 148.747 163.12 148.528C163.195 148.304 163.317 148.099 163.488 147.912C163.685 147.693 163.901 147.539 164.136 147.448C164.371 147.352 164.608 147.293 164.848 147.272C165.093 147.251 165.325 147.24 165.544 147.24H166.64V148.424H165.624C165.203 148.424 164.888 148.528 164.68 148.736C164.472 148.939 164.368 149.248 164.368 149.664V159H162.944ZM161.48 151.536V150.36H166.64V151.536H161.48ZM168.32 148.832V147.36H169.744V148.832H168.32ZM168.32 159V150.36H169.744V159H168.32ZM172.151 159V150.36H173.423V152.448L173.215 152.176C173.317 151.909 173.447 151.664 173.607 151.44C173.773 151.216 173.957 151.032 174.159 150.888C174.383 150.707 174.637 150.568 174.919 150.472C175.202 150.376 175.49 150.32 175.783 150.304C176.077 150.283 176.351 150.301 176.607 150.36V151.696C176.309 151.616 175.981 151.595 175.623 151.632C175.266 151.669 174.935 151.8 174.631 152.024C174.354 152.221 174.138 152.461 173.983 152.744C173.834 153.027 173.73 153.333 173.671 153.664C173.613 153.989 173.583 154.323 173.583 154.664V159H172.151ZM188.448 159L188.456 153.472C188.456 152.827 188.283 152.323 187.936 151.96C187.595 151.592 187.149 151.408 186.6 151.408C186.28 151.408 185.976 151.483 185.688 151.632C185.4 151.776 185.165 152.005 184.984 152.32C184.803 152.629 184.712 153.027 184.712 153.512L183.96 153.208C183.949 152.595 184.075 152.059 184.336 151.6C184.603 151.136 184.965 150.776 185.424 150.52C185.883 150.264 186.4 150.136 186.976 150.136C187.877 150.136 188.587 150.411 189.104 150.96C189.621 151.504 189.88 152.237 189.88 153.16L189.872 159H188.448ZM178.112 159V150.36H179.384V152.672H179.544V159H178.112ZM183.288 159L183.296 153.528C183.296 152.867 183.125 152.349 182.784 151.976C182.443 151.597 181.989 151.408 181.424 151.408C180.864 151.408 180.411 151.6 180.064 151.984C179.717 152.368 179.544 152.877 179.544 153.512L178.792 153.064C178.792 152.504 178.925 152.003 179.192 151.56C179.459 151.117 179.821 150.771 180.28 150.52C180.739 150.264 181.259 150.136 181.84 150.136C182.421 150.136 182.928 150.259 183.36 150.504C183.792 150.749 184.125 151.101 184.36 151.56C184.595 152.013 184.712 152.555 184.712 153.184L184.704 159H183.288Z" fill="white"/>
</g>
<defs>
<clipPath id="clip0_87_2143">
<rect width="260" height="45" fill="white" transform="translate(30 76)"/>
</clipPath>
<clipPath id="clip1_87_2143">
<rect width="99" height="24" fill="white" transform="translate(30 30)"/>
</clipPath>
<clipPath id="clip2_87_2143">
<rect width="260" height="45" fill="white" transform="translate(30 131)"/>
</clipPath>
</defs>
</svg>
