<svg width="18" height="18" viewBox="0 0 18 18" fill="none" xmlns="http://www.w3.org/2000/svg">
<g opacity="0.5">
<path d="M5.25 5.25H12.75" stroke="white" stroke-width="1.15" stroke-linecap="round" stroke-linejoin="round"/>
<path fill-rule="evenodd" clip-rule="evenodd" d="M14.25 2.367H3.75C2.92125 2.367 2.25 3.03825 2.25 3.867V14.25C2.25 15.0788 2.92125 15.75 3.75 15.75H14.25C15.0788 15.75 15.75 15.0788 15.75 14.25V3.867C15.75 3.03825 15.0788 2.367 14.25 2.367Z" stroke="white" stroke-width="1.15" stroke-linecap="round" stroke-linejoin="round"/>
<path d="M10.413 12.75H12.825" stroke="white" stroke-width="1.15" stroke-linecap="round" stroke-linejoin="round"/>
<path d="M11.619 12.75V8.25L10.305 9.438" stroke="white" stroke-width="1.15" stroke-linecap="round" stroke-linejoin="round"/>
<path d="M5.625 9.114C5.76825 8.619 6.2055 8.25 6.74625 8.25C7.40175 8.25 7.9335 8.781 7.9335 9.43725C7.9335 10.0238 7.45725 10.5 6.87075 10.5C7.45725 10.5 7.9335 10.9763 7.9335 11.5628C7.9335 12.2183 7.4025 12.75 6.74625 12.75C6.2055 12.75 5.76825 12.381 5.625 11.886" stroke="white" stroke-width="1.15" stroke-linecap="round" stroke-linejoin="round"/>
</g>
</svg>
