<svg width="18" height="18" viewBox="0 0 18 18" fill="none" xmlns="http://www.w3.org/2000/svg">
<path d="M7.875 10.5C6.13333 9.5 3.99167 9.5 2.25 10.5" stroke="white" stroke-width="1.15" stroke-linecap="round" stroke-linejoin="round"/>
<path d="M6 4.05159L5.32783 3.82753C4.92494 3.69323 4.484 3.73601 4.11444 3.94525C3.74488 4.1545 3.48133 4.51059 3.3892 4.92516L2.32144 9.73011C2.27396 9.94379 2.25 10.162 2.25 10.3809V12C2.25 13.2426 3.25736 14.25 4.5 14.25H5.46375C6.61969 14.25 7.58756 13.3741 7.70258 12.2239L7.875 10.5" stroke="white" stroke-width="1.15" stroke-linecap="round" stroke-linejoin="round"/>
<path d="M12 4.05159L12.6722 3.82753C13.0751 3.69323 13.516 3.73601 13.8856 3.94525C14.2551 4.1545 14.5187 4.51059 14.6108 4.92516L15.6786 9.73011C15.726 9.94379 15.75 10.162 15.75 10.3809V12C15.75 13.2426 14.7426 14.25 13.5 14.25H12.5363C11.3803 14.25 10.4124 13.3741 10.2974 12.2239L10.125 10.5" stroke="white" stroke-width="1.15" stroke-linecap="round" stroke-linejoin="round"/>
<path d="M7.875 10.5C8.54167 10 9.45833 10 10.125 10.5" stroke="white" stroke-width="1.15" stroke-linecap="round" stroke-linejoin="round"/>
<path d="M15.75 10.5C14.0083 9.5 11.8667 9.5 10.125 10.5" stroke="white" stroke-width="1.15" stroke-linecap="round" stroke-linejoin="round"/>
</svg>
