<svg width="24" height="24" viewBox="0 0 24 24" fill="none" xmlns="http://www.w3.org/2000/svg">
<path fill-rule="evenodd" clip-rule="evenodd" d="M0 12C0 5.38278 5.3833 0 12 0C18.6167 0 24 5.38278 24 12C24 18.6172 18.6167 24 12 24C5.3833 24 0 18.6172 0 12ZM8.34783 17.2174V9.3913H6.26087V17.2174H8.34783ZM7.30435 7.82609C6.72783 7.82609 6.26087 7.35913 6.26087 6.78261C6.26087 6.20609 6.72783 5.73913 7.30435 5.73913C7.88087 5.73913 8.34783 6.20609 8.34783 6.78261C8.34783 7.35913 7.88087 7.82609 7.30435 7.82609ZM16.1739 17.2174H18.2609V12.7826C18.2609 10.9096 16.7426 9.3913 14.8696 9.3913C13.9576 9.3913 13.1311 9.75339 12.5217 10.3388V9.3913H10.4348V17.2174H12.5217V13.3043C12.5217 12.3 13.3435 11.4783 14.3478 11.4783C15.3522 11.4783 16.1739 12.3 16.1739 13.3043V14.6087V17.2174Z" fill="white"/>
</svg>
